<svg><defs><font id="Roboto-Regular" horiz-adv-x="1164"><font-face font-family="Roboto" font-weight="400" units-per-em="2048" ascent="1536" descent="-512" x-height="1082" cap-height="1456" bbox="-980 -554.996 2396 2163" underline-thickness="100" underline-position="-100" unicode-range="U+0009-U+FFFD"/><glyph glyph-name="fi" unicode="fi" horiz-adv-x="1140" d="M198 0v936H28v146h170v117c0 121.333 35.5 215.333 106.5 282S474 1581 600 1581c44.667 0 88.667-5.167 132-15.5s94.333-25.5 153-45.5l-34-160c-35.333 14-73 26-113 36s-81 15-123 15c-78 0-134.167-17.333-168.5-52s-51.5-88-51.5-160v-117h215V936H395V0H198zm783 0H783v1082h198V0z"/><glyph glyph-name=".notdef" horiz-adv-x="1024" d="M102 0v1024h820V0H102zm102 102h616v820H204V102z"/><glyph glyph-name="uni0002" horiz-adv-x="0"/><glyph glyph-name="uni0002" horiz-adv-x="0"/><glyph glyph-name="uni0009" horiz-adv-x="0"/><glyph glyph-name="nonmarkingreturn" horiz-adv-x="509"/><glyph glyph-name="space" horiz-adv-x="509"/><glyph glyph-name="exclam" unicode="!" horiz-adv-x="539" d="M368 478H171v978h197V478zm1-478H171v204h198V0z"/><glyph glyph-name="quotedbl" unicode="&quot;" horiz-adv-x="733" d="M633 1186L532 936h-97v520h198v-270zm-309 0L223 936h-97l1 240v280h197v-270z"/><glyph glyph-name="numbersign" unicode="#" horiz-adv-x="1276" d="M712 410H457L377 0H226l80 410H70v140h264l68 348H146v142h284l82 416h151l-82-416h255l82 416h151l-82-416h199V898H960l-68-348h219V410H864L784 0H632zM485 550h255l68 348H553z"/><glyph glyph-name="dollar" unicode="$" horiz-adv-x="1193" d="M865 376c0 60-21.167 111.172-63.5 153.505S689 609.671 591 643.004c-134.667 40.667-236.334 95-305.001 163s-103 158.667-103 272c0 110 31.667 199.667 95 269s150.333 111 261 125v221h158v-222c111.333-14.667 197.833-60.334 259.5-137.001s92.5-179.334 92.5-308.001h-196c0 84.667-21 153.334-63 206.001s-100 79-174 79c-78.667 0-137.667-20.5-177-61.5s-59-97.167-59-168.5c0-64.667 20.333-117 61-157s113.667-78 219-114c136-44 237-98.833 303-164.5s99-154.834 99-267.501c0-114.667-34.333-205.834-103-273.501s-163-107.834-283-120.501v-192h-157v191c-114.667 12-208.667 53.833-282 125.5S128.333 285.334 131 424.001l2 5h190c0-102.667 26-175.834 78-219.501S516.333 144 591 144c86 0 153.167 20.5 201.5 61.5S865 303.333 865 376z"/><glyph glyph-name="percent" unicode="%" horiz-adv-x="1498" d="M104 1176c0 84.667 27.333 156 82 214s127.667 87 219 87 164.333-28.833 219-86.5 82-129.167 82-214.5v-77c0-84.667-27.167-155.667-81.5-213S497.667 800 407 800c-92 0-165.5 28.667-220.5 86S104 1014.333 104 1099v77zm146-77c0-49.333 13.499-91.167 40.499-125.5s65.833-51.5 116.5-51.5c48.667 0 86.334 17 113.001 51s40 76 40 126v77c0 49.333-13.5 91.5-40.5 126.5S454.333 1355 405 1355c-50 0-88.333-17.5-115-52.5s-40-77.167-40-126.5v-77zm558.999-742.001c0 84.667 27.333 155.834 82 213.501s127.667 86.5 219 86.5c90.667 0 163.5-28.833 218.5-86.5s82.5-128.834 82.5-213.501v-78c0-85.333-27.333-156.666-82-213.999s-127-86-217-86c-92 0-165.5 28.667-220.5 86s-82.5 128.666-82.5 213.999v78zm146-78c0-50 13.499-92.167 40.499-126.5s65.833-51.5 116.5-51.5c48.667 0 86.334 17.167 113.001 51.5s40 76.5 40 126.5v78c0 49.333-13.667 91.333-41 126s-65.333 52-114 52c-49.333 0-87.5-17.333-114.5-52s-40.5-76.667-40.5-126v-78zm-497.001-169l-109 67 711 1138 109-67z"/><glyph glyph-name="ampersand" unicode="&amp;" horiz-adv-x="1276" d="M64 392c0 81.333 23.502 152.498 70.502 213.498s117.167 122.167 210.5 183.5c-52 66-90.667 124.833-116 176.5s-38 104.834-38 159.501c0 112.667 32.5 199.5 97.5 260.5s154.5 91.5 268.5 91.5c105.333 0 191-30.333 257-91s99-133.667 99-219c0-65.333-17.5-121.833-52.5-169.5s-86.833-96.5-155.5-146.5l-109-80 340-409c27.333 43.333 48.666 91.333 63.999 144s23 108.334 23 167.001h176c0-88-13-169.333-39-244s-63.667-141.667-113-201l185-223-2-5h-229l-85 102c-53.333-40-112.333-70.5-177-91.5S607.334-21 538.001-21C393.334-21 278.167 17.333 192.5 94S64 270 64 392zm474.002-259.002c48 0 95.334 8.165 142.001 24.498s90.667 39.833 132 70.5l-361 435-40-29c-60.667-45.333-100.834-88.666-120.501-129.999s-29.5-78.666-29.5-111.999c0-75.333 23.667-137.333 71-186s116-73 206-73zM388.003 1127c0-35.333 9-72.167 27-110.5s45-80.166 81-125.499l138 95c38 25.333 63.833 52.833 77.5 82.5s20.5 62.5 20.5 98.5c0 40.667-16.167 76.667-48.5 108s-74.5 47-126.5 47c-54 0-95.667-18.833-125-56.5s-44-83.834-44-138.501z"/><glyph glyph-name="quotesingle" unicode="'" horiz-adv-x="445" d="M324 1233L223 951h-97l1 265v240h197v-223z"/><glyph glyph-name="parenleft" unicode="(" horiz-adv-x="679" d="M132 591c0 262.667 53 486.996 159 672.996s217.333 310 334 372l6-1 38-116c-91.333-71.333-170.833-185.666-238.5-342.999S329 824.331 329 592.998v-13c0-231.333 33.667-425.666 101-582.999S577-277.667 669-355l-38-108h-6C508.333-401 397-277.167 291-91.5S132 318.667 132 582v9z"/><glyph glyph-name="parenright" unicode=")" horiz-adv-x="687" d="M543 582c0-263.333-53.167-487.833-159.5-673.5S166-401 50-463h-6L6-355C96-285 175.167-169.833 243.5-9.5S346 347.333 346 580v13c0 228-35.167 422.5-105.5 583.5S92 1454.667 6 1528l38 108h6c116-62 227.167-186 333.5-372S543 853.667 543 591v-9z"/><glyph glyph-name="asterisk" unicode="*" horiz-adv-x="884" d="M324 696L88 763l49 154 236-90-10 254h161l-10-260 233 89 48-156-242-68 153-200-132-96-140 218-135-210-133 92z"/><glyph glyph-name="plus" unicode="+" horiz-adv-x="1162" d="M677 783h399V605H677V146H480v459H78v178h402v423h197V783z"/><glyph glyph-name="comma" unicode="," horiz-adv-x="404" d="M315 48L165-258H48l70 316v163h197V48z"/><glyph glyph-name="hyphen" unicode="-" horiz-adv-x="923" d="M757 538H167v154h590V538z"/><glyph glyph-name="period" unicode="." horiz-adv-x="548" d="M358 0H161v202h197V0z"/><glyph glyph-name="slash" unicode="/" horiz-adv-x="850" d="M184-125H16l608 1581h167z"/><glyph glyph-name="zero" unicode="0" horiz-adv-x="1153" d="M1040 514c0-164.667-41.833-295-125.5-391S718.333-21 577-21c-140.667 0-253.167 48-337.5 144S113 349.333 113 514v428c0 163.333 41.833 293.333 125.5 390s195.834 145 336.501 145c141.333 0 254.166-48.333 338.499-145S1040 1105.333 1040 942V514zM843 983c0 104.667-23.333 187.334-70 248.001s-112.667 91-198 91c-84.667 0-150-30.333-196-91S310 1087.667 310 983V474c0-104.667 23.5-187.667 70.5-249S493 133 577 133c85.333 0 151 30.5 197 91.5s69 144.167 69 249.5v509z"/><glyph glyph-name="one" unicode="1" horiz-adv-x="1153" d="M710 0H512v1274l-317-3v152l515 54V0z"/><glyph glyph-name="two" unicode="2" horiz-adv-x="1153" d="M1054 0L149.998.002v135l457 545c81.333 98.667 136.5 177.167 165.5 235.5s43.5 117.166 43.5 176.499c0 67.333-19.667 122.5-59 165.5s-93.666 64.5-162.999 64.5c-86 0-151.5-26.333-196.5-79s-67.5-118.334-67.5-197.001h-190l-2 6c-3.333 118.667 36.334 219.167 119.001 301.5S452 1477 594 1477c130 0 232.333-36 307-108s112-165 112-279c0-76.667-21.167-151.667-63.5-225S842.667 699.667 756 589L389 159l2-5h663V0z"/><glyph glyph-name="three" unicode="3" horiz-adv-x="1153" d="M579 828c88 0 150.168 21.835 186.501 65.502s54.5 104.834 54.5 183.501c0 73.333-19.833 132.5-59.5 177.5s-98.5 67.5-176.5 67.5c-76 0-138.833-23.5-188.5-70.5s-74.5-105.833-74.5-176.5h-188l-3 6c-3.333 109.333 38 202.666 124 279.999s196 116 330 116c135.333 0 241.333-34.167 318-102.5s115-168.833 115-301.5c0-68-17.833-130-53.5-186s-85.5-99.667-149.5-131c73.333-29.333 129.166-73.833 167.499-133.5s57.5-131.834 57.5-216.501c0-133.333-42.167-237.833-126.5-313.5S718.667-20.999 584-20.999c-124 0-233.167 36.5-327.5 109.5s-139.833 169.5-136.5 289.5l2 6h188c0-70.667 25.5-130.167 76.5-178.5s116.833-72.5 197.5-72.5c80 0 143 24.833 189 74.5s69 114.5 69 194.5c0 91.333-21.167 159.666-63.5 204.999S669.667 675 579 675H417v153h162z"/><glyph glyph-name="four" unicode="4" horiz-adv-x="1153" d="M893 490h201V336H893V0H697v336H72v111l613 1009h208V490zm-610 0h414v683l-6 1-19-50z"/><glyph glyph-name="five" unicode="5" horiz-adv-x="1153" d="M175 647l84 809.001h729v-175H425l-47-419c31.333 23.333 66 42.5 104 57.5s81.333 22.833 130 23.5c134.667 1.333 240.167-40.834 316.5-126.501S1043 613.333 1043 464c0-146-39.167-263.333-117.5-352S733-21 583-21C459.667-21 357 12.667 275 80S153.667 246.333 157 377l2 6h178c0-79.333 22.833-140.833 68.5-184.5S510.334 133 583.001 133c83.333 0 148 29.333 194 88s69 139 69 241c0 92.667-23.167 167.667-69.5 225s-110.833 86-193.5 86c-77.333 0-133.333-11.667-168-35S354.667 678.667 338 630z"/><glyph glyph-name="six" unicode="6" horiz-adv-x="1153" d="M641 1477c57.333 0 114.001-5.667 170.001-17s102.333-25.666 139-42.999l-42-151c-38 16.667-78 30.167-120 40.5s-91 15.5-147 15.5c-91.333 0-165.5-39-222.5-117s-85.5-176.667-85.5-296v-113c40.667 40.667 88.834 72.667 144.501 96s115.5 35 179.5 35c125.333 0 224.5-42 297.5-126s109.5-194.333 109.5-331c0-149.333-40.833-268.5-122.5-357.5s-191.834-133.5-330.501-133.5c-134.667 0-247.334 51.167-338.001 153.5S137 374.667 137 552v335c0 170.667 48.5 311.667 145.5 423S499 1477 641 1477zm-46.999-697c-62 0-115.167-13.167-159.5-39.5S356.335 678.667 333.002 634V533c0-123.333 26.833-220.833 80.5-292.5s119.5-107.5 197.5-107.5c82 0 145.167 31.167 189.5 93.5s66.5 143.5 66.5 243.5c0 94.667-23.833 170-71.5 226s-114.834 84-201.501 84z"/><glyph glyph-name="seven" unicode="7" horiz-adv-x="1153" d="M1063 1301c-184-218.667-308.333-411.667-373-579s-97-355-97-563V0H396v159c0 220 40.5 418.167 121.5 594.5S715.667 1112.333 869 1301H97v155h966v-155z"/><glyph glyph-name="eight" unicode="8" horiz-adv-x="1153" d="M1010 1084c0-76-21.332-142.829-63.999-200.496S846.667 782.67 776 754.003c82.667-28.667 149-74.334 199-137.001s75-135 75-217c0-134-43.5-237.667-130.5-311s-197.833-110-332.5-110c-142.667 0-259.167 36.667-349.5 110s-135.5 177-135.5 311c0 82 25.5 154.333 76.5 217s119.833 108.667 206.5 138c-74.667 28-133.667 70.833-177 128.5s-65 124.5-65 200.5c0 127.333 40.833 224.666 122.5 291.999s188.167 101 319.5 101c124 0 225.833-33.833 305.5-101.5S1010 1210.667 1010 1084zM854.001 404.004c0 79.333-25.834 144.666-77.501 195.999s-115.5 77-191.5 77c-82.667 0-151-25.667-205-77s-81-116.666-81-195.999c0-82 26.833-147.667 80.5-197s122.834-74 207.501-74c76 0 139.5 24.833 190.5 74.5s76.5 115.167 76.5 196.5zM813 1081c0 70-21.832 127.667-65.499 173s-97.834 68-162.501 68c-71.333 0-130-21.833-176-65.5s-69-102.167-69-175.5c0-74 23.333-134 70-180s105.667-69 177-69c64.667 0 118.5 23 161.5 69s64.5 106 64.5 180z"/><glyph glyph-name="nine" unicode="9" horiz-adv-x="1153" d="M501 133c94.667 0 171.168 32.666 229.501 97.999s87.5 158 87.5 278v124c-32-47.333-71.833-83.166-119.5-107.499S598.667 489 542 489c-140 0-249.833 43.167-329.5 129.5S93 824.666 93 977.999c0 146.667 42.333 266.5 127 359.5s189.334 139.5 314.001 139.5c145.333 0 262-45.667 350-137s132-220.333 132-387v-442c0-167.333-48-297.833-144-391.5s-219.667-140.5-371-140.5c-51.333 0-103.833 5.333-157.5 16S239.667 21.333 193 42l30 150c44-21.333 87.167-36.5 129.5-45.5S444.333 133 501 133zm41.001 509.999c68.667 0 126.5 15.667 173.5 47s81.167 71.333 102.5 120v172c0 108.667-24.333 192.5-73 251.5s-117 88.5-205 88.5c-71.333 0-130.833-31.833-178.5-95.5s-71.5-146.5-71.5-248.5c0-100 22-180.833 66-242.5s106-92.5 186-92.5z"/><glyph glyph-name="colon" unicode=":" horiz-adv-x="517" d="M358 0H161v202h197V0zm0 876H161v202h197V876z"/><glyph glyph-name="semicolon" unicode=";" horiz-adv-x="525" d="M359 876H162v202h197V876zm7-828L216-258H99l70 316v163h197V48z"/><glyph glyph-name="less" unicode="&lt;" horiz-adv-x="1040" d="M328 579l-85-18v-6l85-19 559-228V107L71 486v149l816 378V812z"/><glyph glyph-name="equal" unicode="=" horiz-adv-x="1153" d="M986 823H152v164h834V823zm0-416H152v164h834V407z"/><glyph glyph-name="greater" unicode="&gt;" horiz-adv-x="1072" d="M136 798v195l856-378V466L136 87v196l598 238 85 17v6l-85 20z"/><glyph glyph-name="question" unicode="?" horiz-adv-x="974" d="M355 410c.667 96.667 9.001 163.669 25.001 201.002s58 86.666 126 147.999c66 78 113 138 141 180s42 92.667 42 152c0 70.667-18.833 125-56.5 163s-91.5 57-161.5 57c-60.667 0-112.334-16.5-155.001-49.5s-64-81.5-64-145.5H64l-3 6c-2 107.333 35.833 193.333 113.5 258s176.5 97 296.5 97c131.333 0 233.333-33.5 306-100.5s109-160.5 109-280.5c0-86-23.5-164.667-70.5-236s-109.167-144.333-186.5-219c-36-36-57.833-68.333-65.5-97S552 470.667 552 410H355zM559.001.002h-206v208h206v-208z"/><glyph glyph-name="at" unicode="@" horiz-adv-x="1833" d="M1732 502c-6-142.667-45.999-265.501-119.999-368.501s-184.667-154.5-332-154.5c-48.667 0-90.667 13.833-126 41.5S1093.335 87.333 1078.002 138c-33.333-53.333-74-93.166-122-119.499s-104-39.5-168-39.5c-83.333 0-148 40.167-194 120.5s-63 185.833-51 316.5c15.333 172.667 61.166 311.167 137.499 415.5s169.5 156.5 279.5 156.5c70 0 126.333-8.667 169-26s89-44 139-80l-4-4h6l-51-585c-6-73.333 1.167-123.833 21.5-151.5s47.5-41.5 81.5-41.5c82 0 147.667 37.833 197 113.5s76.666 171.834 81.999 288.501c10.667 254.667-37.333 453.167-144 595.5s-272 213.5-496 213.5c-205.333 0-370.5-77-495.5-231S273 725.335 263 478.002c-12-250.667 38-448.834 150-594.501s272.667-218.5 482-218.5c58.667 0 118.167 7.167 178.5 21.5s111.166 33.166 152.499 56.499l38-107c-44.667-28-101.5-49.833-170.5-65.5s-136.5-23.5-202.5-23.5c-253.333 0-449.166 83.167-587.499 249.5S102 190 114 478c12.667 282 95.667 511.333 249 688s354 265 602 265c252.667 0 446.5-83.333 581.5-250s196.833-393 185.5-679zM720.001 415.999c-7.333-94.667-.164-166.667 21.503-216s57.167-74 106.5-74c42.667 0 81.667 8.167 117 24.5s67.666 45.5 96.999 87.5c-.667 8-.834 16.5-.501 25.5s1.166 18.833 2.499 29.5l47 538c-17.333 8-35.5 14.333-54.5 19s-38.833 7-59.5 7c-83.333 0-147-36.5-191-109.5s-72.667-183.5-86-331.5z"/><glyph glyph-name="A" unicode="A" horiz-adv-x="1295" d="M922 375H374L244 0H43l525 1456h169L1251 0h-201zM431 540h435l-212 625h-6z"/><glyph glyph-name="B" unicode="B" horiz-adv-x="1302" d="M170 0v1456h475c152 0 271-32.833 357-98.5s129-164.167 129-295.5c0-62.667-19.333-118.834-58-168.501s-90-87.5-154-113.5c95.333-13.333 170.833-54.666 226.5-123.999s83.5-151 83.5-245c0-133.333-43.333-235.166-130-305.499S895 .001 747 .001H170zm197 682.999V154.001h380c90 0 159.833 22.167 209.5 66.5S1031 327.667 1031 409c0 80.667-25.333 145.667-76 195s-119 75.666-205 78.999H367zm0 154.002h319c73.333 0 133 20.167 179 60.5s69 96.5 69 168.5c0 78.667-24.833 137.5-74.5 176.5s-121.167 58.5-214.5 58.5H367v-464z"/><glyph glyph-name="C" unicode="C" horiz-adv-x="1297" d="M1209 466l2.001-5.998c2.667-136.667-45.333-251-144-343s-229-138-391-138c-164.667 0-298.834 58.333-402.501 175S118 418.669 118 598.002v259c0 179.333 51.833 327.5 155.5 444.5s237.834 175.5 402.501 175.5 295.667-43.833 393-131.5S1213.667 1141.668 1211 997.001l-2-6h-189c0 102-30 182.667-90 242s-144.667 89-254 89c-110 0-197.667-44.333-263-133s-98-198.667-98-330v-261c0-132.667 32.667-243.334 98-332.001s153-133 263-133c109.333 0 194 29.5 254 88.5s90 140.5 90 244.5h189z"/><glyph glyph-name="D" unicode="D" horiz-adv-x="1387" d="M170 0v1456h458c190 0 342.833-58.5 458.5-175.5S1260 1012.333 1260 827V628c0-186-57.833-337.167-173.5-453.5S818 0 628 0H170zm197 1301V154h261c134.667 0 240.834 44.333 318.501 133s116.5 202.334 116.5 341.001v201c0 137.333-38.833 250.333-116.5 339s-183.834 133-318.501 133H367z"/><glyph glyph-name="E" unicode="E" horiz-adv-x="1130" d="M965 675H367V154h700V0H170v1456h886v-155H367V830h598V675z"/><glyph glyph-name="F" unicode="F" horiz-adv-x="1130" d="M981 644H367V0H170v1456h913v-155H367V799h614V644z"/><glyph glyph-name="G" unicode="G" horiz-adv-x="1387" d="M1217 196c-34.667-54-94.833-103.668-180.5-149.001s-196.834-68-333.501-68c-168 0-307 55.667-417 167s-165 255.333-165 432v300c0 176.667 53 320.667 159 432s242.667 167 410 167c162 0 290-43.167 384-129.5s139.667-196.166 137-329.499l-2-6h-189c0 88.667-28.667 162.5-86 221.5S795.333 1322 690 1322c-111.333 0-201-41.667-269-125s-102-189-102-317V578c0-129.333 36-235.833 108-319.5S591 133 703 133c86 0 154.167 11.167 204.5 33.5s87.833 48.833 112.5 79.5v328H690v154h527V196z"/><glyph glyph-name="H" unicode="H" horiz-adv-x="1441" d="M1271 0h-197v643H367V0H170v1456h197V798h707v658h197V0z"/><glyph glyph-name="I" unicode="I" horiz-adv-x="579" d="M388 0H190v1456h198V0z"/><glyph glyph-name="J" unicode="J" horiz-adv-x="1123" d="M759 1456h196.999V422c0-135.333-41.167-243-123.5-323S643.333-21 512-21C378-21 271.5 14.5 192.5 85.5S75.667 259.667 79 395l2 6h189c0-90.667 21-158 63-202s101.667-66 179-66c72.667 0 132 26.333 178 79s69 122.667 69 210v1034z"/><glyph glyph-name="K" unicode="K" horiz-adv-x="1302" d="M495 658H367V0H170v1456h197V812h108l540 644h222l2-5-590-689L1281 5l-2-5h-239z"/><glyph glyph-name="L" unicode="L" horiz-adv-x="1126" d="M367 154h710V0H170v1456h197V154z"/><glyph glyph-name="M" unicode="M" horiz-adv-x="1779" d="M892 273h6l465 1183h245V0h-197v1091l-6 1L964 0H827L373 1128l-6-1V0H170v1456h259z"/><glyph glyph-name="N" unicode="N" horiz-adv-x="1442" d="M1271 0h-197L373 1112l-6-2V0H170v1456h197l701-1111 6 2v1109h197V0z"/><glyph glyph-name="O" unicode="O" horiz-adv-x="1396" d="M1282 598c0-178-55.167-325.667-165.5-443S863-21 687-21c-170 0-308.167 58.667-414.5 176S113 420 113 598v259c0 177.333 53.167 325 159.5 443S517 1477 687 1477c176 0 319.167-58.833 429.5-176.5S1282 1035 1282 857V598zm-197 261c0 133.333-36 242.666-108 327.999s-168.667 128-290 128c-114.667 0-206.167-42.667-274.5-128S310 992.333 310 859V598c0-134.667 34.167-244.667 102.5-330S572.333 140 687 140c122 0 218.833 42.5 290.5 127.5S1085 462.667 1085 598v261z"/><glyph glyph-name="P" unicode="P" horiz-adv-x="1302" d="M367 584V0H170v1456h557c155.333 0 276.166-40 362.499-120s129.5-185.333 129.5-316c0-132-43.167-237.667-129.5-317S882.333 584 727 584H367zm0 154h359.999c98.667 0 172.334 26.5 221.001 79.5s73 119.833 73 200.5-24.5 148-73.5 202-122.5 81-220.5 81H367V738z"/><glyph glyph-name="Q" unicode="Q" horiz-adv-x="1427" d="M1282 598c0-76.667-11.167-149.167-33.5-217.5S1194.334 251 1153.001 197l217-211-135-129-222 213C966.334 40 915.667 17.333 861 2S748.333-21 687-21c-170 0-308.167 58.667-414.5 176S113 420 113 598v259c0 177.333 53.167 325 159.5 443S517 1477 687 1477c176 0 319.167-58.833 429.5-176.5S1282 1035 1282 857V598zm-197 261c0 133.333-36 242.666-108 327.999s-168.667 128-290 128c-114.667 0-206.167-42.667-274.5-128S310 992.333 310 859V598c0-134.667 34.167-244.667 102.5-330S572.333 140 687 140c122 0 218.833 42.5 290.5 127.5S1085 462.667 1085 598v261z"/><glyph glyph-name="R" unicode="R" horiz-adv-x="1303" d="M367 631V.001H170v1455h498c159.333 0 281-35.333 365-106s126-173.334 126-308.001c0-74.667-19.5-139.667-58.5-195s-95.833-99.333-170.5-132c80-26 137.5-68.167 172.5-126.5S1155 457 1155 371V234c0-45.333 5-86 15-122s27.333-65.333 52-88V0h-203c-26 22.667-42.667 56-50 100s-11 89.333-11 136v133c0 78.667-23 142-69 190s-107.667 72-185 72H367zm0 155.001h281.001c111.333 0 191.5 21.167 240.5 63.5s73.5 106.833 73.5 193.5c0 82-23.833 145.5-71.5 190.5s-121.834 67.5-222.501 67.5H367v-515z"/><glyph glyph-name="S" unicode="S" horiz-adv-x="1252" d="M946 367c0 66-23.666 121.331-70.999 165.998s-130.666 82.667-249.999 114c-148 36.667-263.5 90.667-346.5 162s-124.5 161-124.5 269c0 114 44.667 209 134 285s205.333 114 348 114c153.333 0 275.5-43.5 366.5-130.5s135.167-188.5 132.5-304.5l-3-6h-188c0 82.667-28.833 151-86.5 205s-131.5 81-221.5 81c-92 0-162.5-22.333-211.5-67s-73.5-102.667-73.5-174c0-63.333 26.833-116.166 80.5-158.499s140.834-79.5 261.501-111.5c146.667-38 258.334-94 335.001-168s115-165.333 115-274c0-117.333-46.167-211.666-138.5-282.999S791.671-21 643.004-21C502.337-21 378.17 18.333 270.503 97S110.669 281 114.002 413l2 6h188c0-91.333 34.667-161.833 104-211.5S555.668 133 643.001 133c93.333 0 167.166 21 221.499 63S946 295 946 367z"/><glyph glyph-name="T" unicode="T" horiz-adv-x="1225" d="M1188 1301H708V0H511v1301H37v155h1151v-155z"/><glyph glyph-name="U" unicode="U" horiz-adv-x="1386" d="M1244 1456l-.001-966.999c0-160-52-285-156-375s-238-135-402-135c-158 0-287.333 45.167-388 135.5s-151 215.166-151 374.499v967h197V489c0-111.333 31.833-198.5 95.5-261.5S585.333 133 686 133c106.667 0 193.5 31.5 260.5 94.5S1047 377.667 1047 489v967h197z"/><glyph glyph-name="V" unicode="V" horiz-adv-x="1295" d="M612 382l33-121h6l33 121 376 1074h213L732 0H563L22 1456h214z"/><glyph glyph-name="W" unicode="W" horiz-adv-x="1763" d="M462 505l25-191 6-1 34 192 258 951h193l260-951 34-195h6l27 195 208 951h214L1375 0h-176L908 1010l-22 131h-6l-21-131L564 0H388L37 1456h213z"/><glyph glyph-name="X" unicode="X" horiz-adv-x="1295" d="M650 888l340 568h238L766 734 1238 0h-235L654 578 304 0H66l472 734-462 722h236z"/><glyph glyph-name="Y" unicode="Y" horiz-adv-x="1295" d="M645 716l380 740h225L739 512V0H543v527L40 1456h225z"/><glyph glyph-name="Z" unicode="Z" horiz-adv-x="1225" d="M319 154h814V0H97v146l778 1155H108v155h992v-141z"/><glyph glyph-name="bracketleft" unicode="[" horiz-adv-x="552" d="M528 1509H340V-157h188v-155H143v1976h385v-155z"/><glyph glyph-name="backslash" unicode="\" horiz-adv-x="846" d="M39 1456h186L833-125H647z"/><glyph glyph-name="bracketright" unicode="]" horiz-adv-x="552" d="M11 1664h386V-312H11v155h189v1666H11v155z"/><glyph glyph-name="asciicircum" unicode="^" horiz-adv-x="856" d="M244 729H61l299 727h134l298-727H611l-166 419-16 70h-6l-16-70z"/><glyph glyph-name="underscore" unicode="_" horiz-adv-x="931" d="M927-154H4V0h923v-154z"/><glyph glyph-name="grave" unicode="`" horiz-adv-x="641" d="M490 1252H332L82 1512l3 6h230z"/><glyph glyph-name="a" unicode="a" horiz-adv-x="1126" d="M808 0c-6.667 32.667-11.831 61.5-15.498 86.5s-5.834 50.167-6.501 75.5c-36.667-52-84.5-95.5-143.5-130.5S520.001-21 452.001-21c-112.667 0-198.5 28.833-257.5 86.5s-88.5 137.167-88.5 238.5c0 103.333 41.833 184.166 125.5 242.499s197.167 87.5 340.5 87.5h214v107c0 63.333-19.333 113.5-58 150.5s-93.334 55.5-164.001 55.5c-64 0-115.667-16-155-48s-59-70.333-59-115l-187-2-2 6c-4.667 78.667 32.166 150.667 110.499 216s179.5 98 303.5 98c122.667 0 221.334-31.167 296.001-93.5S983 856.333 983 739V218c0-38.667 2-76 6-112s11.333-71.333 22-106H808zM481.003 144c71.333 0 135.668 18.333 193.001 55s94.666 78.667 111.999 126v176h-221c-79.333 0-142.833-20-190.5-60s-71.5-87-71.5-141c0-48 15-86 45-114s74.333-42 133-42z"/><glyph glyph-name="b" unicode="b" d="M1067 500c0-156-37.499-281.832-112.499-377.499s-178.167-143.5-309.5-143.5c-72 0-134.5 14.167-187.5 42.5S360.668 91.667 326.001 147l-32-147h-151v1560h197V954c34 48 76.167 84.667 126.5 110s109.166 38 176.499 38c133.333 0 237.333-53.333 312-160s112-247 112-421v-21zm-196.999 21.001c0 124-22.831 225.167-68.498 303.5s-115.167 117.5-208.5 117.5c-60.667 0-111.834-14.833-153.501-44.5s-74.834-69.5-99.501-119.5v-469c25.333-53.333 58.5-95 99.5-125s92.833-45 155.5-45c92.667 0 161.667 33 207 99s68 153.333 68 262v21z"/><glyph glyph-name="c" unicode="c" horiz-adv-x="1072" d="M573 133c60.667 0 113.667 20.167 159 60.5s68 89.833 68 148.5h178l3-6c2.667-93.333-37.333-176.166-120-248.499s-178.667-108.5-288-108.5c-152 0-269.333 51.667-352 155s-124 232-124 386v42c0 152.667 41.5 280.834 124.5 384.501s200.167 155.5 351.5 155.5c120.667 0 219.5-37.333 296.5-112S983.667 823.668 981 715.001l-2-6H800c0 66-21.5 122.167-64.5 168.5s-97.167 69.5-162.5 69.5c-96.667 0-167.167-37.5-211.5-112.5S295 668.668 295 562.001v-42c0-108.667 21.833-200.334 65.5-275.001S475 133 573 133z"/><glyph glyph-name="d" unicode="d" d="M98 521c0 174 37.167 314.333 111.5 421S388 1102 522 1102c63.333 0 119.5-11.667 168.5-35s90.833-57.333 125.5-102v595h197V0H862l-30 137c-35.333-52-79-91.333-131-118S588.667-21 520-21c-132 0-235.333 47.833-310 143.5S98 344 98 500v21zm197-21c0-109.333 22.332-196.833 66.999-262.5s114-98.5 208-98.5c58.667 0 108 13.333 148 40s72.667 64 98 112v505c-25.333 44.667-58.166 80.167-98.499 106.5S628.667 942 572 942c-94.667 0-164.5-39-209.5-117S295 645.667 295 521v-21z"/><glyph glyph-name="e" unicode="e" horiz-adv-x="1072" d="M591-21c-155.333 0-276.501 49.668-363.501 149.001s-130.5 230-130.5 392v44c0 155.333 44.833 283.833 134.5 385.5s199.167 152.5 328.5 152.5c144.667 0 253.167-45 325.5-135s108.5-209.667 108.5-359v-104h-692l-3-5c0-108.667 24-196.834 72-264.501s121.333-101.5 220-101.5c66.667 0 125.167 9.5 175.5 28.5s93.5 45.167 129.5 78.5l77-128c-38.667-37.333-89.667-68.833-153-94.5S680.333-21 591-21zm-31.001 968.001c-68.667 0-125.499-26.5-170.499-79.5S317 746.668 307 664.001l2-5h488v16c0 78.667-19.333 143.667-58 195s-98.334 77-179.001 77z"/><glyph glyph-name="f" unicode="f" horiz-adv-x="674" d="M225 0v936H56v146h169v137c0 115.333 30.167 204.5 90.5 267.5S460 1581 568 1581c22.667 0 45.5-1.833 68.5-5.5s48.5-8.834 76.5-15.501l-24-150c-12 2.667-26.5 5-43.5 7s-34.833 3-53.5 3c-57.333 0-100-17.167-128-51.5s-42-84.166-42-149.499v-137h196V936H422V0H225z"/><glyph glyph-name="g" unicode="g" d="M108 521c0 174 37.167 314.332 111.5 420.999s178.166 160 311.499 160c68.667 0 129-13.833 181-41.5s95.667-67.5 131-119.5l24 141h157v-1088c0-138.667-40.333-245.167-121-319.5s-197-111.5-349-111.5c-52 0-108.167 7.167-168.5 21.5s-113.5 33.833-159.5 58.5l30 153c38-20 83.833-36.167 137.5-48.5s106.5-18.5 158.5-18.5c96 0 165.833 21.833 209.5 65.5s65.5 110.167 65.5 199.5v123C791.666 71.666 749.333 37.333 700 14S593.667-21 529-21c-132 0-235.167 47.833-309.5 143.5S108 344 108 500v21zm197-21.001c0-108.667 22.333-196 67-262s113.667-99 207-99c59.333 0 109 13.5 149 40.5s73 65.167 99 114.5v498c-25.333 46-58.333 82.5-99 109.5s-89.667 40.5-147 40.5c-94 0-163.5-39-208.5-117s-67.5-179.333-67.5-304v-21z"/><glyph glyph-name="h" unicode="h" d="M340 937c37.333 52 83.168 92.5 137.501 121.5s114.5 43.5 180.5 43.5c115.333 0 205.166-34.667 269.499-104s96.5-176 96.5-320V0H827v680c0 89.333-19.167 155.333-57.5 198S674 942 598 942c-58.667 0-109.667-11.5-153-34.5s-78.333-55.167-105-96.5V0H143v1560h197V937z"/><glyph glyph-name="i" unicode="i" horiz-adv-x="516" d="M356 0H159v1082h197V0zm0 1359H159v201h197v-201z"/><glyph glyph-name="j" unicode="j" horiz-adv-x="530" d="M370 1082l.002-1171c0-111.333-28.667-197.166-86-257.499s-137-90.5-239-90.5c-20.667 0-39.5 1.5-56.5 4.5s-35.167 7.5-54.5 13.5l14 155c9.333-3.333 22.666-6.166 39.999-8.499s31.666-3.5 42.999-3.5c43.333 0 77.833 14.667 103.5 44s38.5 77 38.5 143v1171h197zm-5.998 281h-197v197h197v-197z"/><glyph glyph-name="k" unicode="k" horiz-adv-x="1050" d="M442 499H341V0H144v1560h197V656h99l325 426h236L608 583 1035 0H802z"/><glyph glyph-name="l" unicode="l" horiz-adv-x="516" d="M356 0H159v1560h197V0z"/><glyph glyph-name="m" unicode="m" horiz-adv-x="1790" d="M319 1082l14.002-141.998c35.333 51.333 80.166 91.166 134.499 119.499s117.5 42.5 189.5 42.5 133.833-16.667 185.5-50 90.5-83.333 116.5-150c34.667 62 79.834 110.833 135.501 146.5s120.834 53.5 195.501 53.5c110 0 197-37.833 261-113.5s96-189.5 96-341.5v-647h-197v649c0 106.667-18.333 182.167-55 226.5s-91.334 66.5-164.001 66.5c-67.333 0-121.833-23.333-163.5-70s-66.167-105.667-73.5-177v-695h-198v649c0 101.333-18.833 175.5-56.5 222.5s-91.834 70.5-162.501 70.5c-60 0-109.333-12.333-148-37S360.667 845.667 340 801V0H143v1082h176z"/><glyph glyph-name="n" unicode="n" d="M319 1082l14.001-161c36 57.333 81.167 101.833 135.5 133.5S584.667 1102 654 1102c116.667 0 207-34.167 271-102.5s96-173.833 96-316.5V0H824v679c0 95.333-18.833 163-56.5 203s-95.167 60-172.5 60c-60.667 0-112.167-12.167-154.5-36.5S364.667 847 340 803V0H143v1082h176z"/><glyph glyph-name="o" unicode="o" d="M97 551c0 160 43.332 291.833 129.999 395.5S431.333 1102 580 1102c150 0 268.5-51.667 355.5-155S1066 711.667 1066 551v-22c0-161.333-43.333-293.333-130-396S731.333-21 582-21 314.5 30.5 227.5 133.5 97 368.333 97 529v22zm196.999-22c0-114.667 24.168-209.334 72.501-284.001s120.166-112 215.499-112c94 0 165.333 37.333 214 112s73 169.334 73 284.001v22c0 113.333-24.5 207.666-73.5 282.999s-120.833 113-215.5 113c-94 0-165.167-37.667-213.5-113s-72.5-169.666-72.5-282.999v-22z"/><glyph glyph-name="p" unicode="p" d="M1065 500c0-156-37.334-281.833-112.001-377.5S775.332-21 643.999-21c-66.667 0-125.167 11.167-175.5 33.5S375.333 68.333 340 113v-529H143v1498h151l31-140c35.333 52 79.333 91.667 132 119s114 41 184 41c134 0 238.167-53.167 312.5-159.5S1065 695.667 1065 521v-21zm-197.001 21c0 122.667-24.167 223.501-72.5 302.501s-119.5 118.5-213.5 118.5c-56.667 0-105-12.833-145-38.5s-72.333-60.834-97-105.501V275c24.667-44.667 57-79.5 97-104.5s89-37.5 147-37.5c93.333 0 164 34.167 212 102.5s72 156.5 72 264.5v21z"/><glyph glyph-name="q" unicode="q" d="M98 521c0 174 37.167 314.334 111.5 421.001s178.5 160 312.5 160c65.333 0 123-12.5 173-37.5s92.667-61.167 128-108.5l28 126h151v-1498H805v518C770.333 61.334 729.333 30.667 682 10S580.667-21 520-21c-132 0-235.333 47.833-310 143.5S98 344 98 500v21zm197-20.999c0-109.333 22.5-197.832 67.5-265.499s114.167-101.5 207.5-101.5c54 0 100.167 12 138.5 36s70.5 57.667 96.5 101v546c-26 40.667-58.167 72.667-96.5 96s-83.833 35-136.5 35c-94 0-163.667-39.833-209-119.5s-68-181.834-68-306.501v-21z"/><glyph glyph-name="r" unicode="r" horiz-adv-x="717" d="M655 908l-101 6.001c-52 0-95.833-12.333-131.5-37S359.333 817.667 340 773V0H143v1082h176l19-158c30.667 56 68.5 99.667 113.5 131s96.833 47 155.5 47c14.667 0 28.667-1.167 42-3.5s24.333-4.833 33-7.5z"/><glyph glyph-name="s" unicode="s" horiz-adv-x="1071" d="M772 291c0 43.333-16.504 78.667-49.504 106s-95.5 51.333-187.5 72c-127.333 27.333-225.166 65.666-293.499 114.999s-102.5 115.333-102.5 198c0 88 37.5 163.333 112.5 226s172.167 94 291.5 94c122.667 0 222-33.333 298-100s112.333-144.334 109-233.001l-2-6h-188c0 46.667-20.5 89-61.5 127s-92.833 57-155.5 57c-69.333 0-121.166-15.667-155.499-47s-51.5-68.666-51.5-111.999c0-42.667 14.833-75.667 44.5-99S471.332 644.333 564 625c132.666-28 233.333-67.667 302-119s103-118.333 103-201c0-96-38.833-174.333-116.5-235S673.333-21 548-21C410-21 301.333 14 222 84S105 235.667 109 329l2 6h188c3.333-70 29.333-121.167 78-153.5S482.667 133 548 133c70 0 124.833 14.833 164.5 44.5S772 245 772 291z"/><glyph glyph-name="t" unicode="t" horiz-adv-x="690" d="M417 1343l.001-260.998h205v-146h-205v-657c0-50.667 10.5-86.334 31.5-107.001s48.833-31 83.5-31c11.333 0 24 1.5 38 4.5s25.667 6.167 35 9.5l27-135c-14.667-12-36.334-21.833-65.001-29.5s-57-11.5-85-11.5c-80 0-143.667 24.167-191 72.5S220 175.667 220 279v657H48v146h172v261h197z"/><glyph glyph-name="u" unicode="u" d="M830 160c-34-58-77.667-102.667-131-134S584-21 514-21C396-21 304 16.667 238 92s-99 192.666-99 351.999v638h197v-640c0-115.333 17-194.666 51-237.999s87-65 159-65c70 0 127.833 14.167 173.5 42.5S799.667 250 823 302v780h197V0H843z"/><glyph glyph-name="v" unicode="v" horiz-adv-x="1030" d="M504 319l17-76h6l19 76 249 763h201L598 0H449L46 1082h202z"/><glyph glyph-name="w" unicode="w" horiz-adv-x="1550" d="M420 394l25-139h6l26 139 216 688h158l217-688 28-155h6l32 155 160 688h206L1186 0h-159L813 659l-41 172h-6l-38-172L518 0H359L45 1082h205z"/><glyph glyph-name="x" unicode="x" horiz-adv-x="1030" d="M510 683l230 399h230L619 547 980 0H754L514 409 274 0H46l361 547-351 535h227z"/><glyph glyph-name="y" unicode="y" horiz-adv-x="1030" d="M474 401l35-135.999h6l266 817h219l-455-1248c-27.333-72.667-66.5-136-117.5-190s-119.833-81-206.5-81c-16 0-36.333 1.833-61 5.5s-43.667 7.167-57 10.5l20 155c-4 .667 7.833 0 35.5-2s45.167-3 52.5-3c42 0 76.333 18.667 103 56S363-136.333 381-91l47 113L26 1082h220z"/><glyph glyph-name="z" unicode="z" horiz-adv-x="1030" d="M329 154h625V0H94v138l585 788H101v156h819V948z"/><glyph glyph-name="braceleft" unicode="{" horiz-adv-x="696" d="M631-364c-130 36.667-222.333 94.999-277 174.999s-82 176.667-82 290v205c0 74.667-17.167 132.834-51.5 174.501S133.667 543 63 543v147c70.667 0 123.167 20.5 157.5 61.5S272 850.667 272 926v206c0 114 27.333 210.833 82 290.5s147 137.834 277 174.501l40-117c-73.333-23.333-125.333-65.166-156-125.499s-46-134.5-46-222.5v-206c0-70-14.167-131.667-42.5-185s-70.833-95-127.5-125c56.667-30.667 99.167-72.834 127.5-126.501S469 374.667 469 306V101c0-88 15.333-161.833 46-221.5S597.667-222 671-246z"/><glyph glyph-name="bar" unicode="|" horiz-adv-x="507" d="M342-270H145v1726h197V-270z"/><glyph glyph-name="braceright" unicode="}" horiz-adv-x="696" d="M21-246c72.667 24 124.667 65.838 156 125.505s47 133.5 47 221.5v205c0 71.333 15 133.666 45 186.999s76.333 94.333 139 123c-62.667 27.333-109 67.666-139 120.999s-45 116.333-45 189v206c0 88-15.667 162.167-47 222.5s-83.333 102.166-156 125.499l41 117c129.333-36.667 221.5-94.834 276.5-174.501s82.5-176.5 82.5-290.5v-206c0-75.333 16.833-133.5 50.5-174.5s86.5-61.5 158.5-61.5v-147c-72 0-124.833-20.833-158.5-62.5S421 380.667 421 306V101c0-113.333-27.5-210-82.5-290S191.333-327.333 62-364z"/><glyph glyph-name="asciitilde" unicode="~" horiz-adv-x="1391" d="M1264 740c0-91.333-28.999-170.667-86.999-238s-130.333-101-217-101c-60 0-114.5 11-163.5 33s-101.833 57.667-158.5 107c-39.333 32-75.333 56-108 72s-65.667 24-99 24c-44.667 0-82.834-17.667-114.501-53S269 506 269 456l-141 18c0 90.667 28.5 168.167 85.5 232.5S343 803 431 803c58.667 0 113-11.5 163-34.5S697.333 710.667 754 664c38.667-34 74-58.667 106-74s65.333-23 100-23c44 0 82.167 19 114.5 57s48.5 82.667 48.5 134z"/><glyph glyph-name="nonbreakingspace" horiz-adv-x="509"/><glyph glyph-name="exclamdown" unicode="¡" horiz-adv-x="507" d="M341-374H144v978h197v-978zm0 1250H144v206h197V876z"/><glyph glyph-name="cent" unicode="¢" horiz-adv-x="1122" d="M573 133c60.667 0 113.667 20.165 159 60.498s68 89.833 68 148.5h180l2-5c2-77.333-26.667-149-86-215s-132.666-109.333-219.999-130v-237h-198v233C355.334 8.665 261.167 68.332 195.5 166.999S97 383.333 97 520v42c0 134.667 33 251.334 99 350.001s160 159 282 181v225h198v-227c93.333-20 168.333-64.833 225-134.5s84-150.5 82-242.5l-3-5H800c0 66-21.5 122.167-64.5 168.5s-97.167 69.5-162.5 69.5c-96.667 0-167.167-37.5-211.5-112.5S295 668.668 295 562.001v-42c0-108.667 21.833-200.334 65.5-275.001S475 133 573 133z"/><glyph glyph-name="sterling" unicode="£" horiz-adv-x="1194" d="M430 615l6.001-148.999c0-60-5.167-117.167-15.5-171.5s-25.166-101.166-44.499-140.499h735l-1-154h-976v154h10c32 8.667 56 45.667 72 111s24 132.333 24 201l-6 149h-164v155h158l-10 270c0 136 37.333 242.833 112 320.5s174.667 116.5 300 116.5c133.333 0 236.666-34.833 309.999-104.5s108.666-161.834 105.999-276.501l-2-6H854c0 78.667-21 137-63 175s-95.667 57-161 57c-66 0-118.333-24.833-157-74.5S415 1128.667 415 1040l10-270h418V615H430z"/><glyph glyph-name="currency" unicode="¤" horiz-adv-x="1456" d="M1097 108c-51.333-41.333-107.832-73-169.499-95s-126.167-33-193.5-33-131.833 10.833-193.5 32.5-117.5 52.834-167.5 93.501l-130-132-139 138 138 140c-33.333 50.667-58.833 106.167-76.5 166.5s-26.5 123.5-26.5 189.5c0 68 9.5 133.333 28.5 196s46.5 120 82.5 172l-146 149 139 139 143-146c49.333 36.667 103.666 65.167 162.999 85.5s121 30.5 185 30.5c64.667 0 126.667-10.333 186-31s114-49.667 164-87l146 149 140-140-150-153c34.667-52 61.5-108.833 80.5-170.5s28.5-126.167 28.5-193.5c0-65.333-8.833-127.833-26.5-187.5S1260 305.667 1228 255l142-143-140-139zM321.001 608c0-125.333 40.167-232.166 120.5-320.499s177.833-132.5 292.5-132.5c113.333 0 210.166 44.167 290.499 132.5S1145 482.667 1145 608c0 124-40.167 230-120.5 318s-177.166 132-290.499 132c-114.667 0-212.167-44-292.5-132s-120.5-194-120.5-318z"/><glyph glyph-name="yen" unicode="¥" horiz-adv-x="1243" d="M615 793l360 663h224L781 738h312V615H710V448h383V326H710V0H513v326H138v122h375v167H138v123h311L30 1456h226z"/><glyph glyph-name="brokenbar" unicode="¦" horiz-adv-x="499" d="M145-270v792h197v-792H145zm197 968H145v758h197V698z"/><glyph glyph-name="section" unicode="§" horiz-adv-x="1259" d="M1148 431c0-62.667-15.999-117.334-47.999-164.001s-77-83.334-135-110.001c46-34 80.667-73.667 104-119s35-100.666 35-165.999c0-114.667-44.333-204.5-133-269.5s-208-97.5-358-97.5c-147.333 0-271.333 34.167-372 102.5S91.667-216.668 95-70.001l2 6 188 2c0-95.333 32.167-165.5 96.5-210.5s141.5-67.5 231.5-67.5c91.333 0 163.166 19.833 215.499 59.5s78.5 89.834 78.5 150.501-24 107.834-72 141.501-140 71.5-276 113.5c-159.333 42-276.666 94-351.999 156s-113 152-113 270c0 60.667 15.667 114.5 47 161.5s76 84.167 134 111.5c-45.333 33.333-79.333 73.166-102 119.499s-34 101.833-34 166.5c0 110.667 44.667 199.5 134 266.5S481.666 1477 630.999 1477c155.333 0 276.333-37.167 363-111.5s128.667-178.833 126-313.5l-3-6h-188c0 78.667-26.333 144.334-79 197.001s-125.667 79-219 79c-96.667 0-170-19.833-220-59.5s-75-89.834-75-150.501c0-66 22.333-115.5 67-148.5S540.333 894.667 681 856c162.667-46 281.167-99.167 355.5-159.5S1148 547.667 1148 431zM603.001 689c-31.333 8-60.833 16.165-88.5 24.498s-53.5 17.5-77.5 27.5c-48.667-12.667-85.167-35.667-109.5-69s-36.5-73-36.5-119c0-66.667 22.667-117.167 68-151.5s138-71.166 278-110.499l93-28c24.667-7.333 48-15 70-23 48 13.333 85.333 36.5 112 69.5s40 72.5 40 118.5c0 60.667-24.5 108.834-73.5 144.501S737.668 647 603.001 689z"/><glyph glyph-name="dieresis" unicode="¨" horiz-adv-x="1021" d="M859 1256H640v200h219v-200zm-470 0H170v200h219v-200z"/><glyph glyph-name="copyright" unicode="©" horiz-adv-x="1604" d="M1111 596l2.001-5.999c2.667-100.667-25.333-177.167-84-229.5s-140.334-78.5-245.001-78.5c-106.667 0-191.334 35.5-254.001 106.5s-94 164.5-94 280.5v119c0 115.333 31.333 208.666 94 279.999S677.333 1175 784 1175c104.667 0 186.5-26.333 245.5-79s87.167-128.667 84.5-228l-2-6H966c0 63.333-15.167 109.5-45.5 138.5S844.667 1044 784 1044c-62.667 0-111-23.5-145-70.5S588 865 588 789V669c0-78 17-140.333 51-187s82.333-70 145-70c60.667 0 106 14.333 136 43s45 75.667 45 141h146zM209.001 729.001c0-176.667 57.167-325.667 171.5-447s253.5-182 417.5-182c163.333 0 302.333 60.667 417 182s172 270.333 172 447c0 175.333-57.333 323.333-172 444s-253.667 181-417 181c-164 0-303.167-60.333-417.5-181s-171.5-268.667-171.5-444zm-121 0c0 210 69 387 207 531s305.667 216 503 216c196.667 0 364-72 502-216s207-321 207-531c0-210.667-69.167-388.334-207.5-533.001s-305.5-217-501.5-217c-197.333 0-365 72.333-503 217s-207 322.334-207 533.001z"/><glyph glyph-name="ordfeminine" unicode="ª" horiz-adv-x="917" d="M613 706c-5.333 14-9.666 28.998-12.999 44.998s-6 32.667-8 50c-22-31.333-51.833-57.333-89.5-78s-82.167-31-133.5-31c-79.333 0-140.666 20.333-183.999 61s-65 96.334-65 167.001c0 73.333 28.167 130 84.5 170s138.166 60 245.499 60h139v52c0 42-10 74.333-30 97s-49.333 34-88 34c-44.667 0-79.167-9-103.5-27s-36.5-43.333-36.5-76l-162 13-1 6c-4 65.333 22.167 119.666 78.5 162.999s131.166 65 224.499 65c89.333 0 160-23.667 212-71s78-115.666 78-204.999v-314c0-33.333 2-64.666 6-93.999s10.667-58.333 20-87H613zM411 830.998c34 0 69.167 10 105.5 30s60.5 41.667 72.5 65v110H451c-50 0-88.833-11-116.5-33s-41.5-48.333-41.5-79c0-30 9.667-53 29-69s49-24 89-24z"/><glyph glyph-name="guillemotleft" unicode="«" horiz-adv-x="966" d="M285 515l255-398H392L97 506v19l295 389h148zm335 0l255-398H727L432 506v19l295 389h148z"/><glyph glyph-name="logicalnot" unicode="¬" horiz-adv-x="1137" d="M962 375H764v262H127v165h835V375z"/><glyph glyph-name="uni00AD" unicode="­" horiz-adv-x="923" d="M757 538H167v154h590V538z"/><glyph glyph-name="registered" unicode="®" horiz-adv-x="1604" d="M88 729c0 210 69 387 207 531s305.667 216 503 216c196.667 0 364-72 502-216s207-321 207-531c0-210.667-69.167-388.334-207.5-533.001s-305.5-217-501.5-217c-197.333 0-365 72.333-503 217S88 518.333 88 729zm121 0c0-177.333 57.165-326.5 171.498-447.5s253.5-181.5 417.5-181.5c162.667 0 301.334 60.667 416.001 182s172 270.333 172 447c0 176-57.167 324.167-171.5 444.5S961.333 1354 798 1354c-164 0-303.167-60.167-417.5-180.5S209 905 209 729zm443.998-75l-.001-338.002h-149v850h280c101.333 0 180.833-21.833 238.5-65.5s86.5-107.5 86.5-191.5c0-41.333-11-77.666-33-108.999s-54-57.333-96-78c44-17.333 75.833-43.666 95.5-78.999s29.5-78 29.5-128v-56c0-27.333 1.167-51.833 3.5-73.5s6.833-39.5 13.5-53.5v-16h-153c-6 14-9.667 34.5-11 61.5s-2 54.5-2 82.5v54c0 48-11.167 83.333-33.5 106s-59.166 34-110.499 34h-159zm-.001 129.998l152-.001c43.333.667 80.166 11.5 110.499 32.5s45.5 50.167 45.5 87.5c0 48.667-13.167 82.834-39.5 102.501s-72.166 29.5-137.499 29.5h-131v-252z"/><glyph glyph-name="macron" unicode="¯" horiz-adv-x="950" d="M844 1310H123v146h721v-146z"/><glyph glyph-name="macron" unicode="ˉ" horiz-adv-x="950" d="M844 1310H123v146h721v-146z"/><glyph glyph-name="degree" unicode="°" horiz-adv-x="763" d="M128 1216c0 70.667 25.331 131.834 75.998 183.501s111 77.5 181 77.5c68.667 0 127.834-25.833 177.501-77.5s74.5-112.834 74.5-183.501c0-72-24.667-132.833-74-182.5S454.333 959 385 959c-70.667 0-131.167 24.833-181.5 74.5S128 1144 128 1216zm130.998 0c0-36.667 12.166-67 36.499-91s54.166-36 89.499-36c34.667 0 63.834 12 87.501 36s35.5 54.333 35.5 91-12 67.5-36 92.5-53 37.5-87 37.5c-35.333 0-65.166-12.5-89.499-37.5s-36.5-55.833-36.5-92.5z"/><glyph glyph-name="plusminus" unicode="±" horiz-adv-x="1097" d="M657 856h358V702H657V289H480v413H99v154h381v411h177V856zM971 4H136v155h835V4z"/><glyph glyph-name="twosuperior" unicode="²" horiz-adv-x="868" d="M714 667l-592-.002v130l302 262c46 40 76.333 72.5 91 97.5s22 51.5 22 79.5c0 33.333-9.5 60.333-28.5 81s-47.833 31-86.5 31c-44.667 0-79.167-10.667-103.5-32s-36.5-48.666-36.5-81.999H121l-2 6c-4 66 22 122.333 78 169s131 70 225 70c90 0 160.333-21.333 211-64s76-102.667 76-180c0-53.333-14.833-98.666-44.5-135.999s-83.167-91-160.5-161L351 803l2-6h361V667z"/><glyph glyph-name="threesuperior" unicode="³" horiz-adv-x="876" d="M424 1137c44.667 0 77.833 9.498 99.5 28.498s32.5 45.833 32.5 80.5c0 28.667-12.167 52.667-36.5 72s-59.5 29-105.5 29c-37.333 0-67.5-8-90.5-24s-34.5-37.333-34.5-64H127l-2 6c-4 62.667 22.167 113.834 78.5 153.501s126.5 59.5 210.5 59.5c96.667 0 173-19.833 229-59.5s84-96.167 84-169.5c0-36.667-11.833-70.167-35.5-100.5S635.333 1094.333 594 1077c46.667-15.333 82.667-39 108-71s38-70.667 38-116c0-74-30-131.667-90-173s-138.667-62-236-62c-84.667 0-157.167 19.333-217.5 58S108 808 112 882l1 6h163c0-30.667 12.5-55.5 37.5-74.5S372 785 414 785c48 0 86 9.833 114 29.5s42 45.5 42 77.5c0 41.333-12.167 71.5-36.5 90.5S472.667 1011 424 1011H292v126h132z"/><glyph glyph-name="acute" unicode="´" horiz-adv-x="654" d="M316 1518h230l2-6-269-260H131z"/><glyph glyph-name="mu" unicode="µ" d="M349 1082V440c1.333-118.667 20.5-199.5 57.5-242.5S495.333 133 562 133c65.333 0 118.166 12 158.499 36s71.166 59.333 92.499 106v807h197V0h-177l-9 108c-29.333-42-65.166-74-107.499-96S625.333-21 570-21c-48 0-90.167 5.5-126.5 16.5S375.667 23.667 349 47v-463H153v1498h196z"/><glyph glyph-name="paragraph" unicode="¶" horiz-adv-x="1006" d="M639 0v520.001h-84c-155.333 0-276.166 43.167-362.499 129.5S63.001 848.667 63.001 988c0 138 43.167 250.5 129.5 337.5S399.667 1456 555 1456h281V0H639z"/><glyph glyph-name="periodcentered" unicode="·" horiz-adv-x="540" d="M359 624H161v212h198V624z"/><glyph glyph-name="cedilla" unicode="¸" horiz-adv-x="509" d="M292 0l-12-52.003c43.333-7.333 79.333-24.666 108-51.999S431-171.668 431-225c0-64-26.333-115-79-153s-128-57-226-57l-7 109c48 0 86.667 8.167 116 24.5s44 40.833 44 73.5c0 32-12 54.333-36 67s-65 21.333-123 26L152 0h140z"/><glyph glyph-name="onesuperior" unicode="¹" horiz-adv-x="557" d="M396 665H222v655H95v134l301 23V665z"/><glyph glyph-name="ordmasculine" unicode="º" horiz-adv-x="933" d="M120 1142c0 98.667 31.332 179.167 93.999 241.5S360.333 1477 465 1477c105.333 0 189.333-31.167 252-93.5s94-142.833 94-241.5v-117c0-99.333-31.167-179.833-93.5-241.5S571.667 691 467 691c-105.333 0-189.5 30.833-252.5 92.5S120 925.667 120 1025v117zm172.999-117c0-58.667 14.668-105.5 44.001-140.5S409.666 832 466.999 832c55.333 0 97.833 17.667 127.5 53s44.5 82 44.5 140v117c0 56-15 101.833-45 137.5s-73 53.5-129 53.5-98.667-17.833-128-53.5-44-81.5-44-137.5v-117z"/><glyph glyph-name="guillemotright" unicode="»" horiz-adv-x="966" d="M347 550L116 930h148l278-357h5l1-9 5-5-2-9 2-9-5-6-1-7h-4L264 170H116zm346 0L462 930h148l278-357h5l1-9 5-5-2-9 2-9-5-6-1-7h-4L610 170H462z"/><glyph glyph-name="onequarter" unicode="¼" horiz-adv-x="1595" d="M485 664H311v655H184v134l301 23V664zm-37-546l-109 67 711 1138 109-67zm932 164h126V152h-126V0h-170v152H793l-8 102 422 547h173V282zm-413 0h243v310l-6 1-13-22z"/><glyph glyph-name="onehalf" unicode="½" horiz-adv-x="1708" d="M461 118l-109 67 711 1138 109-67zm24 546H311v655H184v134l301 23V664zM1525 0L933-.002v130l302 262c46 40 76.333 72.5 91 97.5s22 51.5 22 79.5c0 33.333-9.5 60.333-28.5 81s-47.833 31-86.5 31c-44.667 0-79.167-10.667-103.5-32s-36.5-48.666-36.5-81.999H932l-2 6c-4 66 22 122.333 78 169s131 70 225 70c90 0 160.333-21.333 211-64s76-102.667 76-180c0-53.333-14.833-98.666-44.5-135.999s-83.167-91-160.5-161l-153-135 2-6h361V0z"/><glyph glyph-name="threequarters" unicode="¾" horiz-adv-x="1781" d="M631 118l-109 67 711 1138 109-67zm938 164h126V152h-126V0h-170v152H982l-8 102 422 547h173V282zm-413 0h243v310l-6 1-13-22zm-716 856c44.667 0 77.833 9.498 99.5 28.498s32.5 45.833 32.5 80.5c0 28.667-12.167 52.667-36.5 72s-59.5 29-105.5 29c-37.333 0-67.5-8-90.5-24s-34.5-37.333-34.5-64H143l-2 6c-4 62.667 22.167 113.834 78.5 153.501s126.5 59.5 210.5 59.5c96.667 0 173-19.833 229-59.5s84-96.167 84-169.5c0-36.667-11.833-70.167-35.5-100.5S651.333 1095.333 610 1078c46.667-15.333 82.667-39 108-71s38-70.667 38-116c0-74-30-131.667-90-173s-138.667-62-236-62c-84.667 0-157.167 19.333-217.5 58S124 809 128 883l1 6h163c0-30.667 12.5-55.5 37.5-74.5S388 786 430 786c48 0 86 9.833 114 29.5s42 45.5 42 77.5c0 41.333-12.167 71.5-36.5 90.5S488.667 1012 440 1012H308v126h132z"/><glyph glyph-name="questiondown" unicode="¿" horiz-adv-x="1013" d="M645 672c-1.333-97.333-9.998-164.667-25.998-202s-57.667-86.333-125-147c-66.667-78.667-113.834-139-141.501-181s-41.5-92-41.5-150c0-70.667 18.667-125 56-163s91.333-57 162-57c60 0 111.5 16.5 154.5 49.5s64.5 81.5 64.5 145.5h188l3-6c1.333-107.333-36.834-193.333-114.501-258S648.333-394 529-394c-132 0-234.167 33.5-306.5 100.5S114-133 114-13c0 84.667 23.333 162.5 70 233.5S293 365 371 441c35.333 35.333 57 67.333 65 96s12 73.667 12 135h197zm-203.998 411h206V874h-206v209z"/><glyph glyph-name="Agrave" unicode="À" horiz-adv-x="1295" d="M922 375H374L244 0H43l525 1456h169L1251 0h-201zM431 540h435l-212 625h-6zm300 1061H573l-250 260 3 6h230z"/><glyph glyph-name="Aacute" unicode="Á" horiz-adv-x="1295" d="M922 375H374L244 0H43l525 1456h169L1251 0h-201zM431 540h435l-212 625h-6zm312 1323h230l2-6-269-260H558z"/><glyph glyph-name="Acircumflex" unicode="Â" horiz-adv-x="1295" d="M922 375H374L244 0H43l525 1456h169L1251 0h-201zM431 540h435l-212 625h-6zm525 1086v-25H795l-147 148-146-148H342v26l246 237h120z"/><glyph glyph-name="Atilde" unicode="Ã" horiz-adv-x="1295" d="M922 375H374L244 0H43l525 1456h169L1251 0h-201zM431 540h435l-212 625h-6zm564 1304c0-62.667-19.834-115.666-59.501-158.999s-89.5-65-149.5-65c-47.333 0-96.666 15.5-147.999 46.5s-94 46.5-128 46.5c-28.667 0-52.667-10.833-72-32.5s-29-47.834-29-78.501l-108 26c0 62 19.667 115.833 59 161.5s89.333 68.5 150 68.5c37.333 0 84-15.667 140-47s101.333-47 136-47c27.333 0 51 10.833 71 32.5s30 48.167 30 79.5z"/><glyph glyph-name="Adieresis" unicode="Ä" horiz-adv-x="1295" d="M922 375H374L244 0H43l525 1456h169L1251 0h-201zM431 540h435l-212 625h-6zm562 1065H774v200h219v-200zm-470 0H304v200h219v-200z"/><glyph glyph-name="Aring" unicode="Å" horiz-adv-x="1295" d="M922 375H374L244 0H43l525 1456h169L1251 0h-201zM431 540h435l-212 625h-6zm40 1194c0 48 17.167 88.167 51.5 120.5S598.333 1903 647 1903c48 0 88.833-16.167 122.5-48.5S820 1782 820 1734c0-48.667-16.833-88.167-50.5-118.5S695 1570 647 1570c-49.333 0-91 15.333-125 46s-51 70-51 118zm100 0c0-20.667 7.5-38.167 22.5-52.5s32.833-21.5 53.5-21.5c20 0 37.167 7 51.5 21s21.5 31.667 21.5 53-7.167 39.5-21.5 54.5S667 1811 647 1811c-21.333 0-39.333-7.5-54-22.5s-22-33.167-22-54.5z"/><glyph glyph-name="AE" unicode="Æ" horiz-adv-x="1999" d="M1924 0h-895l-15 350H457L256 0H14l881 1456h967v-155h-691l20-466h590V680h-584l22-526h705V0zM560 529h447l-31 710-5 2z"/><glyph glyph-name="Ccedilla" unicode="Ç" horiz-adv-x="1297" d="M1209 466l2.001-5.998c2.667-136.667-45.333-251-144-343s-229-138-391-138c-164.667 0-298.834 58.333-402.501 175S118 418.669 118 598.002v259c0 179.333 51.833 327.5 155.5 444.5s237.834 175.5 402.501 175.5 295.667-43.833 393-131.5S1213.667 1141.668 1211 997.001l-2-6h-189c0 102-30 182.667-90 242s-144.667 89-254 89c-110 0-197.667-44.333-263-133s-98-198.667-98-330v-261c0-132.667 32.667-243.334 98-332.001s153-133 263-133c109.333 0 194 29.5 254 88.5s90 140.5 90 244.5h189zM754.001-8.998l-12-52.003c43.333-7.333 79.333-24.666 108-51.999s43-67.666 43-120.999c0-64-26.333-115-79-153s-128-57-226-57l-7 109c48 0 86.667 8.167 116 24.5s44 40.833 44 73.5c0 32-12 54.333-36 67s-65 21.334-123 26.001l32 135h140z"/><glyph glyph-name="Egrave" unicode="È" horiz-adv-x="1130" d="M965 675H367V154h700V0H170v1456h886v-155H367V830h598V675zm-263 926H544l-250 260 3 6h230z"/><glyph glyph-name="Eacute" unicode="É" horiz-adv-x="1130" d="M965 675H367V154h700V0H170v1456h886v-155H367V830h598V675zM714 1863h230l2-6-269-260H529z"/><glyph glyph-name="Ecircumflex" unicode="Ê" horiz-adv-x="1130" d="M965 675H367V154h700V0H170v1456h886v-155H367V830h598V675zm-38 951v-25H766l-147 148-146-148H313v26l246 237h120z"/><glyph glyph-name="Edieresis" unicode="Ë" horiz-adv-x="1130" d="M965 675H367V154h700V0H170v1456h886v-155H367V830h598V675zm-1 930H745v200h219v-200zm-470 0H275v200h219v-200z"/><glyph glyph-name="Igrave" unicode="Ì" horiz-adv-x="579" d="M388 0H190v1456h198V0zm-15 1601H215l-250 260 3 6h230z"/><glyph glyph-name="Iacute" unicode="Í" horiz-adv-x="579" d="M388 0H190v1456h198V0zm-4 1863h230l2-6-269-260H199z"/><glyph glyph-name="Icircumflex" unicode="Î" horiz-adv-x="579" d="M388 0H190v1456h198V0zm210 1626v-25H437l-147 148-146-148H-16v26l246 237h120z"/><glyph glyph-name="Idieresis" unicode="Ï" horiz-adv-x="579" d="M388 0H190v1456h198V0zm247 1605H416v200h219v-200zm-470 0H-54v200h219v-200z"/><glyph glyph-name="Eth" unicode="Ð" horiz-adv-x="1387" d="M170 0v663H2v155h168v638h458c190 0 342.833-58.5 458.5-175.5S1260 1012.333 1260 827V628c0-186-57.833-337.167-173.5-453.5S818 0 628 0H170zm473 663l-276-.001v-509h261c134.667 0 240.834 44.333 318.501 133s116.5 202.334 116.5 341.001v201c0 137.333-38.833 250.333-116.5 339S762.667 1301 628 1301H367V818h276V663z"/><glyph glyph-name="Ntilde" unicode="Ñ" horiz-adv-x="1442" d="M1271 0h-197L373 1112l-6-2V0H170v1456h197l701-1111 6 2v1109h197V0zm-205 1844c0-62.667-19.834-115.666-59.501-158.999s-89.5-65-149.5-65c-47.333 0-96.666 15.5-147.999 46.5s-94 46.5-128 46.5c-28.667 0-52.667-10.833-72-32.5s-29-47.834-29-78.501l-108 26c0 62 19.667 115.833 59 161.5s89.333 68.5 150 68.5c37.333 0 84-15.667 140-47s101.333-47 136-47c27.333 0 51 10.833 71 32.5s30 48.167 30 79.5z"/><glyph glyph-name="Ograve" unicode="Ò" horiz-adv-x="1396" d="M1282 598c0-178-55.167-325.667-165.5-443S863-21 687-21c-170 0-308.167 58.667-414.5 176S113 420 113 598v259c0 177.333 53.167 325 159.5 443S517 1477 687 1477c176 0 319.167-58.833 429.5-176.5S1282 1035 1282 857V598zm-197 261c0 133.333-36 242.666-108 327.999s-168.667 128-290 128c-114.667 0-206.167-42.667-274.5-128S310 992.333 310 859V598c0-134.667 34.167-244.667 102.5-330S572.333 140 687 140c122 0 218.833 42.5 290.5 127.5S1085 462.667 1085 598v261zm-304 763H623l-250 260 3 6h230z"/><glyph glyph-name="Oacute" unicode="Ó" horiz-adv-x="1396" d="M1282 598c0-178-55.167-325.667-165.5-443S863-21 687-21c-170 0-308.167 58.667-414.5 176S113 420 113 598v259c0 177.333 53.167 325 159.5 443S517 1477 687 1477c176 0 319.167-58.833 429.5-176.5S1282 1035 1282 857V598zm-197 261c0 133.333-36 242.666-108 327.999s-168.667 128-290 128c-114.667 0-206.167-42.667-274.5-128S310 992.333 310 859V598c0-134.667 34.167-244.667 102.5-330S572.333 140 687 140c122 0 218.833 42.5 290.5 127.5S1085 462.667 1085 598v261zM793 1884h230l2-6-269-260H608z"/><glyph glyph-name="Ocircumflex" unicode="Ô" horiz-adv-x="1396" d="M1282 598c0-178-55.167-325.667-165.5-443S863-21 687-21c-170 0-308.167 58.667-414.5 176S113 420 113 598v259c0 177.333 53.167 325 159.5 443S517 1477 687 1477c176 0 319.167-58.833 429.5-176.5S1282 1035 1282 857V598zm-197 261c0 133.333-36 242.666-108 327.999s-168.667 128-290 128c-114.667 0-206.167-42.667-274.5-128S310 992.333 310 859V598c0-134.667 34.167-244.667 102.5-330S572.333 140 687 140c122 0 218.833 42.5 290.5 127.5S1085 462.667 1085 598v261zm-79 788v-25H845l-147 148-146-148H392v26l246 237h120z"/><glyph glyph-name="Otilde" unicode="Õ" horiz-adv-x="1396" d="M1282 598c0-178-55.167-325.667-165.5-443S863-21 687-21c-170 0-308.167 58.667-414.5 176S113 420 113 598v259c0 177.333 53.167 325 159.5 443S517 1477 687 1477c176 0 319.167-58.833 429.5-176.5S1282 1035 1282 857V598zm-197 261c0 133.333-36 242.666-108 327.999s-168.667 128-290 128c-114.667 0-206.167-42.667-274.5-128S310 992.333 310 859V598c0-134.667 34.167-244.667 102.5-330S572.333 140 687 140c122 0 218.833 42.5 290.5 127.5S1085 462.667 1085 598v261zm-40 1006c0-62.667-19.834-115.666-59.501-158.999s-89.5-65-149.5-65c-47.333 0-96.666 15.5-147.999 46.5s-94 46.5-128 46.5c-28.667 0-52.667-10.833-72-32.5s-29-47.834-29-78.501l-108 26c0 62 19.667 115.833 59 161.5s89.333 68.5 150 68.5c37.333 0 84-15.667 140-47s101.333-47 136-47c27.333 0 51 10.833 71 32.5s30 48.167 30 79.5z"/><glyph glyph-name="Odieresis" unicode="Ö" horiz-adv-x="1396" d="M1282 598c0-178-55.167-325.667-165.5-443S863-21 687-21c-170 0-308.167 58.667-414.5 176S113 420 113 598v259c0 177.333 53.167 325 159.5 443S517 1477 687 1477c176 0 319.167-58.833 429.5-176.5S1282 1035 1282 857V598zm-197 261c0 133.333-36 242.666-108 327.999s-168.667 128-290 128c-114.667 0-206.167-42.667-274.5-128S310 992.333 310 859V598c0-134.667 34.167-244.667 102.5-330S572.333 140 687 140c122 0 218.833 42.5 290.5 127.5S1085 462.667 1085 598v261zm-42 767H824v200h219v-200zm-470 0H354v200h219v-200z"/><glyph glyph-name="multiply" unicode="×" horiz-adv-x="1096" d="M88 351l327 334-327 334 126 126 326-333 327 333 126-126-328-334 328-334-126-126-327 332-326-332z"/><glyph glyph-name="Oslash" unicode="Ø" horiz-adv-x="1396" d="M1282 598c0-178-55.166-325.668-165.499-443.001s-253.5-176-429.5-176c-56.667 0-110.167 6.833-160.5 20.5S429.668 33.333 387.001 60l-91-154h-149l139 234c-56 56-98.833 123.333-128.5 202s-44.5 164-44.5 256v259c0 177.333 53.167 325 159.5 443s244.5 177 414.5 177c62.667 0 122.167-8.5 178.5-25.5s108.5-40.833 156.5-71.5l81 137h149l-132-221c51.333-56 91.166-121.667 119.499-197s42.5-156 42.5-242V598zm-971.999-.001c0-56.667 6.332-109.333 18.999-158s30.667-90.334 54-125.001l6-1 544 916c-33.333 27.333-70.666 48.333-111.999 63s-86 22-134 22c-114.667 0-206.167-42.667-274.5-128s-102.5-194.666-102.5-327.999v-261zM1085 859c0 50-5.498 97.333-16.498 142s-26.5 83.667-46.5 117l-6 1-541-911c29.333-22.667 61.666-39.667 96.999-51S645.667 140 687 140c122 0 218.833 42.5 290.5 127.5S1085 462.667 1085 598v261z"/><glyph glyph-name="Ugrave" unicode="Ù" horiz-adv-x="1386" d="M1244 1456l-.001-966.999c0-160-52-285-156-375s-238-135-402-135c-158 0-287.333 45.167-388 135.5s-151 215.166-151 374.499v967h197V489c0-111.333 31.833-198.5 95.5-261.5S585.333 133 686 133c106.667 0 193.5 31.5 260.5 94.5S1047 377.667 1047 489v967h197zm-464.001 145h-158l-250 260 3 6h230z"/><glyph glyph-name="Uacute" unicode="Ú" horiz-adv-x="1386" d="M1244 1456l-.001-966.999c0-160-52-285-156-375s-238-135-402-135c-158 0-287.333 45.167-388 135.5s-151 215.166-151 374.499v967h197V489c0-111.333 31.833-198.5 95.5-261.5S585.333 133 686 133c106.667 0 193.5 31.5 260.5 94.5S1047 377.667 1047 489v967h197zm-452.001 407h230l2-6-269-260h-148z"/><glyph glyph-name="Ucircumflex" unicode="Û" horiz-adv-x="1386" d="M1244 1456l-.001-966.999c0-160-52-285-156-375s-238-135-402-135c-158 0-287.333 45.167-388 135.5s-151 215.166-151 374.499v967h197V489c0-111.333 31.833-198.5 95.5-261.5S585.333 133 686 133c106.667 0 193.5 31.5 260.5 94.5S1047 377.667 1047 489v967h197zm-239 170v-25H844l-147 148-146-148H391v26l246 237h120z"/><glyph glyph-name="Udieresis" unicode="Ü" horiz-adv-x="1386" d="M1244 1456l-.001-966.999c0-160-52-285-156-375s-238-135-402-135c-158 0-287.333 45.167-388 135.5s-151 215.166-151 374.499v967h197V489c0-111.333 31.833-198.5 95.5-261.5S585.333 133 686 133c106.667 0 193.5 31.5 260.5 94.5S1047 377.667 1047 489v967h197zm-202 149H823v200h219v-200zm-470.001 0h-219v200h219v-200z"/><glyph glyph-name="Yacute" unicode="Ý" horiz-adv-x="1295" d="M645 716l380 740h225L739 512V0H543v527L40 1456h225zm96 1146h230l2-6-269-260H556z"/><glyph glyph-name="Thorn" unicode="Þ" horiz-adv-x="1209" d="M360 1456v-293h269c154.667 0 275.334-39.333 362.001-118s130-181 130-307c0-126.667-43.333-229.167-130-307.5S783.667 313 629 313H360V0H163v1456h197zm0-447V467h269c98 0 171.5 26 220.5 78S923 660.667 923 736c0 76-24.5 140.5-73.5 193.5S727 1009 629 1009H360z"/><glyph glyph-name="germandbls" unicode="ß" horiz-adv-x="1221" d="M333 0H137.002v1082c0 148.667 39.167 264.667 117.5 348s178.5 125 300.5 125c107.333 0 194.666-28.667 261.999-86s101-141.666 101-252.999c0-78.667-21.5-154.667-64.5-228s-64.5-129-64.5-167c0-54.667 57.833-129.334 173.5-224.001s173.5-188.334 173.5-281.001c0-111.333-34.833-195.333-104.5-252s-163.834-85-282.501-85c-56 0-113.5 6.833-172.5 20.5s-100.833 30.5-125.5 50.5l44 159c28.667-18.667 64.667-36 108-52s85.333-24 126-24c72 0 125 15.833 159 47.5s51 73.5 51 125.5c0 56-57.833 131.833-173.5 227.5S592 725.666 592 822.999c0 53.333 23.5 116.833 70.5 190.5S733 1149.333 733 1200c0 62-17 111-51 147s-73 54-117 54c-69.333 0-125.333-27.833-168-83.5s-64-134.167-64-235.5V0z"/><glyph glyph-name="agrave" unicode="à" horiz-adv-x="1126" d="M808 0c-6.667 32.667-11.831 61.5-15.498 86.5s-5.834 50.167-6.501 75.5c-36.667-52-84.5-95.5-143.5-130.5S520.001-21 452.001-21c-112.667 0-198.5 28.833-257.5 86.5s-88.5 137.167-88.5 238.5c0 103.333 41.833 184.166 125.5 242.499s197.167 87.5 340.5 87.5h214v107c0 63.333-19.333 113.5-58 150.5s-93.334 55.5-164.001 55.5c-64 0-115.667-16-155-48s-59-70.333-59-115l-187-2-2 6c-4.667 78.667 32.166 150.667 110.499 216s179.5 98 303.5 98c122.667 0 221.334-31.167 296.001-93.5S983 856.333 983 739V218c0-38.667 2-76 6-112s11.333-71.333 22-106H808zM481.003 144c71.333 0 135.668 18.333 193.001 55s94.666 78.667 111.999 126v176h-221c-79.333 0-142.833-20-190.5-60s-71.5-87-71.5-141c0-48 15-86 45-114s74.333-42 133-42zm157.002 1135h-158l-250 260 3 6h230z"/><glyph glyph-name="aacute" unicode="á" horiz-adv-x="1126" d="M808 0c-6.667 32.667-11.831 61.5-15.498 86.5s-5.834 50.167-6.501 75.5c-36.667-52-84.5-95.5-143.5-130.5S520.001-21 452.001-21c-112.667 0-198.5 28.833-257.5 86.5s-88.5 137.167-88.5 238.5c0 103.333 41.833 184.166 125.5 242.499s197.167 87.5 340.5 87.5h214v107c0 63.333-19.333 113.5-58 150.5s-93.334 55.5-164.001 55.5c-64 0-115.667-16-155-48s-59-70.333-59-115l-187-2-2 6c-4.667 78.667 32.166 150.667 110.499 216s179.5 98 303.5 98c122.667 0 221.334-31.167 296.001-93.5S983 856.333 983 739V218c0-38.667 2-76 6-112s11.333-71.333 22-106H808zM481.003 144c71.333 0 135.668 18.333 193.001 55s94.666 78.667 111.999 126v176h-221c-79.333 0-142.833-20-190.5-60s-71.5-87-71.5-141c0-48 15-86 45-114s74.333-42 133-42zm169.002 1397h230l2-6-269-260h-148z"/><glyph glyph-name="acircumflex" unicode="â" horiz-adv-x="1126" d="M808 0c-6.667 32.667-11.831 61.5-15.498 86.5s-5.834 50.167-6.501 75.5c-36.667-52-84.5-95.5-143.5-130.5S520.001-21 452.001-21c-112.667 0-198.5 28.833-257.5 86.5s-88.5 137.167-88.5 238.5c0 103.333 41.833 184.166 125.5 242.499s197.167 87.5 340.5 87.5h214v107c0 63.333-19.333 113.5-58 150.5s-93.334 55.5-164.001 55.5c-64 0-115.667-16-155-48s-59-70.333-59-115l-187-2-2 6c-4.667 78.667 32.166 150.667 110.499 216s179.5 98 303.5 98c122.667 0 221.334-31.167 296.001-93.5S983 856.333 983 739V218c0-38.667 2-76 6-112s11.333-71.333 22-106H808zM481.003 144c71.333 0 135.668 18.333 193.001 55s94.666 78.667 111.999 126v176h-221c-79.333 0-142.833-20-190.5-60s-71.5-87-71.5-141c0-48 15-86 45-114s74.333-42 133-42zm382.002 1160v-25h-161l-147 148-146-148h-160v26l246 237h120z"/><glyph glyph-name="atilde" unicode="ã" horiz-adv-x="1126" d="M808 0c-6.667 32.667-11.831 61.5-15.498 86.5s-5.834 50.167-6.501 75.5c-36.667-52-84.5-95.5-143.5-130.5S520.001-21 452.001-21c-112.667 0-198.5 28.833-257.5 86.5s-88.5 137.167-88.5 238.5c0 103.333 41.833 184.166 125.5 242.499s197.167 87.5 340.5 87.5h214v107c0 63.333-19.333 113.5-58 150.5s-93.334 55.5-164.001 55.5c-64 0-115.667-16-155-48s-59-70.333-59-115l-187-2-2 6c-4.667 78.667 32.166 150.667 110.499 216s179.5 98 303.5 98c122.667 0 221.334-31.167 296.001-93.5S983 856.333 983 739V218c0-38.667 2-76 6-112s11.333-71.333 22-106H808zM481.003 144c71.333 0 135.668 18.333 193.001 55s94.666 78.667 111.999 126v176h-221c-79.333 0-142.833-20-190.5-60s-71.5-87-71.5-141c0-48 15-86 45-114s74.333-42 133-42zm421.002 1378c0-62.667-19.834-115.666-59.501-158.999s-89.5-65-149.5-65c-47.333 0-96.666 15.5-147.999 46.5s-94 46.5-128 46.5c-28.667 0-52.667-10.833-72-32.5s-29-47.834-29-78.501l-108 26c0 62 19.667 115.833 59 161.5s89.333 68.5 150 68.5c37.333 0 84-15.667 140-47s101.333-47 136-47c27.333 0 51 10.833 71 32.5s30 48.167 30 79.5z"/><glyph glyph-name="adieresis" unicode="ä" horiz-adv-x="1126" d="M808 0c-6.667 32.667-11.831 61.5-15.498 86.5s-5.834 50.167-6.501 75.5c-36.667-52-84.5-95.5-143.5-130.5S520.001-21 452.001-21c-112.667 0-198.5 28.833-257.5 86.5s-88.5 137.167-88.5 238.5c0 103.333 41.833 184.166 125.5 242.499s197.167 87.5 340.5 87.5h214v107c0 63.333-19.333 113.5-58 150.5s-93.334 55.5-164.001 55.5c-64 0-115.667-16-155-48s-59-70.333-59-115l-187-2-2 6c-4.667 78.667 32.166 150.667 110.499 216s179.5 98 303.5 98c122.667 0 221.334-31.167 296.001-93.5S983 856.333 983 739V218c0-38.667 2-76 6-112s11.333-71.333 22-106H808zM481.003 144c71.333 0 135.668 18.333 193.001 55s94.666 78.667 111.999 126v176h-221c-79.333 0-142.833-20-190.5-60s-71.5-87-71.5-141c0-48 15-86 45-114s74.333-42 133-42zm419.002 1139h-219v200h219v-200zm-470 0h-219v200h219v-200z"/><glyph glyph-name="aring" unicode="å" horiz-adv-x="1126" d="M808 0c-6.667 32.667-11.831 61.5-15.498 86.5s-5.834 50.167-6.501 75.5c-36.667-52-84.5-95.5-143.5-130.5S520.001-21 452.001-21c-112.667 0-198.5 28.833-257.5 86.5s-88.5 137.167-88.5 238.5c0 103.333 41.833 184.166 125.5 242.499s197.167 87.5 340.5 87.5h214v107c0 63.333-19.333 113.5-58 150.5s-93.334 55.5-164.001 55.5c-64 0-115.667-16-155-48s-59-70.333-59-115l-187-2-2 6c-4.667 78.667 32.166 150.667 110.499 216s179.5 98 303.5 98c122.667 0 221.334-31.167 296.001-93.5S983 856.333 983 739V218c0-38.667 2-76 6-112s11.333-71.333 22-106H808zM481.003 144c71.333 0 135.668 18.333 193.001 55s94.666 78.667 111.999 126v176h-221c-79.333 0-142.833-20-190.5-60s-71.5-87-71.5-141c0-48 15-86 45-114s74.333-42 133-42zM378.005 1412c0 48 17.167 88.167 51.5 120.5s75.833 48.5 124.5 48.5c48 0 88.833-16.167 122.5-48.5s50.5-72.5 50.5-120.5c0-48.667-16.833-88.167-50.5-118.5s-74.5-45.5-122.5-45.5c-49.333 0-91 15.333-125 46s-51 70-51 118zm100 0c0-20.667 7.5-38.167 22.5-52.5s32.833-21.5 53.5-21.5c20 0 37.167 7 51.5 21s21.5 31.667 21.5 53-7.167 39.5-21.5 54.5-31.5 22.5-51.5 22.5c-21.333 0-39.333-7.5-54-22.5s-22-33.167-22-54.5z"/><glyph glyph-name="ae" unicode="æ" horiz-adv-x="1789" d="M1292-21c-90.667 0-170.666 16.167-239.999 48.5s-126 78.5-170 138.5c-37.333-52.667-93.166-97-167.499-133s-164.833-54-271.5-54c-113.333 0-200.833 29-262.5 87s-92.5 137.333-92.5 238c0 104.667 38.333 185.667 115 243s188.334 86 335.001 86h229v87c0 70.667-17.333 126.167-52 166.5S630.669 947 566.002 947c-68.667 0-123.334-18.333-164.001-55s-61-81-61-133l-188 18-2 6c-3.333 92 33.334 168.167 110.001 228.5s178.334 90.5 305.001 90.5c76 0 143.167-13.5 201.5-40.5S871.669 995.333 905.002 944c42.667 50 93.167 88.833 151.5 116.5s121.166 41.5 188.499 41.5c142.667 0 252.5-43.333 329.5-130s115.5-206 115.5-358V495h-709l-2-5c.667-106 27.167-192 79.5-258s130.166-99 233.499-99c68.667 0 125.167 9.167 169.5 27.5S1554 205 1606 239l67-138c-35.333-29.333-84.333-57-147-83s-140.667-39-234-39zM482.001 133c50.667 0 103.667 14.5 159 43.5s97.333 62.5 126 100.5v214h-227c-80 0-142.5-18.5-187.5-55.5s-67.5-82.167-67.5-135.5c0-49.333 16.667-89.5 50-120.5s82.333-46.5 147-46.5zM1245 947c-75.333 0-136-28.166-182-84.499s-72.667-128.833-80-217.5l2-5h508v31c0 81.333-20 147.666-60 198.999s-102.667 77-188 77z"/><glyph glyph-name="ccedilla" unicode="ç" horiz-adv-x="1072" d="M573 133c60.667 0 113.667 20.167 159 60.5s68 89.833 68 148.5h178l3-6c2.667-93.333-37.333-176.166-120-248.499s-178.667-108.5-288-108.5c-152 0-269.333 51.667-352 155s-124 232-124 386v42c0 152.667 41.5 280.834 124.5 384.501s200.167 155.5 351.5 155.5c120.667 0 219.5-37.333 296.5-112S983.667 823.668 981 715.001l-2-6H800c0 66-21.5 122.167-64.5 168.5s-97.167 69.5-162.5 69.5c-96.667 0-167.167-37.5-211.5-112.5S295 668.668 295 562.001v-42c0-108.667 21.833-200.334 65.5-275.001S475 133 573 133zM623-9l-12-52.003c43.333-7.333 79.333-24.666 108-51.999S762-180.668 762-234c0-64-26.333-115-79-153s-128-57-226-57l-7 109c48 0 86.667 8.167 116 24.5s44 40.833 44 73.5c0 32-12 54.333-36 67s-65 21.333-123 26L483-9h140z"/><glyph glyph-name="egrave" unicode="è" horiz-adv-x="1072" d="M591-21c-155.333 0-276.501 49.668-363.501 149.001s-130.5 230-130.5 392v44c0 155.333 44.833 283.833 134.5 385.5s199.167 152.5 328.5 152.5c144.667 0 253.167-45 325.5-135s108.5-209.667 108.5-359v-104h-692l-3-5c0-108.667 24-196.834 72-264.501s121.333-101.5 220-101.5c66.667 0 125.167 9.5 175.5 28.5s93.5 45.167 129.5 78.5l77-128c-38.667-37.333-89.667-68.833-153-94.5S680.333-21 591-21zm-31.001 968.001c-68.667 0-125.499-26.5-170.499-79.5S317 746.668 307 664.001l2-5h488v16c0 78.667-19.333 143.667-58 195s-98.334 77-179.001 77zM622 1280H464l-250 260 3 6h230z"/><glyph glyph-name="eacute" unicode="é" horiz-adv-x="1072" d="M591-21c-155.333 0-276.501 49.668-363.501 149.001s-130.5 230-130.5 392v44c0 155.333 44.833 283.833 134.5 385.5s199.167 152.5 328.5 152.5c144.667 0 253.167-45 325.5-135s108.5-209.667 108.5-359v-104h-692l-3-5c0-108.667 24-196.834 72-264.501s121.333-101.5 220-101.5c66.667 0 125.167 9.5 175.5 28.5s93.5 45.167 129.5 78.5l77-128c-38.667-37.333-89.667-68.833-153-94.5S680.333-21 591-21zm-31.001 968.001c-68.667 0-125.499-26.5-170.499-79.5S317 746.668 307 664.001l2-5h488v16c0 78.667-19.333 143.667-58 195s-98.334 77-179.001 77zM634 1542h230l2-6-269-260H449z"/><glyph glyph-name="ecircumflex" unicode="ê" horiz-adv-x="1072" d="M591-21c-155.333 0-276.501 49.668-363.501 149.001s-130.5 230-130.5 392v44c0 155.333 44.833 283.833 134.5 385.5s199.167 152.5 328.5 152.5c144.667 0 253.167-45 325.5-135s108.5-209.667 108.5-359v-104h-692l-3-5c0-108.667 24-196.834 72-264.501s121.333-101.5 220-101.5c66.667 0 125.167 9.5 175.5 28.5s93.5 45.167 129.5 78.5l77-128c-38.667-37.333-89.667-68.833-153-94.5S680.333-21 591-21zm-31.001 968.001c-68.667 0-125.499-26.5-170.499-79.5S317 746.668 307 664.001l2-5h488v16c0 78.667-19.333 143.667-58 195s-98.334 77-179.001 77zM847 1305v-25H686l-147 148-146-148H233v26l246 237h120z"/><glyph glyph-name="edieresis" unicode="ë" horiz-adv-x="1072" d="M591-21c-155.333 0-276.501 49.668-363.501 149.001s-130.5 230-130.5 392v44c0 155.333 44.833 283.833 134.5 385.5s199.167 152.5 328.5 152.5c144.667 0 253.167-45 325.5-135s108.5-209.667 108.5-359v-104h-692l-3-5c0-108.667 24-196.834 72-264.501s121.333-101.5 220-101.5c66.667 0 125.167 9.5 175.5 28.5s93.5 45.167 129.5 78.5l77-128c-38.667-37.333-89.667-68.833-153-94.5S680.333-21 591-21zm-31.001 968.001c-68.667 0-125.499-26.5-170.499-79.5S317 746.668 307 664.001l2-5h488v16c0 78.667-19.333 143.667-58 195s-98.334 77-179.001 77zM884 1284H665v200h219v-200zm-470 0H195v200h219v-200z"/><glyph glyph-name="igrave" unicode="ì" horiz-adv-x="515" d="M350 0H153v1082h197V0zm-14 1258H178l-250 260 3 6h230z"/><glyph glyph-name="iacute" unicode="í" horiz-adv-x="515" d="M350 0H153v1082h197V0zm-3 1520h230l2-6-269-260H162z"/><glyph glyph-name="icircumflex" unicode="î" horiz-adv-x="515" d="M350 0H153v1082h197V0zm211 1283v-25H400l-147 148-146-148H-53v26l246 237h120z"/><glyph glyph-name="idieresis" unicode="ï" horiz-adv-x="515" d="M350 0H153v1082h197V0zm248 1262H379v200h219v-200zm-470 0H-91v200h219v-200z"/><glyph glyph-name="eth" unicode="ð" horiz-adv-x="1202" d="M873 1297c63.333-69.333 112.332-149.832 146.999-241.499s52-191.834 52-300.501V535c0-163.333-48-296.833-144-400.5S712.332-21 568.999-21c-145.333 0-264.5 46.667-357.5 140s-139.5 209-139.5 347c0 152 46 275.333 138 370s209 142 351 142c60 0 116.5-12.333 169.5-37s96.833-57 131.5-97l4 5c-6 72.667-23.167 138.334-51.5 197.001s-65.166 110-110.499 154l-290-165-77 102 256 146c-26 14.667-52.833 27.667-80.5 39S456.333 1343.667 427 1353l60 164c52.667-12.667 103-30 151-52s93-48.333 135-79l218 125 77-102zM572.999 133.001C661.666 133.001 734.167 171 790.5 247S875 419 875 535v148c-23.333 39.333-61.833 72.5-115.5 99.5S639.666 823 560.999 823c-87.333 0-157.833-34.667-211.5-104s-80.5-153.666-80.5-252.999c0-88 27.333-165.5 82-232.5s128.667-100.5 222-100.5z"/><glyph glyph-name="ntilde" unicode="ñ" d="M319 1082l14.001-161c36 57.333 81.167 101.833 135.5 133.5S584.667 1102 654 1102c116.667 0 207-34.167 271-102.5s96-173.833 96-316.5V0H824v679c0 95.333-18.833 163-56.5 203s-95.167 60-172.5 60c-60.667 0-112.167-12.167-154.5-36.5S364.667 847 340 803V0H143v1082h176zm606.001 440c0-62.667-19.834-115.666-59.501-158.999s-89.5-65-149.5-65c-47.333 0-96.666 15.5-147.999 46.5s-94 46.5-128 46.5c-28.667 0-52.667-10.833-72-32.5s-29-47.834-29-78.501l-108 26c0 62 19.667 115.833 59 161.5s89.333 68.5 150 68.5c37.333 0 84-15.667 140-47s101.333-47 136-47c27.333 0 51 10.833 71 32.5s30 48.167 30 79.5z"/><glyph glyph-name="ograve" unicode="ò" d="M97 551c0 160 43.332 291.833 129.999 395.5S431.333 1102 580 1102c150 0 268.5-51.667 355.5-155S1066 711.667 1066 551v-22c0-161.333-43.333-293.333-130-396S731.333-21 582-21 314.5 30.5 227.5 133.5 97 368.333 97 529v22zm196.999-22c0-114.667 24.168-209.334 72.501-284.001s120.166-112 215.499-112c94 0 165.333 37.333 214 112s73 169.334 73 284.001v22c0 113.333-24.5 207.666-73.5 282.999s-120.833 113-215.5 113c-94 0-165.167-37.667-213.5-113s-72.5-169.666-72.5-282.999v-22zM665 1279H507l-250 260 3 6h230z"/><glyph glyph-name="oacute" unicode="ó" d="M97 551c0 160 43.332 291.833 129.999 395.5S431.333 1102 580 1102c150 0 268.5-51.667 355.5-155S1066 711.667 1066 551v-22c0-161.333-43.333-293.333-130-396S731.333-21 582-21 314.5 30.5 227.5 133.5 97 368.333 97 529v22zm196.999-22c0-114.667 24.168-209.334 72.501-284.001s120.166-112 215.499-112c94 0 165.333 37.333 214 112s73 169.334 73 284.001v22c0 113.333-24.5 207.666-73.5 282.999s-120.833 113-215.5 113c-94 0-165.167-37.667-213.5-113s-72.5-169.666-72.5-282.999v-22zM677 1541h230l2-6-269-260H492z"/><glyph glyph-name="ocircumflex" unicode="ô" d="M97 551c0 160 43.332 291.833 129.999 395.5S431.333 1102 580 1102c150 0 268.5-51.667 355.5-155S1066 711.667 1066 551v-22c0-161.333-43.333-293.333-130-396S731.333-21 582-21 314.5 30.5 227.5 133.5 97 368.333 97 529v22zm196.999-22c0-114.667 24.168-209.334 72.501-284.001s120.166-112 215.499-112c94 0 165.333 37.333 214 112s73 169.334 73 284.001v22c0 113.333-24.5 207.666-73.5 282.999s-120.833 113-215.5 113c-94 0-165.167-37.667-213.5-113s-72.5-169.666-72.5-282.999v-22zM890 1304v-25H729l-147 148-146-148H276v26l246 237h120z"/><glyph glyph-name="otilde" unicode="õ" d="M97 551c0 160 43.332 291.833 129.999 395.5S431.333 1102 580 1102c150 0 268.5-51.667 355.5-155S1066 711.667 1066 551v-22c0-161.333-43.333-293.333-130-396S731.333-21 582-21 314.5 30.5 227.5 133.5 97 368.333 97 529v22zm196.999-22c0-114.667 24.168-209.334 72.501-284.001s120.166-112 215.499-112c94 0 165.333 37.333 214 112s73 169.334 73 284.001v22c0 113.333-24.5 207.666-73.5 282.999s-120.833 113-215.5 113c-94 0-165.167-37.667-213.5-113s-72.5-169.666-72.5-282.999v-22zM929 1522c0-62.667-19.834-115.666-59.501-158.999s-89.5-65-149.5-65c-47.333 0-96.666 15.5-147.999 46.5s-94 46.5-128 46.5c-28.667 0-52.667-10.833-72-32.5s-29-47.834-29-78.501l-108 26c0 62 19.667 115.833 59 161.5s89.333 68.5 150 68.5c37.333 0 84-15.667 140-47s101.333-47 136-47c27.333 0 51 10.833 71 32.5s30 48.167 30 79.5z"/><glyph glyph-name="odieresis" unicode="ö" d="M97 551c0 160 43.332 291.833 129.999 395.5S431.333 1102 580 1102c150 0 268.5-51.667 355.5-155S1066 711.667 1066 551v-22c0-161.333-43.333-293.333-130-396S731.333-21 582-21 314.5 30.5 227.5 133.5 97 368.333 97 529v22zm196.999-22c0-114.667 24.168-209.334 72.501-284.001s120.166-112 215.499-112c94 0 165.333 37.333 214 112s73 169.334 73 284.001v22c0 113.333-24.5 207.666-73.5 282.999s-120.833 113-215.5 113c-94 0-165.167-37.667-213.5-113s-72.5-169.666-72.5-282.999v-22zM927 1283H708v200h219v-200zm-470 0H238v200h219v-200z"/><glyph glyph-name="divide" unicode="÷" horiz-adv-x="1170" d="M1069 597H71v188h998V597zM670 999H472v203h198V999zm0-819H472v203h198V180z"/><glyph glyph-name="oslash" unicode="ø" d="M97 551c0 160 43.333 291.83 130 395.497s204.334 155.5 353.001 155.5c37.333 0 73.166-3.667 107.499-11s66.833-17.666 97.5-30.999l74 149h129l-104-211c58.667-49.333 103.667-112.666 135-189.999s47-163 47-257v-22c0-161.333-43.333-293.333-130-396s-204.667-154-354-154c-34 0-66.333 2.833-97 8.5S425 1.333 397 12l-72-147H196L296 69c-64 47.333-113.167 111-147.5 191S97 429.667 97 529v22zm197-22.003c0-60.667 6.667-116.168 20-166.501s33.666-91.5 60.999-123.5h6l332 674c-19.333 10.667-40.166 19-62.499 25s-45.833 9-70.5 9c-94 0-165.167-37.667-213.5-113S294 664.33 294 550.997v-22zm575 21.999c0 53.333-5.833 103.499-17.5 150.499s-28.167 86.167-49.5 117.5h-6l-327-663c16-8 33.333-13.833 52-17.5s39-5.5 61-5.5c94 0 165.333 37.333 214 112s73 169.334 73 284.001v22z"/><glyph glyph-name="ugrave" unicode="ù" d="M830 160c-34-58-77.667-102.667-131-134S584-21 514-21C396-21 304 16.667 238 92s-99 192.666-99 351.999v638h197v-640c0-115.333 17-194.666 51-237.999s87-65 159-65c70 0 127.833 14.167 173.5 42.5S799.667 250 823 302v780h197V0H843zM663 1258H505l-250 260 3 6h230z"/><glyph glyph-name="uacute" unicode="ú" d="M830 160c-34-58-77.667-102.667-131-134S584-21 514-21C396-21 304 16.667 238 92s-99 192.666-99 351.999v638h197v-640c0-115.333 17-194.666 51-237.999s87-65 159-65c70 0 127.833 14.167 173.5 42.5S799.667 250 823 302v780h197V0H843zM675 1520h230l2-6-269-260H490z"/><glyph glyph-name="ucircumflex" unicode="û" d="M830 160c-34-58-77.667-102.667-131-134S584-21 514-21C396-21 304 16.667 238 92s-99 192.666-99 351.999v638h197v-640c0-115.333 17-194.666 51-237.999s87-65 159-65c70 0 127.833 14.167 173.5 42.5S799.667 250 823 302v780h197V0H843zm58 1123v-25H727l-147 148-146-148H274v26l246 237h120z"/><glyph glyph-name="udieresis" unicode="ü" d="M830 160c-34-58-77.667-102.667-131-134S584-21 514-21C396-21 304 16.667 238 92s-99 192.666-99 351.999v638h197v-640c0-115.333 17-194.666 51-237.999s87-65 159-65c70 0 127.833 14.167 173.5 42.5S799.667 250 823 302v780h197V0H843zm95 1102H706v200h219v-200zm-470 0H236v200h219v-200z"/><glyph glyph-name="yacute" unicode="ý" horiz-adv-x="1030" d="M474 401l35-135.999h6l266 817h219l-455-1248c-27.333-72.667-66.5-136-117.5-190s-119.833-81-206.5-81c-16 0-36.333 1.833-61 5.5s-43.667 7.167-57 10.5l20 155c-4 .667 7.833 0 35.5-2s45.167-3 52.5-3c42 0 76.333 18.667 103 56S363-136.333 381-91l47 113L26 1082h220zm135 1119h230l2-6-269-260H424z"/><glyph glyph-name="thorn" unicode="þ" horiz-adv-x="1186" d="M1075 500c0-156-37.334-281.833-112.001-377.5S785.332-21 653.999-21c-66.667 0-125.167 11.167-175.5 33.5S385.333 68.333 350 113v-529H153v1976h197V962c35.333 45.333 78 80 128 104s107.667 36 173 36c134 0 238.167-53.167 312.5-159.5S1075 695.667 1075 521v-21zm-197.001 21c0 122.667-24.167 223.501-72.5 302.501s-119.5 118.5-213.5 118.5c-56.667 0-105-12.833-145-38.5s-72.333-60.834-97-105.501V275c24.667-44.667 57-79.5 97-104.5s89-37.5 147-37.5c93.333 0 164 34.167 212 102.5s72 156.5 72 264.5v21z"/><glyph glyph-name="ydieresis" unicode="ÿ" horiz-adv-x="1030" d="M474 401l35-135.999h6l266 817h219l-455-1248c-27.333-72.667-66.5-136-117.5-190s-119.833-81-206.5-81c-16 0-36.333 1.833-61 5.5s-43.667 7.167-57 10.5l20 155c-4 .667 7.833 0 35.5-2s45.167-3 52.5-3c42 0 76.333 18.667 103 56S363-136.333 381-91l47 113L26 1082h220zm385 861H640v200h219v-200zm-470 0H170v200h219v-200z"/><glyph glyph-name="Amacron" unicode="Ā" horiz-adv-x="1295" d="M922 375H374L244 0H43l525 1456h169L1251 0h-201zM431 540h435l-212 625h-6zm583 1100H293v146h721v-146z"/><glyph glyph-name="amacron" unicode="ā" horiz-adv-x="1126" d="M808 0c-6.667 32.667-11.831 61.5-15.498 86.5s-5.834 50.167-6.501 75.5c-36.667-52-84.5-95.5-143.5-130.5S520.001-21 452.001-21c-112.667 0-198.5 28.833-257.5 86.5s-88.5 137.167-88.5 238.5c0 103.333 41.833 184.166 125.5 242.499s197.167 87.5 340.5 87.5h214v107c0 63.333-19.333 113.5-58 150.5s-93.334 55.5-164.001 55.5c-64 0-115.667-16-155-48s-59-70.333-59-115l-187-2-2 6c-4.667 78.667 32.166 150.667 110.499 216s179.5 98 303.5 98c122.667 0 221.334-31.167 296.001-93.5S983 856.333 983 739V218c0-38.667 2-76 6-112s11.333-71.333 22-106H808zM481.003 144c71.333 0 135.668 18.333 193.001 55s94.666 78.667 111.999 126v176h-221c-79.333 0-142.833-20-190.5-60s-71.5-87-71.5-141c0-48 15-86 45-114s74.333-42 133-42zm440.002 1174h-721v146h721v-146z"/><glyph glyph-name="Abreve" unicode="Ă" horiz-adv-x="1295" d="M922 375H374L244 0H43l525 1456h169L1251 0h-201zM431 540h435l-212 625h-6zm511 1330l2-6c2.667-77.333-23-140.333-77-189s-126.667-73-218-73c-92 0-165 24.333-219 73s-79.333 111.667-76 189l2 6h151c0-44 11.333-79.667 34-107s58.667-41 108-41c48 0 83.667 13.833 107 41.5s35 63.167 35 106.5h151z"/><glyph glyph-name="abreve" unicode="ă" horiz-adv-x="1126" d="M808 0c-6.667 32.667-11.831 61.5-15.498 86.5s-5.834 50.167-6.501 75.5c-36.667-52-84.5-95.5-143.5-130.5S520.001-21 452.001-21c-112.667 0-198.5 28.833-257.5 86.5s-88.5 137.167-88.5 238.5c0 103.333 41.833 184.166 125.5 242.499s197.167 87.5 340.5 87.5h214v107c0 63.333-19.333 113.5-58 150.5s-93.334 55.5-164.001 55.5c-64 0-115.667-16-155-48s-59-70.333-59-115l-187-2-2 6c-4.667 78.667 32.166 150.667 110.499 216s179.5 98 303.5 98c122.667 0 221.334-31.167 296.001-93.5S983 856.333 983 739V218c0-38.667 2-76 6-112s11.333-71.333 22-106H808zM481.003 144c71.333 0 135.668 18.333 193.001 55s94.666 78.667 111.999 126v176h-221c-79.333 0-142.833-20-190.5-60s-71.5-87-71.5-141c0-48 15-86 45-114s74.333-42 133-42zm368.002 1404l2-6c2.667-77.333-23-140.333-77-189s-126.667-73-218-73c-92 0-165 24.333-219 73s-79.333 111.667-76 189l2 6h151c0-44 11.333-79.667 34-107s58.667-41 108-41c48 0 83.667 13.833 107 41.5s35 63.167 35 106.5h151z"/><glyph glyph-name="Aogonek" unicode="Ą" horiz-adv-x="1295" d="M922 375H374L244 0H43l525 1456h169L1251 0h-201zM431 540h435l-212 625h-6zM1227 0c-46.667-34.667-83.167-67.833-109.5-99.5S1078-165 1078-201c0-28 7.5-50 22.5-66s39.5-24 73.5-24c18 0 34.667 2.5 50 7.5s31.666 11.167 48.999 18.5l33-123c-24-12.667-50.5-23.167-79.5-31.5s-63.5-12.5-103.5-12.5c-63.333 0-115.166 18.333-155.499 55S907-289 907-223c0 53.333 20.167 104 60.5 152S1070.333 19.667 1155 57z"/><glyph glyph-name="aogonek" unicode="ą" horiz-adv-x="1126" d="M808 0c-6.667 32.667-11.831 61.5-15.498 86.5s-5.834 50.167-6.501 75.5c-36.667-52-84.5-95.5-143.5-130.5S520.001-21 452.001-21c-112.667 0-198.5 28.833-257.5 86.5s-88.5 137.167-88.5 238.5c0 103.333 41.833 184.166 125.5 242.499s197.167 87.5 340.5 87.5h214v107c0 63.333-19.333 113.5-58 150.5s-93.334 55.5-164.001 55.5c-64 0-115.667-16-155-48s-59-70.333-59-115l-187-2-2 6c-4.667 78.667 32.166 150.667 110.499 216s179.5 98 303.5 98c122.667 0 221.334-31.167 296.001-93.5S983 856.333 983 739V218c0-38.667 2-76 6-112s11.333-71.333 22-106H808zM481.003 144c71.333 0 135.668 18.333 193.001 55s94.666 78.667 111.999 126v176h-221c-79.333 0-142.833-20-190.5-60s-71.5-87-71.5-141c0-48 15-86 45-114s74.333-42 133-42zM987.005 0c-46.667-34.667-83.167-67.833-109.5-99.5s-39.5-65.5-39.5-101.5c0-28 7.5-50 22.5-66s39.5-24 73.5-24c18 0 34.667 2.5 50 7.5s31.666 11.167 48.999 18.5l33-123c-24-12.667-50.5-23.167-79.5-31.5s-63.5-12.5-103.5-12.5c-63.333 0-115.166 18.333-155.499 55s-60.5 88-60.5 154c0 53.333 20.167 104 60.5 152s102.833 90.667 187.5 128z"/><glyph glyph-name="Cacute" unicode="Ć" horiz-adv-x="1297" d="M1209 466l2.001-5.998c2.667-136.667-45.333-251-144-343s-229-138-391-138c-164.667 0-298.834 58.333-402.501 175S118 418.669 118 598.002v259c0 179.333 51.833 327.5 155.5 444.5s237.834 175.5 402.501 175.5 295.667-43.833 393-131.5S1213.667 1141.668 1211 997.001l-2-6h-189c0 102-30 182.667-90 242s-144.667 89-254 89c-110 0-197.667-44.333-263-133s-98-198.667-98-330v-261c0-132.667 32.667-243.334 98-332.001s153-133 263-133c109.333 0 194 29.5 254 88.5s90 140.5 90 244.5h189zM773.001 1884h230l2-6-269-260h-148z"/><glyph glyph-name="cacute" unicode="ć" horiz-adv-x="1072" d="M573 133c60.667 0 113.667 20.167 159 60.5s68 89.833 68 148.5h178l3-6c2.667-93.333-37.333-176.166-120-248.499s-178.667-108.5-288-108.5c-152 0-269.333 51.667-352 155s-124 232-124 386v42c0 152.667 41.5 280.834 124.5 384.501s200.167 155.5 351.5 155.5c120.667 0 219.5-37.333 296.5-112S983.667 823.668 981 715.001l-2-6H800c0 66-21.5 122.167-64.5 168.5s-97.167 69.5-162.5 69.5c-96.667 0-167.167-37.5-211.5-112.5S295 668.668 295 562.001v-42c0-108.667 21.833-200.334 65.5-275.001S475 133 573 133zm69 1408h230l2-6-269-260H457z"/><glyph glyph-name="Ccircumflex" unicode="Ĉ" horiz-adv-x="1297" d="M1209 466l2.001-5.998c2.667-136.667-45.333-251-144-343s-229-138-391-138c-164.667 0-298.834 58.333-402.501 175S118 418.669 118 598.002v259c0 179.333 51.833 327.5 155.5 444.5s237.834 175.5 402.501 175.5 295.667-43.833 393-131.5S1213.667 1141.668 1211 997.001l-2-6h-189c0 102-30 182.667-90 242s-144.667 89-254 89c-110 0-197.667-44.333-263-133s-98-198.667-98-330v-261c0-132.667 32.667-243.334 98-332.001s153-133 263-133c109.333 0 194 29.5 254 88.5s90 140.5 90 244.5h189zM986.001 1647v-25h-161l-147 148-146-148h-160v26l246 237h120z"/><glyph glyph-name="ccircumflex" unicode="ĉ" horiz-adv-x="1072" d="M573 133c60.667 0 113.667 20.167 159 60.5s68 89.833 68 148.5h178l3-6c2.667-93.333-37.333-176.166-120-248.499s-178.667-108.5-288-108.5c-152 0-269.333 51.667-352 155s-124 232-124 386v42c0 152.667 41.5 280.834 124.5 384.501s200.167 155.5 351.5 155.5c120.667 0 219.5-37.333 296.5-112S983.667 823.668 981 715.001l-2-6H800c0 66-21.5 122.167-64.5 168.5s-97.167 69.5-162.5 69.5c-96.667 0-167.167-37.5-211.5-112.5S295 668.668 295 562.001v-42c0-108.667 21.833-200.334 65.5-275.001S475 133 573 133zm282 1171v-25H694l-147 148-146-148H241v26l246 237h120z"/><glyph glyph-name="uni010A" unicode="Ċ" horiz-adv-x="1297" d="M1209 466l2.001-5.998c2.667-136.667-45.333-251-144-343s-229-138-391-138c-164.667 0-298.834 58.333-402.501 175S118 418.669 118 598.002v259c0 179.333 51.833 327.5 155.5 444.5s237.834 175.5 402.501 175.5 295.667-43.833 393-131.5S1213.667 1141.668 1211 997.001l-2-6h-189c0 102-30 182.667-90 242s-144.667 89-254 89c-110 0-197.667-44.333-263-133s-98-198.667-98-330v-261c0-132.667 32.667-243.334 98-332.001s153-133 263-133c109.333 0 194 29.5 254 88.5s90 140.5 90 244.5h189zM787.001 1625h-218v201h218v-201z"/><glyph glyph-name="uni010B" unicode="ċ" horiz-adv-x="1072" d="M573 133c60.667 0 113.667 20.167 159 60.5s68 89.833 68 148.5h178l3-6c2.667-93.333-37.333-176.166-120-248.499s-178.667-108.5-288-108.5c-152 0-269.333 51.667-352 155s-124 232-124 386v42c0 152.667 41.5 280.834 124.5 384.501s200.167 155.5 351.5 155.5c120.667 0 219.5-37.333 296.5-112S983.667 823.668 981 715.001l-2-6H800c0 66-21.5 122.167-64.5 168.5s-97.167 69.5-162.5 69.5c-96.667 0-167.167-37.5-211.5-112.5S295 668.668 295 562.001v-42c0-108.667 21.833-200.334 65.5-275.001S475 133 573 133zm83 1149H438v201h218v-201z"/><glyph glyph-name="Ccaron" unicode="Č" horiz-adv-x="1297" d="M1209 466l2.001-5.998c2.667-136.667-45.333-251-144-343s-229-138-391-138c-164.667 0-298.834 58.333-402.501 175S118 418.669 118 598.002v259c0 179.333 51.833 327.5 155.5 444.5s237.834 175.5 402.501 175.5 295.667-43.833 393-131.5S1213.667 1141.668 1211 997.001l-2-6h-189c0 102-30 182.667-90 242s-144.667 89-254 89c-110 0-197.667-44.333-263-133s-98-198.667-98-330v-261c0-132.667 32.667-243.334 98-332.001s153-133 263-133c109.333 0 194 29.5 254 88.5s90 140.5 90 244.5h189zM677.001 1738l147 148h170v-18l-257-245h-119l-254 243v20h166z"/><glyph glyph-name="ccaron" unicode="č" horiz-adv-x="1072" d="M573 133c60.667 0 113.667 20.167 159 60.5s68 89.833 68 148.5h178l3-6c2.667-93.333-37.333-176.166-120-248.499s-178.667-108.5-288-108.5c-152 0-269.333 51.667-352 155s-124 232-124 386v42c0 152.667 41.5 280.834 124.5 384.501s200.167 155.5 351.5 155.5c120.667 0 219.5-37.333 296.5-112S983.667 823.668 981 715.001l-2-6H800c0 66-21.5 122.167-64.5 168.5s-97.167 69.5-162.5 69.5c-96.667 0-167.167-37.5-211.5-112.5S295 668.668 295 562.001v-42c0-108.667 21.833-200.334 65.5-275.001S475 133 573 133zm-27 1262l147 148h170v-18l-257-245H487l-254 243v20h166z"/><glyph glyph-name="Dcaron" unicode="Ď" horiz-adv-x="1387" d="M170 0v1456h458c190 0 342.833-58.5 458.5-175.5S1260 1012.333 1260 827V628c0-186-57.833-337.167-173.5-453.5S818 0 628 0H170zm197 1301V154h261c134.667 0 240.834 44.333 318.501 133s116.5 202.334 116.5 341.001v201c0 137.333-38.833 250.333-116.5 339s-183.834 133-318.501 133H367zm243 416l147 148h170v-18l-257-245H551l-254 243v20h166z"/><glyph glyph-name="dcaron" unicode="ď" d="M98 521c0 174 37.167 314.333 111.5 421S388 1102 522 1102c63.333 0 119.5-11.667 168.5-35s90.833-57.333 125.5-102v595h197V0H862l-30 137c-35.333-52-79-91.333-131-118S588.667-21 520-21c-132 0-235.333 47.833-310 143.5S98 344 98 500v21zm197-21c0-109.333 22.332-196.833 66.999-262.5s114-98.5 208-98.5c58.667 0 108 13.333 148 40s72.667 64 98 112v505c-25.333 44.667-58.166 80.167-98.499 106.5S628.667 942 572 942c-94.667 0-164.5-39-209.5-117S295 645.667 295 521v-21zm1014 920l-122-237h-97l61 246v131h158v-140z"/><glyph glyph-name="Dcroat" unicode="Đ" horiz-adv-x="1387" d="M170 0v663H2v155h168v638h458c190 0 342.833-58.5 458.5-175.5S1260 1012.333 1260 827V628c0-186-57.833-337.167-173.5-453.5S818 0 628 0H170zm473 663l-276-.001v-509h261c134.667 0 240.834 44.333 318.501 133s116.5 202.334 116.5 341.001v201c0 137.333-38.833 250.333-116.5 339S762.667 1301 628 1301H367V818h276V663z"/><glyph glyph-name="dcroat" unicode="đ" d="M1210 1231h-197V0H862l-30 137c-35.333-52-79-91.333-131-118S588.667-21 520-21c-132 0-235.333 47.833-310 143.5S98 344 98 500v21c0 174 37.167 314.333 111.5 421S388 1102 522 1102c63.333 0 119.5-11.667 168.5-35s90.833-57.333 125.5-102v266H569v155h247v174h197v-174h197v-155zM295 500c0-109.333 22.332-196.833 66.999-262.5s114-98.5 208-98.5c58.667 0 108 13.333 148 40s72.667 64 98 112v505c-25.333 44.667-58.166 80.167-98.499 106.5S628.667 942 572 942c-94.667 0-164.5-39-209.5-117S295 645.667 295 521v-21z"/><glyph glyph-name="Emacron" unicode="Ē" horiz-adv-x="1130" d="M965 675H367V154h700V0H170v1456h886v-155H367V830h598V675zm20 965H264v146h721v-146z"/><glyph glyph-name="emacron" unicode="ē" horiz-adv-x="1072" d="M591-21c-155.333 0-276.501 49.668-363.501 149.001s-130.5 230-130.5 392v44c0 155.333 44.833 283.833 134.5 385.5s199.167 152.5 328.5 152.5c144.667 0 253.167-45 325.5-135s108.5-209.667 108.5-359v-104h-692l-3-5c0-108.667 24-196.834 72-264.501s121.333-101.5 220-101.5c66.667 0 125.167 9.5 175.5 28.5s93.5 45.167 129.5 78.5l77-128c-38.667-37.333-89.667-68.833-153-94.5S680.333-21 591-21zm-31.001 968.001c-68.667 0-125.499-26.5-170.499-79.5S317 746.668 307 664.001l2-5h488v16c0 78.667-19.333 143.667-58 195s-98.334 77-179.001 77zM905 1319H184v146h721v-146z"/><glyph glyph-name="Ebreve" unicode="Ĕ" horiz-adv-x="1130" d="M965 675H367V154h700V0H170v1456h886v-155H367V830h598V675zm-52 1195l2-6c2.667-77.333-23-140.333-77-189s-126.667-73-218-73c-92 0-165 24.333-219 73s-79.333 111.667-76 189l2 6h151c0-44 11.333-79.667 34-107s58.667-41 108-41c48 0 83.667 13.833 107 41.5s35 63.167 35 106.5h151z"/><glyph glyph-name="ebreve" unicode="ĕ" horiz-adv-x="1072" d="M591-21c-155.333 0-276.501 49.668-363.501 149.001s-130.5 230-130.5 392v44c0 155.333 44.833 283.833 134.5 385.5s199.167 152.5 328.5 152.5c144.667 0 253.167-45 325.5-135s108.5-209.667 108.5-359v-104h-692l-3-5c0-108.667 24-196.834 72-264.501s121.333-101.5 220-101.5c66.667 0 125.167 9.5 175.5 28.5s93.5 45.167 129.5 78.5l77-128c-38.667-37.333-89.667-68.833-153-94.5S680.333-21 591-21zm-31.001 968.001c-68.667 0-125.499-26.5-170.499-79.5S317 746.668 307 664.001l2-5h488v16c0 78.667-19.333 143.667-58 195s-98.334 77-179.001 77zM833 1549l2-6c2.667-77.333-23-140.333-77-189s-126.667-73-218-73c-92 0-165 24.333-219 73s-79.333 111.667-76 189l2 6h151c0-44 11.333-79.667 34-107s58.667-41 108-41c48 0 83.667 13.833 107 41.5s35 63.167 35 106.5h151z"/><glyph glyph-name="Edotaccent" unicode="Ė" horiz-adv-x="1130" d="M965 675H367V154h700V0H170v1456h886v-155H367V830h598V675zm-237 929H510v201h218v-201z"/><glyph glyph-name="edotaccent" unicode="ė" horiz-adv-x="1072" d="M591-21c-155.333 0-276.501 49.668-363.501 149.001s-130.5 230-130.5 392v44c0 155.333 44.833 283.833 134.5 385.5s199.167 152.5 328.5 152.5c144.667 0 253.167-45 325.5-135s108.5-209.667 108.5-359v-104h-692l-3-5c0-108.667 24-196.834 72-264.501s121.333-101.5 220-101.5c66.667 0 125.167 9.5 175.5 28.5s93.5 45.167 129.5 78.5l77-128c-38.667-37.333-89.667-68.833-153-94.5S680.333-21 591-21zm-31.001 968.001c-68.667 0-125.499-26.5-170.499-79.5S317 746.668 307 664.001l2-5h488v16c0 78.667-19.333 143.667-58 195s-98.334 77-179.001 77zM648 1283H430v201h218v-201z"/><glyph glyph-name="Eogonek" unicode="Ę" horiz-adv-x="1130" d="M965 675H367V154h700V0H170v1456h886v-155H367V830h598V675zM685 0c-46.667-34.667-83.167-67.833-109.5-99.5S536-165 536-201c0-28 7.5-50 22.5-66s39.5-24 73.5-24c18 0 34.667 2.5 50 7.5s31.666 11.167 48.999 18.5l33-123c-24-12.667-50.5-23.167-79.5-31.5s-63.5-12.5-103.5-12.5c-63.333 0-115.166 18.333-155.499 55S365-289 365-223c0 53.333 20.167 104 60.5 152S528.333 19.667 613 57z"/><glyph glyph-name="eogonek" unicode="ę" horiz-adv-x="1072" d="M591-21c-155.333 0-276.501 49.668-363.501 149.001s-130.5 230-130.5 392v44c0 155.333 44.833 283.833 134.5 385.5s199.167 152.5 328.5 152.5c144.667 0 253.167-45 325.5-135s108.5-209.667 108.5-359v-104h-692l-3-5c0-108.667 24-196.834 72-264.501s121.333-101.5 220-101.5c66.667 0 125.167 9.5 175.5 28.5s93.5 45.167 129.5 78.5l77-128c-38.667-37.333-89.667-68.833-153-94.5S680.333-21 591-21zm-31.001 968.001c-68.667 0-125.499-26.5-170.499-79.5S317 746.668 307 664.001l2-5h488v16c0 78.667-19.333 143.667-58 195s-98.334 77-179.001 77zM884 60.001c-46.667-34.667-83.167-67.833-109.5-99.5s-39.5-65.5-39.5-101.5c0-28 7.5-50 22.5-66s39.5-24 73.5-24c18 0 34.667 2.5 50 7.5s31.666 11.167 48.999 18.5l33-123c-24-12.667-50.5-23.167-79.5-31.5s-63.5-12.5-103.5-12.5c-63.333 0-115.166 18.333-155.499 55s-60.5 88-60.5 154c0 53.333 20.167 104 60.5 152s102.833 90.667 187.5 128z"/><glyph glyph-name="Ecaron" unicode="Ě" horiz-adv-x="1130" d="M965 675H367V154h700V0H170v1456h886v-155H367V830h598V675zM618 1717l147 148h170v-18l-257-245H559l-254 243v20h166z"/><glyph glyph-name="ecaron" unicode="ě" horiz-adv-x="1072" d="M591-21c-155.333 0-276.501 49.668-363.501 149.001s-130.5 230-130.5 392v44c0 155.333 44.833 283.833 134.5 385.5s199.167 152.5 328.5 152.5c144.667 0 253.167-45 325.5-135s108.5-209.667 108.5-359v-104h-692l-3-5c0-108.667 24-196.834 72-264.501s121.333-101.5 220-101.5c66.667 0 125.167 9.5 175.5 28.5s93.5 45.167 129.5 78.5l77-128c-38.667-37.333-89.667-68.833-153-94.5S680.333-21 591-21zm-31.001 968.001c-68.667 0-125.499-26.5-170.499-79.5S317 746.668 307 664.001l2-5h488v16c0 78.667-19.333 143.667-58 195s-98.334 77-179.001 77zM538 1396l147 148h170v-18l-257-245H479l-254 243v20h166z"/><glyph glyph-name="Gcircumflex" unicode="Ĝ" horiz-adv-x="1387" d="M1217 196c-34.667-54-94.833-103.668-180.5-149.001s-196.834-68-333.501-68c-168 0-307 55.667-417 167s-165 255.333-165 432v300c0 176.667 53 320.667 159 432s242.667 167 410 167c162 0 290-43.167 384-129.5s139.667-196.166 137-329.499l-2-6h-189c0 88.667-28.667 162.5-86 221.5S795.333 1322 690 1322c-111.333 0-201-41.667-269-125s-102-189-102-317V578c0-129.333 36-235.833 108-319.5S591 133 703 133c86 0 154.167 11.167 204.5 33.5s87.833 48.833 112.5 79.5v328H690v154h527V196zM977.001 1647v-25h-161l-147 148-146-148h-160v26l246 237h120z"/><glyph glyph-name="gcircumflex" unicode="ĝ" d="M108 521c0 174 37.167 314.332 111.5 420.999s178.166 160 311.499 160c68.667 0 129-13.833 181-41.5s95.667-67.5 131-119.5l24 141h157v-1088c0-138.667-40.333-245.167-121-319.5s-197-111.5-349-111.5c-52 0-108.167 7.167-168.5 21.5s-113.5 33.833-159.5 58.5l30 153c38-20 83.833-36.167 137.5-48.5s106.5-18.5 158.5-18.5c96 0 165.833 21.833 209.5 65.5s65.5 110.167 65.5 199.5v123C791.666 71.666 749.333 37.333 700 14S593.667-21 529-21c-132 0-235.167 47.833-309.5 143.5S108 344 108 500v21zm197-21.001c0-108.667 22.333-196 67-262s113.667-99 207-99c59.333 0 109 13.5 149 40.5s73 65.167 99 114.5v498c-25.333 46-58.333 82.5-99 109.5s-89.667 40.5-147 40.5c-94 0-163.5-39-208.5-117s-67.5-179.333-67.5-304v-21zM875 1304v-25H714l-147 148-146-148H261v26l246 237h120z"/><glyph glyph-name="Gbreve" unicode="Ğ" horiz-adv-x="1387" d="M1217 196c-34.667-54-94.833-103.668-180.5-149.001s-196.834-68-333.501-68c-168 0-307 55.667-417 167s-165 255.333-165 432v300c0 176.667 53 320.667 159 432s242.667 167 410 167c162 0 290-43.167 384-129.5s139.667-196.166 137-329.499l-2-6h-189c0 88.667-28.667 162.5-86 221.5S795.333 1322 690 1322c-111.333 0-201-41.667-269-125s-102-189-102-317V578c0-129.333 36-235.833 108-319.5S591 133 703 133c86 0 154.167 11.167 204.5 33.5s87.833 48.833 112.5 79.5v328H690v154h527V196zM963.001 1891l2-6c2.667-77.333-23-140.333-77-189s-126.667-73-218-73c-92 0-165 24.333-219 73s-79.333 111.667-76 189l2 6h151c0-44 11.333-79.667 34-107s58.667-41 108-41c48 0 83.667 13.833 107 41.5s35 63.167 35 106.5h151z"/><glyph glyph-name="gbreve" unicode="ğ" d="M108 521c0 174 37.167 314.332 111.5 420.999s178.166 160 311.499 160c68.667 0 129-13.833 181-41.5s95.667-67.5 131-119.5l24 141h157v-1088c0-138.667-40.333-245.167-121-319.5s-197-111.5-349-111.5c-52 0-108.167 7.167-168.5 21.5s-113.5 33.833-159.5 58.5l30 153c38-20 83.833-36.167 137.5-48.5s106.5-18.5 158.5-18.5c96 0 165.833 21.833 209.5 65.5s65.5 110.167 65.5 199.5v123C791.666 71.666 749.333 37.333 700 14S593.667-21 529-21c-132 0-235.167 47.833-309.5 143.5S108 344 108 500v21zm197-21.001c0-108.667 22.333-196 67-262s113.667-99 207-99c59.333 0 109 13.5 149 40.5s73 65.167 99 114.5v498c-25.333 46-58.333 82.5-99 109.5s-89.667 40.5-147 40.5c-94 0-163.5-39-208.5-117s-67.5-179.333-67.5-304v-21zM861 1548l2-6c2.667-77.333-23-140.333-77-189s-126.667-73-218-73c-92 0-165 24.333-219 73s-79.333 111.667-76 189l2 6h151c0-44 11.333-79.667 34-107s58.667-41 108-41c48 0 83.667 13.833 107 41.5s35 63.167 35 106.5h151z"/><glyph glyph-name="uni0120" unicode="Ġ" horiz-adv-x="1387" d="M1217 196c-34.667-54-94.833-103.668-180.5-149.001s-196.834-68-333.501-68c-168 0-307 55.667-417 167s-165 255.333-165 432v300c0 176.667 53 320.667 159 432s242.667 167 410 167c162 0 290-43.167 384-129.5s139.667-196.166 137-329.499l-2-6h-189c0 88.667-28.667 162.5-86 221.5S795.333 1322 690 1322c-111.333 0-201-41.667-269-125s-102-189-102-317V578c0-129.333 36-235.833 108-319.5S591 133 703 133c86 0 154.167 11.167 204.5 33.5s87.833 48.833 112.5 79.5v328H690v154h527V196zM778.001 1625h-218v201h218v-201z"/><glyph glyph-name="uni0121" unicode="ġ" d="M108 521c0 174 37.167 314.332 111.5 420.999s178.166 160 311.499 160c68.667 0 129-13.833 181-41.5s95.667-67.5 131-119.5l24 141h157v-1088c0-138.667-40.333-245.167-121-319.5s-197-111.5-349-111.5c-52 0-108.167 7.167-168.5 21.5s-113.5 33.833-159.5 58.5l30 153c38-20 83.833-36.167 137.5-48.5s106.5-18.5 158.5-18.5c96 0 165.833 21.833 209.5 65.5s65.5 110.167 65.5 199.5v123C791.666 71.666 749.333 37.333 700 14S593.667-21 529-21c-132 0-235.167 47.833-309.5 143.5S108 344 108 500v21zm197-21.001c0-108.667 22.333-196 67-262s113.667-99 207-99c59.333 0 109 13.5 149 40.5s73 65.167 99 114.5v498c-25.333 46-58.333 82.5-99 109.5s-89.667 40.5-147 40.5c-94 0-163.5-39-208.5-117s-67.5-179.333-67.5-304v-21zM676 1282H458v201h218v-201z"/><glyph glyph-name="Gcommaaccent" unicode="Ģ" horiz-adv-x="1387" d="M1217 196c-34.667-54-94.833-103.668-180.5-149.001s-196.834-68-333.501-68c-168 0-307 55.667-417 167s-165 255.333-165 432v300c0 176.667 53 320.667 159 432s242.667 167 410 167c162 0 290-43.167 384-129.5s139.667-196.166 137-329.499l-2-6h-189c0 88.667-28.667 162.5-86 221.5S795.333 1322 690 1322c-111.333 0-201-41.667-269-125s-102-189-102-317V578c0-129.333 36-235.833 108-319.5S591 133 703 133c86 0 154.167 11.167 204.5 33.5s87.833 48.833 112.5 79.5v328H690v154h527V196zM741.001-258.001l-122-237h-97l61 246v131h158v-140z"/><glyph glyph-name="gcommaaccent" unicode="ģ" d="M108 521c0 174 37.167 314.332 111.5 420.999s178.166 160 311.499 160c68.667 0 129-13.833 181-41.5s95.667-67.5 131-119.5l24 141h157v-1088c0-138.667-40.333-245.167-121-319.5s-197-111.5-349-111.5c-52 0-108.167 7.167-168.5 21.5s-113.5 33.833-159.5 58.5l30 153c38-20 83.833-36.167 137.5-48.5s106.5-18.5 158.5-18.5c96 0 165.833 21.833 209.5 65.5s65.5 110.167 65.5 199.5v123C791.666 71.666 749.333 37.333 700 14S593.667-21 529-21c-132 0-235.167 47.833-309.5 143.5S108 344 108 500v21zm197-21.001c0-108.667 22.333-196 67-262s113.667-99 207-99c59.333 0 109 13.5 149 40.5s73 65.167 99 114.5v498c-25.333 46-58.333 82.5-99 109.5s-89.667 40.5-147 40.5c-94 0-163.5-39-208.5-117s-67.5-179.333-67.5-304v-21zM462 1401l121 247h97l-21-257v-138H462v148z"/><glyph glyph-name="Hcircumflex" unicode="Ĥ" horiz-adv-x="1441" d="M1271 0h-197v643H367V0H170v1456h197V798h707v658h197V0zm-251 1626v-25H859l-147 148-146-148H406v26l246 237h120z"/><glyph glyph-name="hcircumflex" unicode="ĥ" d="M340 937c37.333 52 83.168 92.5 137.501 121.5s114.5 43.5 180.5 43.5c115.333 0 205.166-34.667 269.499-104s96.5-176 96.5-320V0H827v680c0 89.333-19.167 155.333-57.5 198S674 942 598 942c-58.667 0-109.667-11.5-153-34.5s-78.333-55.167-105-96.5V0H143v1560h197V937zm477.002 688v-25h-161l-147 148-146-148h-160v26l246 237h120z"/><glyph glyph-name="Hbar" unicode="Ħ" horiz-adv-x="1439" d="M1279 1169h144v-145h-144V0h-197v643H375V0H178v1024H31v145h147v287h197v-287h707v287h197v-287zM375 798h707v226H375V798z"/><glyph glyph-name="hbar" unicode="ħ" d="M613 1231H340.002V937c37.333 52 83.166 92.5 137.499 121.5s114.5 43.5 180.5 43.5c115.333 0 205.166-34.667 269.499-104s96.5-176 96.5-320V0H827v680c0 89.333-19.167 155.333-57.5 198S674 942 598 942c-58.667 0-109.667-11.5-153-34.5s-78.333-55.167-105-96.5V0H143v1231H-28v155h171v174h197v-174h273v-155z"/><glyph glyph-name="Itilde" unicode="Ĩ" horiz-adv-x="579" d="M388 0H190v1456h198V0zm249 1844c0-62.667-19.834-115.666-59.501-158.999s-89.5-65-149.5-65c-47.333 0-96.666 15.5-147.999 46.5s-94 46.5-128 46.5c-28.667 0-52.667-10.833-72-32.5S51 1632.667 51 1602l-108 26c0 62 19.667 115.833 59 161.5s89.333 68.5 150 68.5c37.333 0 84-15.667 140-47s101.333-47 136-47c27.333 0 51 10.833 71 32.5s30 48.167 30 79.5z"/><glyph glyph-name="itilde" unicode="ĩ" horiz-adv-x="515" d="M350 0H153v1082h197V0zm250 1501c0-62.667-19.834-115.666-59.501-158.999s-89.5-65-149.5-65c-47.333 0-96.666 15.5-147.999 46.5s-94 46.5-128 46.5c-28.667 0-52.667-10.833-72-32.5S14 1289.667 14 1259l-108 26c0 62 19.667 115.833 59 161.5s89.333 68.5 150 68.5c37.333 0 84-15.667 140-47s101.333-47 136-47c27.333 0 51 10.833 71 32.5s30 48.167 30 79.5z"/><glyph glyph-name="Imacron" unicode="Ī" horiz-adv-x="579" d="M388 0H190v1456h198V0zm268 1640H-65v146h721v-146z"/><glyph glyph-name="imacron" unicode="ī" horiz-adv-x="515" d="M350 0H153v1082h197V0zm269 1298h-721v146h721v-146z"/><glyph glyph-name="Ibreve" unicode="Ĭ" horiz-adv-x="579" d="M388 0H190v1456h198V0zm196 1870l2-6c2.667-77.333-23-140.333-77-189s-126.667-73-218-73c-92 0-165 24.333-219 73s-79.333 111.667-76 189l2 6h151c0-44 11.333-79.667 34-107s58.667-41 108-41c48 0 83.667 13.833 107 41.5s35 63.167 35 106.5h151z"/><glyph glyph-name="ibreve" unicode="ĭ" horiz-adv-x="515" d="M350 0H153v1082h197V0zm197 1527l2-6c2.667-77.333-23-140.333-77-189s-126.667-73-218-73c-92 0-165 24.333-219 73s-79.333 111.667-76 189l2 6h151c0-44 11.333-79.667 34-107s58.667-41 108-41c48 0 83.667 13.833 107 41.5s35 63.167 35 106.5h151z"/><glyph glyph-name="Iogonek" unicode="Į" horiz-adv-x="579" d="M388 0H190v1456h198V0zm-23 0c-46.667-34.667-83.167-67.833-109.5-99.5S216-165 216-201c0-28 7.5-50 22.5-66s39.5-24 73.5-24c18 0 34.667 2.5 50 7.5s31.666 11.167 48.999 18.5l33-123c-24-12.667-50.5-23.167-79.5-31.5s-63.5-12.5-103.5-12.5c-63.333 0-115.166 18.333-155.499 55S45-289 45-223c0 53.333 20.167 104 60.5 152S208.333 19.667 293 57z"/><glyph glyph-name="iogonek" unicode="į" horiz-adv-x="516" d="M356 0H159v1082h197V0zm0 1359H159v201h197v-201zM333 0c-46.667-34.667-83.167-67.833-109.5-99.5S184-165 184-201c0-28 7.5-50 22.5-66s39.5-24 73.5-24c18 0 34.667 2.5 50 7.5s31.666 11.167 48.999 18.5l33-123c-24-12.667-50.5-23.167-79.5-31.5s-63.5-12.5-103.5-12.5c-63.333 0-115.166 18.333-155.499 55S13-289 13-223c0 53.333 20.167 104 60.5 152S176.333 19.667 261 57z"/><glyph glyph-name="Idotaccent" unicode="İ" horiz-adv-x="579" d="M388 0H190v1456h198V0zm10 1604H180v201h218v-201z"/><glyph glyph-name="dotlessi" unicode="ı" horiz-adv-x="515" d="M350 0H153v1082h197V0z"/><glyph glyph-name="IJ" unicode="Ĳ" horiz-adv-x="1702" d="M388 0H190v1456h198V0zm950 1456h196.999V422c0-135.333-41.167-243-123.5-323S1222.333-21 1091-21C957-21 850.5 14.5 771.5 85.5S654.667 259.667 658 395l2 6h189c0-90.667 21-158 63-202s101.667-66 179-66c72.667 0 132 26.333 178 79s69 122.667 69 210v1034z"/><glyph glyph-name="ij" unicode="ĳ" horiz-adv-x="1046" d="M356 0H159v1082h197V0zm0 1359H159v201h197v-201zm530-277l.002-1171c0-111.333-28.667-197.166-86-257.499s-137-90.5-239-90.5c-20.667 0-39.5 1.5-56.5 4.5s-35.167 7.5-54.5 13.5l14 155c9.333-3.333 22.666-6.166 39.999-8.499s31.666-3.5 42.999-3.5c43.333 0 77.833 14.667 103.5 44s38.5 77 38.5 143v1171h197zm-5.998 281h-197v197h197v-197z"/><glyph glyph-name="Jcircumflex" unicode="Ĵ" horiz-adv-x="1123" d="M759 1456h196.999V422c0-135.333-41.167-243-123.5-323S643.333-21 512-21C378-21 271.5 14.5 192.5 85.5S75.667 259.667 79 395l2 6h189c0-90.667 21-158 63-202s101.667-66 179-66c72.667 0 132 26.333 178 79s69 122.667 69 210v1034zm398 158v-25H996l-147 148-146-148H543v26l246 237h120z"/><glyph glyph-name="jcircumflex" unicode="ĵ" horiz-adv-x="523" d="M368 1082V-89c0-111.333-28.667-197.166-86-257.499s-137-90.5-239-90.5c-20.667 0-39.5 1.5-56.5 4.5s-35.167 7.5-54.5 13.5l14 150c9.333-3.333 24.833-6.333 46.5-9s38.5-4 50.5-4c39.333 0 70.5 17.167 93.5 51.5s34.5 81.5 34.5 141.5v1171h197zm211 182v-25H418l-147 148-146-148H-35v26l246 237h120z"/><glyph glyph-name="Kcommaaccent" unicode="Ķ" horiz-adv-x="1302" d="M495 658H367V0H170v1456h197V812h108l540 644h222l2-5-590-689L1281 5l-2-5h-239zm201-899L574-478h-97l61 246v131h158v-140z"/><glyph glyph-name="kcommaaccent" unicode="ķ" horiz-adv-x="1050" d="M442 499H341V0H144v1560h197V656h99l325 426h236L608 583 1035 0H802zm165-738L485-476h-97l61 246v131h158v-140z"/><glyph glyph-name="kgreenlandic" unicode="ĸ" horiz-adv-x="1144" d="M451 459H350V0H153v1082h197V625h84l388 457h231l2-5-450-514L1088 5l-2-5H845z"/><glyph glyph-name="Lacute" unicode="Ĺ" horiz-adv-x="1126" d="M367 154h710V0H170v1456h197V154zm-6 1646h230l2-6-269-260H176z"/><glyph glyph-name="lacute" unicode="ĺ" horiz-adv-x="516" d="M356 0H159v1560h197V0zm-3 1875h230l2-6-269-260H168z"/><glyph glyph-name="Lcommaaccent" unicode="Ļ" horiz-adv-x="1126" d="M367 154h710V0H170v1456h197V154zm323-393L568-476h-97l61 246v131h158v-140z"/><glyph glyph-name="lcommaaccent" unicode="ļ" horiz-adv-x="516" d="M356 0H159v1560h197V0zm-27-239L207-476h-97l61 246v131h158v-140z"/><glyph glyph-name="Lcaron" unicode="Ľ" horiz-adv-x="1126" d="M367 154h710V0H170v1456h197V154zm425 1163l-122-237h-97l61 246v131h158v-140z"/><glyph glyph-name="lcaron" unicode="ľ" horiz-adv-x="516" d="M356 0H159v1560h197V0zm329 1420l-122-237h-97l61 246v131h158v-140z"/><glyph glyph-name="Ldot" unicode="Ŀ" horiz-adv-x="1126" d="M367 154h710V0H170v1456h197V154zm455 533H604v201h218V687z"/><glyph glyph-name="ldot" unicode="ŀ" horiz-adv-x="516" d="M356 0H159v1560h197V0zm261 670H399v201h218V670z"/><glyph glyph-name="Lslash" unicode="Ł" horiz-adv-x="1077" d="M360 843l269 86V763l-269-86V154h710V0H163v615L40 576v166l123 39v675h197V843z"/><glyph glyph-name="lslash" unicode="ł" horiz-adv-x="558" d="M376 872l150 58V765l-150-58V0H179v632L37 578v165l142 54v763h197V872z"/><glyph glyph-name="Nacute" unicode="Ń" horiz-adv-x="1442" d="M1271 0h-197L373 1112l-6-2V0H170v1456h197l701-1111 6 2v1109h197V0zM814 1863h230l2-6-269-260H629z"/><glyph glyph-name="nacute" unicode="ń" d="M319 1082l14.001-161c36 57.333 81.167 101.833 135.5 133.5S584.667 1102 654 1102c116.667 0 207-34.167 271-102.5s96-173.833 96-316.5V0H824v679c0 95.333-18.833 163-56.5 203s-95.167 60-172.5 60c-60.667 0-112.167-12.167-154.5-36.5S364.667 847 340 803V0H143v1082h176zm354.001 459h230l2-6-269-260h-148z"/><glyph glyph-name="Ncommaaccent" unicode="Ņ" horiz-adv-x="1442" d="M1271 0h-197L373 1112l-6-2V0H170v1456h197l701-1111 6 2v1109h197V0zM790-239L668-476h-97l61 246v131h158v-140z"/><glyph glyph-name="ncommaaccent" unicode="ņ" d="M319 1082l14.001-161c36 57.333 81.167 101.833 135.5 133.5S584.667 1102 654 1102c116.667 0 207-34.167 271-102.5s96-173.833 96-316.5V0H824v679c0 95.333-18.833 163-56.5 203s-95.167 60-172.5 60c-60.667 0-112.167-12.167-154.5-36.5S364.667 847 340 803V0H143v1082h176zM649.001-239l-122-237h-97l61 246v131h158v-140z"/><glyph glyph-name="Ncaron" unicode="Ň" horiz-adv-x="1442" d="M1271 0h-197L373 1112l-6-2V0H170v1456h197l701-1111 6 2v1109h197V0zM718 1717l147 148h170v-18l-257-245H659l-254 243v20h166z"/><glyph glyph-name="ncaron" unicode="ň" d="M319 1082l14.001-161c36 57.333 81.167 101.833 135.5 133.5S584.667 1102 654 1102c116.667 0 207-34.167 271-102.5s96-173.833 96-316.5V0H824v679c0 95.333-18.833 163-56.5 203s-95.167 60-172.5 60c-60.667 0-112.167-12.167-154.5-36.5S364.667 847 340 803V0H143v1082h176zm258.001 313l147 148h170v-18l-257-245h-119l-254 243v20h166z"/><glyph glyph-name="napostrophe" unicode="ŉ" d="M319 1082l14.001-161c36 57.333 81.167 101.833 135.5 133.5S584.667 1102 654 1102c116.667 0 207-34.167 271-102.5s96-173.833 96-316.5V0H824v679c0 95.333-18.833 163-56.5 203s-95.167 60-172.5 60c-60.667 0-112.167-12.167-154.5-36.5S364.667 847 340 803V0H143v1082h176zm-132.999 338l-122-237h-97l61 246v131h158v-140z"/><glyph glyph-name="Eng" unicode="Ŋ" horiz-adv-x="1416" d="M1262 1456l-.002-1545c0-111.333-28.667-197.166-86-257.499s-137.333-90.5-240-90.5c-20.667 0-39.667 1.5-57 4.5s-35.666 7.5-54.999 13.5l14 150c8.667-3.333 24.334-6.333 47.001-9s39.667-4 51-4c40 0 71.5 17.167 94.5 51.5s34.5 81.5 34.5 141.5v89l-701 1112-6-2V.001H161v1456h197l701-1112 6 2v1110h197z"/><glyph glyph-name="eng" unicode="ŋ" d="M319 1082l13.002-150.002c36 54 80.667 95.833 134 125.5s113.666 44.5 180.999 44.5c116 0 206-34.167 270-102.5s96-173.833 96-316.5v-772c0-111.333-28.667-197.166-86-257.499s-137.333-90.5-240-90.5c-20.667 0-39.834 1.5-57.501 4.5s-35.834 7.5-54.501 13.5l14 160c8.667-3.333 24.167-6.166 46.5-8.499s39.5-3.5 51.5-3.5c40.667 0 72.334 15.667 95.001 47s34 76.333 34 135v768c0 95.333-19 163-57 203s-95.667 60-173 60c-56.667 0-105.5-11-146.5-33s-74.167-52.667-99.5-92V0H143v1082h176z"/><glyph glyph-name="Omacron" unicode="Ō" horiz-adv-x="1396" d="M1282 598c0-178-55.167-325.667-165.5-443S863-21 687-21c-170 0-308.167 58.667-414.5 176S113 420 113 598v259c0 177.333 53.167 325 159.5 443S517 1477 687 1477c176 0 319.167-58.833 429.5-176.5S1282 1035 1282 857V598zm-197 261c0 133.333-36 242.666-108 327.999s-168.667 128-290 128c-114.667 0-206.167-42.667-274.5-128S310 992.333 310 859V598c0-134.667 34.167-244.667 102.5-330S572.333 140 687 140c122 0 218.833 42.5 290.5 127.5S1085 462.667 1085 598v261zm-21 802H343v146h721v-146z"/><glyph glyph-name="omacron" unicode="ō" d="M97 551c0 160 43.332 291.833 129.999 395.5S431.333 1102 580 1102c150 0 268.5-51.667 355.5-155S1066 711.667 1066 551v-22c0-161.333-43.333-293.333-130-396S731.333-21 582-21 314.5 30.5 227.5 133.5 97 368.333 97 529v22zm196.999-22c0-114.667 24.168-209.334 72.501-284.001s120.166-112 215.499-112c94 0 165.333 37.333 214 112s73 169.334 73 284.001v22c0 113.333-24.5 207.666-73.5 282.999s-120.833 113-215.5 113c-94 0-165.167-37.667-213.5-113s-72.5-169.666-72.5-282.999v-22zM948 1318H227v146h721v-146z"/><glyph glyph-name="Obreve" unicode="Ŏ" horiz-adv-x="1396" d="M1282 598c0-178-55.167-325.667-165.5-443S863-21 687-21c-170 0-308.167 58.667-414.5 176S113 420 113 598v259c0 177.333 53.167 325 159.5 443S517 1477 687 1477c176 0 319.167-58.833 429.5-176.5S1282 1035 1282 857V598zm-197 261c0 133.333-36 242.666-108 327.999s-168.667 128-290 128c-114.667 0-206.167-42.667-274.5-128S310 992.333 310 859V598c0-134.667 34.167-244.667 102.5-330S572.333 140 687 140c122 0 218.833 42.5 290.5 127.5S1085 462.667 1085 598v261zm-93 1032l2-6c2.667-77.333-23-140.333-77-189s-126.667-73-218-73c-92 0-165 24.333-219 73s-79.333 111.667-76 189l2 6h151c0-44 11.333-79.667 34-107s58.667-41 108-41c48 0 83.667 13.833 107 41.5s35 63.167 35 106.5h151z"/><glyph glyph-name="obreve" unicode="ŏ" d="M97 551c0 160 43.332 291.833 129.999 395.5S431.333 1102 580 1102c150 0 268.5-51.667 355.5-155S1066 711.667 1066 551v-22c0-161.333-43.333-293.333-130-396S731.333-21 582-21 314.5 30.5 227.5 133.5 97 368.333 97 529v22zm196.999-22c0-114.667 24.168-209.334 72.501-284.001s120.166-112 215.499-112c94 0 165.333 37.333 214 112s73 169.334 73 284.001v22c0 113.333-24.5 207.666-73.5 282.999s-120.833 113-215.5 113c-94 0-165.167-37.667-213.5-113s-72.5-169.666-72.5-282.999v-22zM876 1548l2-6c2.667-77.333-23-140.333-77-189s-126.667-73-218-73c-92 0-165 24.333-219 73s-79.333 111.667-76 189l2 6h151c0-44 11.333-79.667 34-107s58.667-41 108-41c48 0 83.667 13.833 107 41.5s35 63.167 35 106.5h151z"/><glyph glyph-name="Ohungarumlaut" unicode="Ő" horiz-adv-x="1396" d="M1282 598c0-178-55.167-325.667-165.5-443S863-21 687-21c-170 0-308.167 58.667-414.5 176S113 420 113 598v259c0 177.333 53.167 325 159.5 443S517 1477 687 1477c176 0 319.167-58.833 429.5-176.5S1282 1035 1282 857V598zm-197 261c0 133.333-36 242.666-108 327.999s-168.667 128-290 128c-114.667 0-206.167-42.667-274.5-128S310 992.333 310 859V598c0-134.667 34.167-244.667 102.5-330S572.333 140 687 140c122 0 218.833 42.5 290.5 127.5S1085 462.667 1085 598v261zM972 1888h229l3-6-300-260H733l-2 5zm-326 0h211l2-5-240-261H462z"/><glyph glyph-name="ohungarumlaut" unicode="ő" d="M97 551c0 160 43.332 291.833 129.999 395.5S431.333 1102 580 1102c150 0 268.5-51.667 355.5-155S1066 711.667 1066 551v-22c0-161.333-43.333-293.333-130-396S731.333-21 582-21 314.5 30.5 227.5 133.5 97 368.333 97 529v22zm196.999-22c0-114.667 24.168-209.334 72.501-284.001s120.166-112 215.499-112c94 0 165.333 37.333 214 112s73 169.334 73 284.001v22c0 113.333-24.5 207.666-73.5 282.999s-120.833 113-215.5 113c-94 0-165.167-37.667-213.5-113s-72.5-169.666-72.5-282.999v-22zM856 1545h229l3-6-300-260H617l-2 5zm-326 0h211l2-5-240-261H346z"/><glyph glyph-name="OE" unicode="Œ" horiz-adv-x="1960" d="M1802 0L952.998-.001c-61.333-6.667-113.666-11.834-156.999-15.501s-87.333-5.5-132-5.5c-166 0-300.833 55.333-404.5 166s-155.5 254.334-155.5 431.001v304c0 176.667 51.5 320.334 154.5 431.001s237.5 166 403.5 166c46 0 92.833-2 140.5-6s97.834-9 150.501-15h838v-155h-689V830h598V675h-598V154h700V0zM663.998 133.999c40.667 0 81.332 1.5 121.999 4.5s80.334 7.5 119.001 13.5v1151c-40.667 5.333-81.334 9.833-122.001 13.5s-81 5.5-121 5.5c-112.667 0-201-37.833-265-113.5s-96-184.5-96-326.5v-306c0-142.667 32.333-252 97-328s153.334-114 266.001-114z"/><glyph glyph-name="oe" unicode="œ" horiz-adv-x="1854" d="M1371-21c-90 0-169.002 17.17-237.002 51.503s-123 83.166-165 146.499C926.331 114.335 872.164 65.668 806.497 31s-140.5-52-224.5-52c-149.333 0-267.5 51.5-354.5 154.5S96.997 368.334 96.997 529v22c0 160 43.333 291.833 130 395.5S431.331 1102 579.998 1102c85.333 0 161.333-18 228-54s121.334-86 164.001-150c42.667 64 96 114 160 150s133.333 54 208 54c144.667 0 253.167-45 325.5-135s108.5-209.667 108.5-359V504h-692l-3-5c0-108.667 24-196.834 72-264.501s121.333-101.5 220-101.5c66.667 0 125.167 9.5 175.5 28.5s93.5 45.167 129.5 78.5l77-128c-38.667-37.333-89.667-68.833-153-94.5S1460.333-21 1371-21zM293.998 529.003c0-114.667 24.168-209.334 72.501-284.001s120.166-112 215.499-112c94 0 165.333 37.333 214 112s73 169.334 73 284.001v22c0 113.333-24.5 207.666-73.5 282.999s-120.833 113-215.5 113c-94 0-165.167-37.667-213.5-113s-72.5-169.666-72.5-282.999v-22zm1046.002 418c-68.667 0-125.499-26.5-170.499-79.5s-72.5-120.833-82.5-203.5l2-5h488v16c0 78.667-19.333 143.667-58 195s-98.334 77-179.001 77z"/><glyph glyph-name="Racute" unicode="Ŕ" horiz-adv-x="1303" d="M367 631V.001H170v1455h498c159.333 0 281-35.333 365-106s126-173.334 126-308.001c0-74.667-19.5-139.667-58.5-195s-95.833-99.333-170.5-132c80-26 137.5-68.167 172.5-126.5S1155 457 1155 371V234c0-45.333 5-86 15-122s27.333-65.333 52-88V0h-203c-26 22.667-42.667 56-50 100s-11 89.333-11 136v133c0 78.667-23 142-69 190s-107.667 72-185 72H367zm0 155.001h281.001c111.333 0 191.5 21.167 240.5 63.5s73.5 106.833 73.5 193.5c0 82-23.833 145.5-71.5 190.5s-121.834 67.5-222.501 67.5H367v-515zM705.001 1863h230l2-6-269-260h-148z"/><glyph glyph-name="racute" unicode="ŕ" horiz-adv-x="717" d="M655 908l-101 6.001c-52 0-95.833-12.333-131.5-37S359.333 817.667 340 773V0H143v1082h176l19-158c30.667 56 68.5 99.667 113.5 131s96.833 47 155.5 47c14.667 0 28.667-1.167 42-3.5s24.333-4.833 33-7.5zm-147 633h230l2-6-269-260H323z"/><glyph glyph-name="Rcommaaccent" unicode="Ŗ" horiz-adv-x="1303" d="M367 631V.001H170v1455h498c159.333 0 281-35.333 365-106s126-173.334 126-308.001c0-74.667-19.5-139.667-58.5-195s-95.833-99.333-170.5-132c80-26 137.5-68.167 172.5-126.5S1155 457 1155 371V234c0-45.333 5-86 15-122s27.333-65.333 52-88V0h-203c-26 22.667-42.667 56-50 100s-11 89.333-11 136v133c0 78.667-23 142-69 190s-107.667 72-185 72H367zm0 155.001h281.001c111.333 0 191.5 21.167 240.5 63.5s73.5 106.833 73.5 193.5c0 82-23.833 145.5-71.5 190.5s-121.834 67.5-222.501 67.5H367v-515zm314.001-1025l-122-237h-97l61 246v131h158v-140z"/><glyph glyph-name="rcommaaccent" unicode="ŗ" horiz-adv-x="717" d="M655 908l-101 6.001c-52 0-95.833-12.333-131.5-37S359.333 817.667 340 773V0H143v1082h176l19-158c30.667 56 68.5 99.667 113.5 131s96.833 47 155.5 47c14.667 0 28.667-1.167 42-3.5s24.333-4.833 33-7.5zM326-238.999l-122-237h-97l61 246v131h158v-140z"/><glyph glyph-name="Rcaron" unicode="Ř" horiz-adv-x="1303" d="M367 631V.001H170v1455h498c159.333 0 281-35.333 365-106s126-173.334 126-308.001c0-74.667-19.5-139.667-58.5-195s-95.833-99.333-170.5-132c80-26 137.5-68.167 172.5-126.5S1155 457 1155 371V234c0-45.333 5-86 15-122s27.333-65.333 52-88V0h-203c-26 22.667-42.667 56-50 100s-11 89.333-11 136v133c0 78.667-23 142-69 190s-107.667 72-185 72H367zm0 155.001h281.001c111.333 0 191.5 21.167 240.5 63.5s73.5 106.833 73.5 193.5c0 82-23.833 145.5-71.5 190.5s-121.834 67.5-222.501 67.5H367v-515zM609.001 1717l147 148h170v-18l-257-245h-119l-254 243v20h166z"/><glyph glyph-name="rcaron" unicode="ř" horiz-adv-x="717" d="M655 908l-101 6.001c-52 0-95.833-12.333-131.5-37S359.333 817.667 340 773V0H143v1082h176l19-158c30.667 56 68.5 99.667 113.5 131s96.833 47 155.5 47c14.667 0 28.667-1.167 42-3.5s24.333-4.833 33-7.5zm-242 487l147 148h170v-18l-257-245H354l-254 243v20h166z"/><glyph glyph-name="Sacute" unicode="Ś" horiz-adv-x="1252" d="M946 367c0 66-23.666 121.331-70.999 165.998s-130.666 82.667-249.999 114c-148 36.667-263.5 90.667-346.5 162s-124.5 161-124.5 269c0 114 44.667 209 134 285s205.333 114 348 114c153.333 0 275.5-43.5 366.5-130.5s135.167-188.5 132.5-304.5l-3-6h-188c0 82.667-28.833 151-86.5 205s-131.5 81-221.5 81c-92 0-162.5-22.333-211.5-67s-73.5-102.667-73.5-174c0-63.333 26.833-116.166 80.5-158.499s140.834-79.5 261.501-111.5c146.667-38 258.334-94 335.001-168s115-165.333 115-274c0-117.333-46.167-211.666-138.5-282.999S791.671-21 643.004-21C502.337-21 378.17 18.333 270.503 97S110.669 281 114.002 413l2 6h188c0-91.333 34.667-161.833 104-211.5S555.668 133 643.001 133c93.333 0 167.166 21 221.499 63S946 295 946 367zM720.001 1884h230l2-6-269-260h-148z"/><glyph glyph-name="sacute" unicode="ś" horiz-adv-x="1071" d="M772 291c0 43.333-16.504 78.667-49.504 106s-95.5 51.333-187.5 72c-127.333 27.333-225.166 65.666-293.499 114.999s-102.5 115.333-102.5 198c0 88 37.5 163.333 112.5 226s172.167 94 291.5 94c122.667 0 222-33.333 298-100s112.333-144.334 109-233.001l-2-6h-188c0 46.667-20.5 89-61.5 127s-92.833 57-155.5 57c-69.333 0-121.166-15.667-155.499-47s-51.5-68.666-51.5-111.999c0-42.667 14.833-75.667 44.5-99S471.332 644.333 564 625c132.666-28 233.333-67.667 302-119s103-118.333 103-201c0-96-38.833-174.333-116.5-235S673.333-21 548-21C410-21 301.333 14 222 84S105 235.667 109 329l2 6h188c3.333-70 29.333-121.167 78-153.5S482.667 133 548 133c70 0 124.833 14.833 164.5 44.5S772 245 772 291zM629.996 1541h230l2-6-269-260h-148z"/><glyph glyph-name="Scircumflex" unicode="Ŝ" horiz-adv-x="1252" d="M946 367c0 66-23.666 121.331-70.999 165.998s-130.666 82.667-249.999 114c-148 36.667-263.5 90.667-346.5 162s-124.5 161-124.5 269c0 114 44.667 209 134 285s205.333 114 348 114c153.333 0 275.5-43.5 366.5-130.5s135.167-188.5 132.5-304.5l-3-6h-188c0 82.667-28.833 151-86.5 205s-131.5 81-221.5 81c-92 0-162.5-22.333-211.5-67s-73.5-102.667-73.5-174c0-63.333 26.833-116.166 80.5-158.499s140.834-79.5 261.501-111.5c146.667-38 258.334-94 335.001-168s115-165.333 115-274c0-117.333-46.167-211.666-138.5-282.999S791.671-21 643.004-21C502.337-21 378.17 18.333 270.503 97S110.669 281 114.002 413l2 6h188c0-91.333 34.667-161.833 104-211.5S555.668 133 643.001 133c93.333 0 167.166 21 221.499 63S946 295 946 367zm-12.999 1280v-25h-161l-147 148-146-148h-160v26l246 237h120z"/><glyph glyph-name="scircumflex" unicode="ŝ" horiz-adv-x="1071" d="M772 291c0 43.333-16.504 78.667-49.504 106s-95.5 51.333-187.5 72c-127.333 27.333-225.166 65.666-293.499 114.999s-102.5 115.333-102.5 198c0 88 37.5 163.333 112.5 226s172.167 94 291.5 94c122.667 0 222-33.333 298-100s112.333-144.334 109-233.001l-2-6h-188c0 46.667-20.5 89-61.5 127s-92.833 57-155.5 57c-69.333 0-121.166-15.667-155.499-47s-51.5-68.666-51.5-111.999c0-42.667 14.833-75.667 44.5-99S471.332 644.333 564 625c132.666-28 233.333-67.667 302-119s103-118.333 103-201c0-96-38.833-174.333-116.5-235S673.333-21 548-21C410-21 301.333 14 222 84S105 235.667 109 329l2 6h188c3.333-70 29.333-121.167 78-153.5S482.667 133 548 133c70 0 124.833 14.833 164.5 44.5S772 245 772 291zm70.996 1013v-25h-161l-147 148-146-148h-160v26l246 237h120z"/><glyph glyph-name="Scedilla" unicode="Ş" horiz-adv-x="1252" d="M946 367c0 66-23.666 121.331-70.999 165.998s-130.666 82.667-249.999 114c-148 36.667-263.5 90.667-346.5 162s-124.5 161-124.5 269c0 114 44.667 209 134 285s205.333 114 348 114c153.333 0 275.5-43.5 366.5-130.5s135.167-188.5 132.5-304.5l-3-6h-188c0 82.667-28.833 151-86.5 205s-131.5 81-221.5 81c-92 0-162.5-22.333-211.5-67s-73.5-102.667-73.5-174c0-63.333 26.833-116.166 80.5-158.499s140.834-79.5 261.501-111.5c146.667-38 258.334-94 335.001-168s115-165.333 115-274c0-117.333-46.167-211.666-138.5-282.999S791.671-21 643.004-21C502.337-21 378.17 18.333 270.503 97S110.669 281 114.002 413l2 6h188c0-91.333 34.667-161.833 104-211.5S555.668 133 643.001 133c93.333 0 167.166 21 221.499 63S946 295 946 367zM701.001-9.002l-12-52.003c43.333-7.333 79.333-24.666 108-51.999s43-67.666 43-120.999c0-64-26.333-115-79-153s-128-57-226-57l-7 109c48 0 86.667 8.167 116 24.5s44 40.833 44 73.5c0 32-12 54.333-36 67s-65 21.334-123 26.001l32 135h140z"/><glyph glyph-name="scedilla" unicode="ş" horiz-adv-x="1071" d="M772 291c0 43.333-16.504 78.667-49.504 106s-95.5 51.333-187.5 72c-127.333 27.333-225.166 65.666-293.499 114.999s-102.5 115.333-102.5 198c0 88 37.5 163.333 112.5 226s172.167 94 291.5 94c122.667 0 222-33.333 298-100s112.333-144.334 109-233.001l-2-6h-188c0 46.667-20.5 89-61.5 127s-92.833 57-155.5 57c-69.333 0-121.166-15.667-155.499-47s-51.5-68.666-51.5-111.999c0-42.667 14.833-75.667 44.5-99S471.332 644.333 564 625c132.666-28 233.333-67.667 302-119s103-118.333 103-201c0-96-38.833-174.333-116.5-235S673.333-21 548-21C410-21 301.333 14 222 84S105 235.667 109 329l2 6h188c3.333-70 29.333-121.167 78-153.5S482.667 133 548 133c70 0 124.833 14.833 164.5 44.5S772 245 772 291zM610.996-7.999l-12-52.003c43.333-7.333 79.333-24.666 108-51.999s43-67.666 43-120.999c0-64-26.333-115-79-153s-128-57-226-57l-7 109c48 0 86.667 8.167 116 24.5s44 40.833 44 73.5c0 32-12 54.333-36 67s-65 21.334-123 26.001l32 135h140z"/><glyph glyph-name="Scaron" unicode="Š" horiz-adv-x="1252" d="M946 367c0 66-23.666 121.331-70.999 165.998s-130.666 82.667-249.999 114c-148 36.667-263.5 90.667-346.5 162s-124.5 161-124.5 269c0 114 44.667 209 134 285s205.333 114 348 114c153.333 0 275.5-43.5 366.5-130.5s135.167-188.5 132.5-304.5l-3-6h-188c0 82.667-28.833 151-86.5 205s-131.5 81-221.5 81c-92 0-162.5-22.333-211.5-67s-73.5-102.667-73.5-174c0-63.333 26.833-116.166 80.5-158.499s140.834-79.5 261.501-111.5c146.667-38 258.334-94 335.001-168s115-165.333 115-274c0-117.333-46.167-211.666-138.5-282.999S791.671-21 643.004-21C502.337-21 378.17 18.333 270.503 97S110.669 281 114.002 413l2 6h188c0-91.333 34.667-161.833 104-211.5S555.668 133 643.001 133c93.333 0 167.166 21 221.499 63S946 295 946 367zM624.001 1738l147 148h170v-18l-257-245h-119l-254 243v20h166z"/><glyph glyph-name="scaron" unicode="š" horiz-adv-x="1071" d="M772 291c0 43.333-16.504 78.667-49.504 106s-95.5 51.333-187.5 72c-127.333 27.333-225.166 65.666-293.499 114.999s-102.5 115.333-102.5 198c0 88 37.5 163.333 112.5 226s172.167 94 291.5 94c122.667 0 222-33.333 298-100s112.333-144.334 109-233.001l-2-6h-188c0 46.667-20.5 89-61.5 127s-92.833 57-155.5 57c-69.333 0-121.166-15.667-155.499-47s-51.5-68.666-51.5-111.999c0-42.667 14.833-75.667 44.5-99S471.332 644.333 564 625c132.666-28 233.333-67.667 302-119s103-118.333 103-201c0-96-38.833-174.333-116.5-235S673.333-21 548-21C410-21 301.333 14 222 84S105 235.667 109 329l2 6h188c3.333-70 29.333-121.167 78-153.5S482.667 133 548 133c70 0 124.833 14.833 164.5 44.5S772 245 772 291zM533.996 1395l147 148h170v-18l-257-245h-119l-254 243v20h166z"/><glyph glyph-name="Tcommaaccent" unicode="Ţ" horiz-adv-x="1225" d="M1188 1301H708V0H511v1301H37v155h1151v-155zM684-239L562-476h-97l61 246v131h158v-140z"/><glyph glyph-name="tcommaaccent" unicode="ţ" horiz-adv-x="690" d="M417 1343l.001-260.998h205v-146h-205v-657c0-50.667 10.5-86.334 31.5-107.001s48.833-31 83.5-31c11.333 0 24 1.5 38 4.5s25.667 6.167 35 9.5l27-135c-14.667-12-36.334-21.833-65.001-29.5s-57-11.5-85-11.5c-80 0-143.667 24.167-191 72.5S220 175.667 220 279v657H48v146h172v261h197zM541.001-248.998l-122-237h-97l61 246v131h158v-140z"/><glyph glyph-name="Tcaron" unicode="Ť" horiz-adv-x="1225" d="M1188 1301H708V0H511v1301H37v155h1151v-155zm-576 415l147 148h170v-18l-257-245H553l-254 243v20h166z"/><glyph glyph-name="tcaron" unicode="ť" horiz-adv-x="690" d="M417 1343l.001-260.998h205v-146h-205v-657c0-50.667 10.5-86.334 31.5-107.001s48.833-31 83.5-31c11.333 0 24 1.5 38 4.5s25.667 6.167 35 9.5l27-135c-14.667-12-36.334-21.833-65.001-29.5s-57-11.5-85-11.5c-80 0-143.667 24.167-191 72.5S220 175.667 220 279v657H48v146h172v261h197zm360.001 104l-122-237h-97l61 246v131h158v-140z"/><glyph glyph-name="Tbar" unicode="Ŧ" horiz-adv-x="1225" d="M928 820H708V0H511v820H287v155h224v326H37v155h1151v-155H708V975h220V820z"/><glyph glyph-name="tbar" unicode="ŧ" horiz-adv-x="690" d="M417 1343l.001-260.998h205v-146h-205v-181h230v-155h-230v-321c0-50.667 10.5-86.334 31.5-107.001s48.833-31 83.5-31c11.333 0 24 1.5 38 4.5s25.667 6.167 35 9.5l27-135c-14.667-12-36.334-21.833-65.001-29.5s-57-11.5-85-11.5c-80 0-143.667 24.167-191 72.5S220 175.667 220 279v321H6v155h214v181H48v146h172v261h197z"/><glyph glyph-name="Utilde" unicode="Ũ" horiz-adv-x="1386" d="M1244 1456l-.001-966.999c0-160-52-285-156-375s-238-135-402-135c-158 0-287.333 45.167-388 135.5s-151 215.166-151 374.499v967h197V489c0-111.333 31.833-198.5 95.5-261.5S585.333 133 686 133c106.667 0 193.5 31.5 260.5 94.5S1047 377.667 1047 489v967h197zm-200 388c0-62.667-19.834-115.666-59.501-158.999s-89.5-65-149.5-65c-47.333 0-96.666 15.5-147.999 46.5s-94 46.5-128 46.5c-28.667 0-52.667-10.833-72-32.5s-29-47.834-29-78.501l-108 26c0 62 19.667 115.833 59 161.5s89.333 68.5 150 68.5c37.333 0 84-15.667 140-47s101.333-47 136-47c27.333 0 51 10.833 71 32.5s30 48.167 30 79.5z"/><glyph glyph-name="utilde" unicode="ũ" d="M830 160c-34-58-77.667-102.667-131-134S584-21 514-21C396-21 304 16.667 238 92s-99 192.666-99 351.999v638h197v-640c0-115.333 17-194.666 51-237.999s87-65 159-65c70 0 127.833 14.167 173.5 42.5S799.667 250 823 302v780h197V0H843zm97 1341c0-62.667-19.834-115.666-59.501-158.999s-89.5-65-149.5-65c-47.333 0-96.666 15.5-147.999 46.5s-94 46.5-128 46.5c-28.667 0-52.667-10.833-72-32.5s-29-47.834-29-78.501l-108 26c0 62 19.667 115.833 59 161.5s89.333 68.5 150 68.5c37.333 0 84-15.667 140-47s101.333-47 136-47c27.333 0 51 10.833 71 32.5s30 48.167 30 79.5z"/><glyph glyph-name="Umacron" unicode="Ū" horiz-adv-x="1386" d="M1244 1456l-.001-966.999c0-160-52-285-156-375s-238-135-402-135c-158 0-287.333 45.167-388 135.5s-151 215.166-151 374.499v967h197V489c0-111.333 31.833-198.5 95.5-261.5S585.333 133 686 133c106.667 0 193.5 31.5 260.5 94.5S1047 377.667 1047 489v967h197zm-181 184H342v146h721v-146z"/><glyph glyph-name="umacron" unicode="ū" d="M830 160c-34-58-77.667-102.667-131-134S584-21 514-21C396-21 304 16.667 238 92s-99 192.666-99 351.999v638h197v-640c0-115.333 17-194.666 51-237.999s87-65 159-65c70 0 127.833 14.167 173.5 42.5S799.667 250 823 302v780h197V0H843zm116 1138H225v146h721v-146z"/><glyph glyph-name="Ubreve" unicode="Ŭ" horiz-adv-x="1386" d="M1244 1456l-.001-966.999c0-160-52-285-156-375s-238-135-402-135c-158 0-287.333 45.167-388 135.5s-151 215.166-151 374.499v967h197V489c0-111.333 31.833-198.5 95.5-261.5S585.333 133 686 133c106.667 0 193.5 31.5 260.5 94.5S1047 377.667 1047 489v967h197zm-253.001 414l2-6c2.667-77.333-23-140.333-77-189s-126.667-73-218-73c-92 0-165 24.333-219 73s-79.333 111.667-76 189l2 6h151c0-44 11.333-79.667 34-107s58.667-41 108-41c48 0 83.667 13.833 107 41.5s35 63.167 35 106.5h151z"/><glyph glyph-name="ubreve" unicode="ŭ" d="M830 160c-34-58-77.667-102.667-131-134S584-21 514-21C396-21 304 16.667 238 92s-99 192.666-99 351.999v638h197v-640c0-115.333 17-194.666 51-237.999s87-65 159-65c70 0 127.833 14.167 173.5 42.5S799.667 250 823 302v780h197V0H843zm44 1367l2-6c2.667-77.333-23-140.333-77-189s-126.667-73-218-73c-92 0-165 24.333-219 73s-79.333 111.667-76 189l2 6h151c0-44 11.333-79.667 34-107s58.667-41 108-41c48 0 83.667 13.833 107 41.5s35 63.167 35 106.5h151z"/><glyph glyph-name="Uring" unicode="Ů" horiz-adv-x="1386" d="M1244 1456l-.001-966.999c0-160-52-285-156-375s-238-135-402-135c-158 0-287.333 45.167-388 135.5s-151 215.166-151 374.499v967h197V489c0-111.333 31.833-198.5 95.5-261.5S585.333 133 686 133c106.667 0 193.5 31.5 260.5 94.5S1047 377.667 1047 489v967h197zm-724.001 278c0 48 17.167 88.167 51.5 120.5s75.833 48.5 124.5 48.5c48 0 88.833-16.167 122.5-48.5s50.5-72.5 50.5-120.5c0-48.667-16.833-88.167-50.5-118.5s-74.5-45.5-122.5-45.5c-49.333 0-91 15.333-125 46s-51 70-51 118zm100 0c0-20.667 7.5-38.167 22.5-52.5s32.833-21.5 53.5-21.5c20 0 37.167 7 51.5 21s21.5 31.667 21.5 53-7.167 39.5-21.5 54.5-31.5 22.5-51.5 22.5c-21.333 0-39.333-7.5-54-22.5s-22-33.167-22-54.5z"/><glyph glyph-name="uring" unicode="ů" d="M830 160c-34-58-77.667-102.667-131-134S584-21 514-21C396-21 304 16.667 238 92s-99 192.666-99 351.999v638h197v-640c0-115.333 17-194.666 51-237.999s87-65 159-65c70 0 127.833 14.167 173.5 42.5S799.667 250 823 302v780h197V0H843zM403 1391c0 48 17.167 88.167 51.5 120.5S530.333 1560 579 1560c48 0 88.833-16.167 122.5-48.5S752 1439 752 1391c0-48.667-16.833-88.167-50.5-118.5S627 1227 579 1227c-49.333 0-91 15.333-125 46s-51 70-51 118zm100 0c0-20.667 7.5-38.167 22.5-52.5s32.833-21.5 53.5-21.5c20 0 37.167 7 51.5 21s21.5 31.667 21.5 53-7.167 39.5-21.5 54.5S599 1468 579 1468c-21.333 0-39.333-7.5-54-22.5s-22-33.167-22-54.5z"/><glyph glyph-name="Uhungarumlaut" unicode="Ű" horiz-adv-x="1386" d="M1244 1456l-.001-966.999c0-160-52-285-156-375s-238-135-402-135c-158 0-287.333 45.167-388 135.5s-151 215.166-151 374.499v967h197V489c0-111.333 31.833-198.5 95.5-261.5S585.333 133 686 133c106.667 0 193.5 31.5 260.5 94.5S1047 377.667 1047 489v967h197zm-273.001 411h229l3-6-300-260h-171l-2 5zm-326 0h211l2-5-240-261h-157z"/><glyph glyph-name="uhungarumlaut" unicode="ű" d="M830 160c-34-58-77.667-102.667-131-134S584-21 514-21C396-21 304 16.667 238 92s-99 192.666-99 351.999v638h197v-640c0-115.333 17-194.666 51-237.999s87-65 159-65c70 0 127.833 14.167 173.5 42.5S799.667 250 823 302v780h197V0H843zm24 1364h229l3-6-300-260H615l-2 5zm-326 0h211l2-5-240-261H344z"/><glyph glyph-name="Uogonek" unicode="Ų" horiz-adv-x="1386" d="M1244 1456l-.001-966.999c0-160-52-285-156-375s-238-135-402-135c-158 0-287.333 45.167-388 135.5s-151 215.166-151 374.499v967h197V489c0-111.333 31.833-198.5 95.5-261.5S585.333 133 686 133c106.667 0 193.5 31.5 260.5 94.5S1047 377.667 1047 489v967h197zM812.999.001c-46.667-34.667-83.167-67.833-109.5-99.5s-39.5-65.5-39.5-101.5c0-28 7.5-50 22.5-66s39.5-24 73.5-24c18 0 34.667 2.5 50 7.5s31.666 11.167 48.999 18.5l33-123c-24-12.667-50.5-23.167-79.5-31.5s-63.5-12.5-103.5-12.5c-63.333 0-115.166 18.333-155.499 55s-60.5 88-60.5 154c0 53.333 20.167 104 60.5 152s102.833 90.667 187.5 128z"/><glyph glyph-name="uogonek" unicode="ų" d="M830 160c-34-58-77.667-102.667-131-134S584-21 514-21C396-21 304 16.667 238 92s-99 192.666-99 351.999v638h197v-640c0-115.333 17-194.666 51-237.999s87-65 159-65c70 0 127.833 14.167 173.5 42.5S799.667 250 823 302v780h197V0H843zM995 0c-46.667-34.667-83.167-67.833-109.5-99.5S846-165 846-201c0-28 7.5-50 22.5-66s39.5-24 73.5-24c18 0 34.667 2.5 50 7.5s31.666 11.167 48.999 18.5l33-123c-24-12.667-50.5-23.167-79.5-31.5s-63.5-12.5-103.5-12.5c-63.333 0-115.166 18.333-155.499 55S675-289 675-223c0 53.333 20.167 104 60.5 152S838.333 19.667 923 57z"/><glyph glyph-name="Wcircumflex" unicode="Ŵ" horiz-adv-x="1763" d="M462 505l25-191 6-1 34 192 258 951h193l260-951 34-195h6l27 195 208 951h214L1375 0h-176L908 1010l-22 131h-6l-21-131L564 0H388L37 1456h213zm727 1121v-25h-161l-147 148-146-148H575v26l246 237h120z"/><glyph glyph-name="wcircumflex" unicode="ŵ" horiz-adv-x="1550" d="M420 394l25-139h6l26 139 216 688h158l217-688 28-155h6l32 155 160 688h206L1186 0h-159L813 659l-41 172h-6l-38-172L518 0H359L45 1082h205zm661 889v-25H920l-147 148-146-148H467v26l246 237h120z"/><glyph glyph-name="Ycircumflex" unicode="Ŷ" horiz-adv-x="1295" d="M645 716l380 740h225L739 512V0H543v527L40 1456h225zm309 909v-25H793l-147 148-146-148H340v26l246 237h120z"/><glyph glyph-name="ycircumflex" unicode="ŷ" horiz-adv-x="1030" d="M474 401l35-135.999h6l266 817h219l-455-1248c-27.333-72.667-66.5-136-117.5-190s-119.833-81-206.5-81c-16 0-36.333 1.833-61 5.5s-43.667 7.167-57 10.5l20 155c-4 .667 7.833 0 35.5-2s45.167-3 52.5-3c42 0 76.333 18.667 103 56S363-136.333 381-91l47 113L26 1082h220zm348 882v-25H661l-147 148-146-148H208v26l246 237h120z"/><glyph glyph-name="Ydieresis" unicode="Ÿ" horiz-adv-x="1295" d="M645 716l380 740h225L739 512V0H543v527L40 1456h225zm346 888H772v200h219v-200zm-470 0H302v200h219v-200z"/><glyph glyph-name="Zacute" unicode="Ź" horiz-adv-x="1225" d="M319 154h814V0H97v146l778 1155H108v155h992v-141zm385 1709h230l2-6-269-260H519z"/><glyph glyph-name="zacute" unicode="ź" horiz-adv-x="1030" d="M329 154h625V0H94v138l585 788H101v156h819V948zm290 1366h230l2-6-269-260H434z"/><glyph glyph-name="Zdotaccent" unicode="Ż" horiz-adv-x="1225" d="M319 154h814V0H97v146l778 1155H108v155h992v-141zm399 1450H500v201h218v-201z"/><glyph glyph-name="zdotaccent" unicode="ż" horiz-adv-x="1030" d="M329 154h625V0H94v138l585 788H101v156h819V948zm304 1107H415v201h218v-201z"/><glyph glyph-name="Zcaron" unicode="Ž" horiz-adv-x="1225" d="M319 154h814V0H97v146l778 1155H108v155h992v-141zm289 1563l147 148h170v-18l-257-245H549l-254 243v20h166z"/><glyph glyph-name="zcaron" unicode="ž" horiz-adv-x="1030" d="M329 154h625V0H94v138l585 788H101v156h819V948zm194 1220l147 148h170v-18l-257-245H464l-254 243v20h166z"/><glyph glyph-name="longs" unicode="ſ" horiz-adv-x="516" d="M159 0l.001 1219c0 115.333 30.333 204.5 91 267.5s145 94.5 253 94.5c22 0 44.5-1.833 67.5-5.5s48.5-8.834 76.5-15.501l-24-145c-13.333 3.333-27.333 6-42 8s-30.334 3-47.001 3c-58 0-102.167-18.167-132.5-54.5S356 1284.333 356 1219V0H159z"/><glyph glyph-name="florin" unicode="ƒ" horiz-adv-x="702" d="M609 936l-196.001-.001v-1025c0-111.333-28.5-197.166-85.5-257.499S190.666-437 87.999-437c-21.333 0-40.666 1.5-57.999 4.5S-5-425-23-419l14 150c8-3.333 23.167-6.333 45.5-9s39.5-4 51.5-4c40 0 71.333 17.167 94 51.5S216-149 216-89V936H47v146h169v137c0 115.333 30.167 204.5 90.5 267.5S451 1581 559 1581c22.667 0 45.5-1.833 68.5-5.5s48.5-8.834 76.5-15.501l-24-150c-12 2.667-26.5 5-43.5 7s-34.5 3-52.5 3c-58 0-101-17.167-129-51.5s-42-84.166-42-149.499v-137h196V936z"/><glyph glyph-name="Ohorn" unicode="Ơ" horiz-adv-x="1403" d="M1277 598c0-178-55.168-325.667-165.501-443s-253.5-176-429.5-176c-170 0-308.167 58.667-414.5 176s-159.5 265-159.5 443v259c0 177.333 53.167 325 159.5 443s244.5 177 414.5 177c80 0 154.333-13.333 223-40s129.334-64.334 182.001-113.001c82 7.333 144.333 39.5 187 96.5s64 134.5 64 232.5h197c0-128-29.333-232.5-88-313.5s-142-133.5-250-157.5c25.333-47.333 45-98.666 59-153.999s21-112.333 21-171V598zm-197 261c0 133.333-36 242.666-108 327.999s-168.667 128-290 128c-114.667 0-206.167-42.667-274.5-128S305 992.333 305 859V598c0-134.667 34.167-244.667 102.5-330S567.333 140 682 140c122 0 218.833 42.5 290.5 127.5S1080 462.667 1080 598v261z"/><glyph glyph-name="ohorn" unicode="ơ" horiz-adv-x="1175" d="M97 551c0 160 43.331 291.832 129.998 395.499s204.334 155.5 353.001 155.5c68 0 130.333-11.667 187-35s106.334-56 149.001-98c54.667 12 95.334 40 122.001 84s40 100.667 40 170h178c0-95.333-22.167-174.333-66.5-237s-109.5-104.667-195.5-126c23.333-44 41.166-92.167 53.499-144.5S1066 608.333 1066 551v-22c0-161.333-43.333-293.333-130-396S731.333-21 582-21 314.5 30.5 227.5 133.5 97 368.333 97 529v22zm196.998-22.001c0-114.667 24.168-209.334 72.501-284.001s120.166-112 215.499-112c94 0 165.333 37.333 214 112s73 169.334 73 284.001v22c0 113.333-24.5 207.666-73.5 282.999s-120.833 113-215.5 113c-94 0-165.167-37.667-213.5-113s-72.5-169.666-72.5-282.999v-22z"/><glyph glyph-name="Uhorn" unicode="Ư" horiz-adv-x="1430" d="M1244 1456l-.001-177.998 6-2c57.333 18 101.333 54.167 132 108.5s46 123.166 46 206.499h190l3-5c1.333-128.667-30.667-233.5-96-314.5s-159-132.833-281-155.5v-627c0-160-52-285-156-375s-238-135-402-135c-158 0-287.333 45.167-388 135.5s-151 215.166-151 374.499v967h197V489c0-111.333 31.833-198.5 95.5-261.5S585.333 133 686 133c106.667 0 193.5 31.5 260.5 94.5S1047 377.667 1047 489v967h197z"/><glyph glyph-name="uhorn" unicode="ư" horiz-adv-x="1204" d="M1380 1227l3-6.001c2-118-26.5-209-85.5-273s-151.5-100.667-277.5-110v-838H843l-13 160c-34-58-77.667-102.667-131-134s-115-47-185-47c-118 0-210 37.667-276 113s-99 192.666-99 351.999v638h197v-640c0-115.333 17-194.666 51-237.999s87-65 159-65c70 0 127.833 14.167 173.5 42.5s80.167 68.5 103.5 120.5v780h197v-114l6-2c66.667 4.667 114.167 28.334 142.5 71.001s42.5 106 42.5 190h169z"/><glyph glyph-name="uni01F0" unicode="ǰ" horiz-adv-x="523" d="M368 1082V-89c0-111.333-28.667-197.166-86-257.499s-137-90.5-239-90.5c-20.667 0-39.5 1.5-56.5 4.5s-35.167 7.5-54.5 13.5l14 150c9.333-3.333 24.833-6.333 46.5-9s38.5-4 50.5-4c39.333 0 70.5 17.167 93.5 51.5s34.5 81.5 34.5 141.5v1171h197zm-98 273l147 148h170v-18l-257-245H211l-254 243v20h166z"/><glyph glyph-name="Aringacute" unicode="Ǻ" horiz-adv-x="1295" d="M922 375H374L244 0H43l525 1456h169L1251 0h-201zM431 540h435l-212 625h-6zm317 1545h199l2-6-216-179H604zm-272-401c0 48 17 87.833 51 119.5s75.333 47.5 124 47.5c46.667 0 86.667-15.833 120-47.5s50-71.5 50-119.5-16.5-87.333-49.5-118-73.167-46-120.5-46c-48.667 0-90 15.333-124 46s-51 70-51 118zm88 0c0-23.333 8.5-43.167 25.5-59.5S627 1600 651 1600c22.667 0 42.167 8 58.5 24s24.5 36 24.5 60c0 24.667-8.167 45.5-24.5 62.5S673.667 1772 651 1772c-24 0-44.5-8.5-61.5-25.5S564 1708.667 564 1684z"/><glyph glyph-name="aringacute" unicode="ǻ" horiz-adv-x="1126" d="M808 0c-6.667 32.667-11.831 61.5-15.498 86.5s-5.834 50.167-6.501 75.5c-36.667-52-84.5-95.5-143.5-130.5S520.001-21 452.001-21c-112.667 0-198.5 28.833-257.5 86.5s-88.5 137.167-88.5 238.5c0 103.333 41.833 184.166 125.5 242.499s197.167 87.5 340.5 87.5h214v107c0 63.333-19.333 113.5-58 150.5s-93.334 55.5-164.001 55.5c-64 0-115.667-16-155-48s-59-70.333-59-115l-187-2-2 6c-4.667 78.667 32.166 150.667 110.499 216s179.5 98 303.5 98c122.667 0 221.334-31.167 296.001-93.5S983 856.333 983 739V218c0-38.667 2-76 6-112s11.333-71.333 22-106H808zM481.003 144c71.333 0 135.668 18.333 193.001 55s94.666 78.667 111.999 126v176h-221c-79.333 0-142.833-20-190.5-60s-71.5-87-71.5-141c0-48 15-86 45-114s74.333-42 133-42zm174.002 1619h199l2-6-216-179h-129zm-272-401c0 48 17 87.833 51 119.5s75.333 47.5 124 47.5c46.667 0 86.667-15.833 120-47.5s50-71.5 50-119.5-16.5-87.333-49.5-118-73.167-46-120.5-46c-48.667 0-90 15.333-124 46s-51 70-51 118zm88 0c0-23.333 8.5-43.167 25.5-59.5s37.5-24.5 61.5-24.5c22.667 0 42.167 8 58.5 24s24.5 36 24.5 60c0 24.667-8.167 45.5-24.5 62.5s-35.833 25.5-58.5 25.5c-24 0-44.5-8.5-61.5-25.5s-25.5-37.833-25.5-62.5z"/><glyph glyph-name="AEacute" unicode="Ǽ" horiz-adv-x="1999" d="M1924 0h-895l-15 350H457L256 0H14l881 1456h967v-155h-691l20-466h590V680h-584l22-526h705V0zM560 529h447l-31 710-5 2zm506 1334h230l2-6-269-260H881z"/><glyph glyph-name="aeacute" unicode="ǽ" horiz-adv-x="1789" d="M1292-21c-90.667 0-170.666 16.167-239.999 48.5s-126 78.5-170 138.5c-37.333-52.667-93.166-97-167.499-133s-164.833-54-271.5-54c-113.333 0-200.833 29-262.5 87s-92.5 137.333-92.5 238c0 104.667 38.333 185.667 115 243s188.334 86 335.001 86h229v87c0 70.667-17.333 126.167-52 166.5S630.669 947 566.002 947c-68.667 0-123.334-18.333-164.001-55s-61-81-61-133l-188 18-2 6c-3.333 92 33.334 168.167 110.001 228.5s178.334 90.5 305.001 90.5c76 0 143.167-13.5 201.5-40.5S871.669 995.333 905.002 944c42.667 50 93.167 88.833 151.5 116.5s121.166 41.5 188.499 41.5c142.667 0 252.5-43.333 329.5-130s115.5-206 115.5-358V495h-709l-2-5c.667-106 27.167-192 79.5-258s130.166-99 233.499-99c68.667 0 125.167 9.167 169.5 27.5S1554 205 1606 239l67-138c-35.333-29.333-84.333-57-147-83s-140.667-39-234-39zM482.001 133c50.667 0 103.667 14.5 159 43.5s97.333 62.5 126 100.5v214h-227c-80 0-142.5-18.5-187.5-55.5s-67.5-82.167-67.5-135.5c0-49.333 16.667-89.5 50-120.5s82.333-46.5 147-46.5zM1245 947c-75.333 0-136-28.166-182-84.499s-72.667-128.833-80-217.5l2-5h508v31c0 81.333-20 147.666-60 198.999s-102.667 77-188 77zm-260.999 595h230l2-6-269-260h-148z"/><glyph glyph-name="Oslashacute" unicode="Ǿ" horiz-adv-x="1396" d="M1282 598c0-178-55.166-325.668-165.499-443.001s-253.5-176-429.5-176c-56.667 0-110.167 6.833-160.5 20.5S429.668 33.333 387.001 60l-91-154h-149l139 234c-56 56-98.833 123.333-128.5 202s-44.5 164-44.5 256v259c0 177.333 53.167 325 159.5 443s244.5 177 414.5 177c62.667 0 122.167-8.5 178.5-25.5s108.5-40.833 156.5-71.5l81 137h149l-132-221c51.333-56 91.166-121.667 119.499-197s42.5-156 42.5-242V598zm-971.999-.001c0-56.667 6.332-109.333 18.999-158s30.667-90.334 54-125.001l6-1 544 916c-33.333 27.333-70.666 48.333-111.999 63s-86 22-134 22c-114.667 0-206.167-42.667-274.5-128s-102.5-194.666-102.5-327.999v-261zM1085 859c0 50-5.498 97.333-16.498 142s-26.5 83.667-46.5 117l-6 1-541-911c29.333-22.667 61.666-39.667 96.999-51S645.667 140 687 140c122 0 218.833 42.5 290.5 127.5S1085 462.667 1085 598v261zM793.002 1925h230l2-6-269-260h-148z"/><glyph glyph-name="oslashacute" unicode="ǿ" d="M97 551c0 160 43.333 291.83 130 395.497s204.334 155.5 353.001 155.5c37.333 0 73.166-3.667 107.499-11s66.833-17.666 97.5-30.999l74 149h129l-104-211c58.667-49.333 103.667-112.666 135-189.999s47-163 47-257v-22c0-161.333-43.333-293.333-130-396s-204.667-154-354-154c-34 0-66.333 2.833-97 8.5S425 1.333 397 12l-72-147H196L296 69c-64 47.333-113.167 111-147.5 191S97 429.667 97 529v22zm197-22.003c0-60.667 6.667-116.168 20-166.501s33.666-91.5 60.999-123.5h6l332 674c-19.333 10.667-40.166 19-62.499 25s-45.833 9-70.5 9c-94 0-165.167-37.667-213.5-113S294 664.33 294 550.997v-22zm575 21.999c0 53.333-5.833 103.499-17.5 150.499s-28.167 86.167-49.5 117.5h-6l-327-663c16-8 33.333-13.833 52-17.5s39-5.5 61-5.5c94 0 165.333 37.333 214 112s73 169.334 73 284.001v22zM634 1540h230l2-6-269-260H449z"/><glyph glyph-name="Scommaaccent" unicode="Ș" horiz-adv-x="1252" d="M946 367c0 66-23.666 121.331-70.999 165.998s-130.666 82.667-249.999 114c-148 36.667-263.5 90.667-346.5 162s-124.5 161-124.5 269c0 114 44.667 209 134 285s205.333 114 348 114c153.333 0 275.5-43.5 366.5-130.5s135.167-188.5 132.5-304.5l-3-6h-188c0 82.667-28.833 151-86.5 205s-131.5 81-221.5 81c-92 0-162.5-22.333-211.5-67s-73.5-102.667-73.5-174c0-63.333 26.833-116.166 80.5-158.499s140.834-79.5 261.501-111.5c146.667-38 258.334-94 335.001-168s115-165.333 115-274c0-117.333-46.167-211.666-138.5-282.999S791.671-21 643.004-21C502.337-21 378.17 18.333 270.503 97S110.669 281 114.002 413l2 6h188c0-91.333 34.667-161.833 104-211.5S555.668 133 643.001 133c93.333 0 167.166 21 221.499 63S946 295 946 367zM696.001-259.002l-122-237h-97l61 246v131h158v-140z"/><glyph glyph-name="scommaaccent" unicode="ș" horiz-adv-x="1071" d="M772 291c0 43.333-16.504 78.667-49.504 106s-95.5 51.333-187.5 72c-127.333 27.333-225.166 65.666-293.499 114.999s-102.5 115.333-102.5 198c0 88 37.5 163.333 112.5 226s172.167 94 291.5 94c122.667 0 222-33.333 298-100s112.333-144.334 109-233.001l-2-6h-188c0 46.667-20.5 89-61.5 127s-92.833 57-155.5 57c-69.333 0-121.166-15.667-155.499-47s-51.5-68.666-51.5-111.999c0-42.667 14.833-75.667 44.5-99S471.332 644.333 564 625c132.666-28 233.333-67.667 302-119s103-118.333 103-201c0-96-38.833-174.333-116.5-235S673.333-21 548-21C410-21 301.333 14 222 84S105 235.667 109 329l2 6h188c3.333-70 29.333-121.167 78-153.5S482.667 133 548 133c70 0 124.833 14.833 164.5 44.5S772 245 772 291zM605.996-257.999l-122-237h-97l61 246v131h158v-140z"/><glyph glyph-name="uni0237" unicode="ȷ" horiz-adv-x="523" d="M368 1082V-89c0-111.333-28.667-197.166-86-257.499s-137-90.5-239-90.5c-20.667 0-39.5 1.5-56.5 4.5s-35.167 7.5-54.5 13.5l14 150c9.333-3.333 24.833-6.333 46.5-9s38.5-4 50.5-4c39.333 0 70.5 17.167 93.5 51.5s34.5 81.5 34.5 141.5v1171h197z"/><glyph glyph-name="uni02BC" unicode="ʼ" horiz-adv-x="516" d="M358 1263L257 917h-97l1 343v196h197v-193z"/><glyph glyph-name="circumflex" unicode="ˆ" horiz-adv-x="979" d="M785 1277v-25H624l-147 148-146-148H171v26l246 237h120z"/><glyph glyph-name="caron" unicode="ˇ" horiz-adv-x="922" d="M453 1367l147 148h170v-18l-257-245H394l-254 243v20h166z"/><glyph glyph-name="breve" unicode="˘" horiz-adv-x="876" d="M722 1456l2-6c2.667-77.333-23-140.333-77-189s-126.667-73-218-73c-92 0-165 24.333-219 73s-79.333 111.667-76 189l2 6h151c0-44 11.333-79.667 34-107s58.667-41 108-41c48 0 83.667 13.833 107 41.5s35 63.167 35 106.5h151z"/><glyph glyph-name="dotaccent" unicode="˙" horiz-adv-x="556" d="M378 1255H160v201h218v-201z"/><glyph glyph-name="ring" unicode="˚" horiz-adv-x="696" d="M165 1308c0 48 17.167 88.167 51.5 120.5S292.333 1477 341 1477c48 0 88.833-16.167 122.5-48.5S514 1356 514 1308c0-48.667-16.833-88.167-50.5-118.5S389 1144 341 1144c-49.333 0-91 15.333-125 46s-51 70-51 118zm100 0c0-20.667 7.5-38.167 22.5-52.5s32.833-21.5 53.5-21.5c20 0 37.167 7 51.5 21s21.5 31.667 21.5 53-7.167 39.5-21.5 54.5S361 1385 341 1385c-21.333 0-39.333-7.5-54-22.5s-22-33.167-22-54.5z"/><glyph glyph-name="ogonek" unicode="˛" horiz-adv-x="562" d="M388 0c-46.667-34.667-83.167-67.833-109.5-99.5S239-165 239-201c0-28 7.5-50 22.5-66s39.5-24 73.5-24c18 0 34.667 2.5 50 7.5s31.666 11.167 48.999 18.5l33-123c-24-12.667-50.5-23.167-79.5-31.5s-63.5-12.5-103.5-12.5c-63.333 0-115.166 18.333-155.499 55S68-289 68-223c0 53.333 20.167 104 60.5 152S231.333 19.667 316 57z"/><glyph glyph-name="tilde" unicode="˜" horiz-adv-x="979" d="M829 1491c0-62.667-19.834-115.666-59.501-158.999s-89.5-65-149.5-65c-47.333 0-96.666 15.5-147.999 46.5s-94 46.5-128 46.5c-28.667 0-52.667-10.833-72-32.5s-29-47.834-29-78.501l-108 26c0 62 19.667 115.833 59 161.5s89.333 68.5 150 68.5c37.333 0 84-15.667 140-47s101.333-47 136-47c27.333 0 51 10.833 71 32.5s30 48.167 30 79.5z"/><glyph glyph-name="hungarumlaut" unicode="˝" horiz-adv-x="762" d="M610 1518h229l3-6-300-260H371l-2 5zm-326 0h211l2-5-240-261H100z"/><glyph glyph-name="uni02F3" unicode="˳" horiz-adv-x="672" d="M182-234c0 43.333 15.168 79.166 45.501 107.499s67.5 42.5 111.5 42.5c42 0 78-14.167 108-42.5s45-64.166 45-107.499c0-42-14.833-76.667-44.5-104S381.667-379 339-379c-44 0-81.167 13.667-111.5 41S182-276 182-234zm89.001 0c0-17.333 6.667-32.334 20-45.001s29.333-19 48-19c17.333 0 32.333 6.167 45 18.5s19 27.5 19 45.5c0 20-6.333 36.5-19 49.5s-27.667 19.5-45 19.5c-18.667 0-34.667-6.667-48-20s-20-29.666-20-48.999z"/><glyph glyph-name="gravecomb" unicode="̀" horiz-adv-x="0" d="M-509.459 1264.03h-110.13l-174.255 343.281 2.09 7.922h160.315z"/><glyph glyph-name="acutecomb" unicode="́" horiz-adv-x="0" d="M-512.273 1616.16h157.016l1.365-7.945-183.64-344.297H-638.57z"/><glyph glyph-name="tildecomb" unicode="̃" horiz-adv-x="0" d="M-190 1491c0-62.667-19.834-115.666-59.501-158.999s-89.5-65-149.5-65c-47.333 0-96.666 15.5-147.999 46.5s-94 46.5-128 46.5c-28.667 0-52.667-10.833-72-32.5s-29-47.834-29-78.501l-108 26c0 62 19.667 115.833 59 161.5s89.333 68.5 150 68.5c37.333 0 84-15.667 140-47s101.333-47 136-47c27.333 0 51 10.833 71 32.5s30 48.167 30 79.5z"/><glyph glyph-name="hook" unicode="̉" horiz-adv-x="0" d="M-657 1242l-1.001 153.997c50.667 2.667 86.834 9.334 108.501 20.001s32.5 28.334 32.5 53.001c0 26-14.5 45.333-43.5 58s-67.833 19-116.5 19l7 108c98 0 173.333-17.167 226-51.5s79-80.166 79-137.499c0-46.667-14.333-82.167-43-106.5s-64.667-39.5-108-45.5l-1-71h-140z"/><glyph glyph-name="uni030F" unicode="̏" horiz-adv-x="0" d="M-507 1257l-2-5h-171l-300 260 3 6h229zm269-5h-157l-241 261 2 5h212z"/><glyph glyph-name="dotbelow" unicode="̣" horiz-adv-x="0" d="M-490-337h-218v200h218v-200z"/><glyph glyph-name="tonos" unicode="΄" horiz-adv-x="526" d="M236 1543h208l-155-271h-83z"/><glyph glyph-name="dieresistonos" unicode="΅" horiz-adv-x="1045" d="M869 1256H670v200h199v-200zm-510 0H161v200h198v-200zm138 474h218l-127-262H446z"/><glyph glyph-name="Alphatonos" unicode="Ά" horiz-adv-x="1295" d="M922 375H374L244 0H43l525 1456h169L1251 0h-201zM431 540h435l-212 625h-6zM229 1543h208l-155-271h-83z"/><glyph glyph-name="anoteleia" unicode="·" horiz-adv-x="541" d="M359 624H161v212h198V624z"/><glyph glyph-name="Epsilontonos" unicode="Έ" horiz-adv-x="1130" d="M965 675H367V154h700V0H170v1456h886v-155H367V830h598V675zM-98 1545h208l-155-271h-83z"/><glyph glyph-name="Etatonos" unicode="Ή" horiz-adv-x="1441" d="M1271 0h-197v643H367V0H170v1456h197V798h707v658h197V0zM-49 1545h208L4 1274h-83z"/><glyph glyph-name="Iotatonos" unicode="Ί" horiz-adv-x="579" d="M388 0H190v1456h198V0zM-35 1544h208L18 1273h-83z"/><glyph glyph-name="Omicrontonos" unicode="Ό" horiz-adv-x="1396" d="M1282 598c0-178-55.167-325.667-165.5-443S863-21 687-21c-170 0-308.167 58.667-414.5 176S113 420 113 598v259c0 177.333 53.167 325 159.5 443S517 1477 687 1477c176 0 319.167-58.833 429.5-176.5S1282 1035 1282 857V598zm-197 261c0 133.333-36 242.666-108 327.999s-168.667 128-290 128c-114.667 0-206.167-42.667-274.5-128S310 992.333 310 859V598c0-134.667 34.167-244.667 102.5-330S572.333 140 687 140c122 0 218.833 42.5 290.5 127.5S1085 462.667 1085 598v261zM90 1543h208l-155-271H60z"/><glyph glyph-name="Upsilontonos" unicode="Ύ" horiz-adv-x="1295" d="M645 716l380 740h225L739 512V0H543v527L40 1456h225zm-811 827H42l-155-271h-83z"/><glyph glyph-name="Omegatonos" unicode="Ώ" horiz-adv-x="1366" d="M735 159c94 16.667 167.166 72.833 219.499 168.5s78.5 227.167 78.5 394.5v118c0 155.333-32.167 274.5-96.5 357.5S783.333 1322 670 1322c-112.667 0-201-41.5-265-124.5S309 995.333 309 840V722c0-167.333 26.833-299 80.5-395S517.667 175 613 159V0H118v154h253c-80 61.333-143.167 143.5-189.5 246.5S112 610.667 112 722v116c0 189.333 51.5 343.166 154.5 461.499s237.5 177.5 403.5 177.5 300.833-59.167 404.5-177.5S1230 1027.333 1230 838V722c0-111.333-23.167-218.333-69.5-321S1051.667 216 973 154h259V0H735v159zM80.999 1543h208l-155-271h-83z"/><glyph glyph-name="iotadieresistonos" unicode="ΐ" horiz-adv-x="672" d="M394 1081l-.001-812.998c0-48.667 8.833-82.334 26.5-101.001s41.5-28 71.5-28c16.667 0 33 2.5 49 7.5s30 11.167 42 18.5l44-133c-30-20.667-59.833-34.667-89.5-42s-62.167-11-97.5-11c-79.333 0-139.666 23.667-180.999 71S197 173.667 197 279v802h197zm261.999 102h-199v200h199v-200zm-510 0h-198v200h198v-200zm138 474h218l-127-262h-142z"/><glyph glyph-name="Alpha" unicode="Α" horiz-adv-x="1295" d="M922 375H374L244 0H43l525 1456h169L1251 0h-201zM431 540h435l-212 625h-6z"/><glyph glyph-name="Beta" unicode="Β" horiz-adv-x="1302" d="M170 0v1456h475c152 0 271-32.833 357-98.5s129-164.167 129-295.5c0-62.667-19.333-118.834-58-168.501s-90-87.5-154-113.5c95.333-13.333 170.833-54.666 226.5-123.999s83.5-151 83.5-245c0-133.333-43.333-235.166-130-305.499S895 .001 747 .001H170zm197 682.999V154.001h380c90 0 159.833 22.167 209.5 66.5S1031 327.667 1031 409c0 80.667-25.333 145.667-76 195s-119 75.666-205 78.999H367zm0 154.002h319c73.333 0 133 20.167 179 60.5s69 96.5 69 168.5c0 78.667-24.833 137.5-74.5 176.5s-121.167 58.5-214.5 58.5H367v-464z"/><glyph glyph-name="Gamma" unicode="Γ" horiz-adv-x="1123" d="M1056 1301H360V0H163v1456h893v-155z"/><glyph glyph-name="Delta" unicode="Δ" horiz-adv-x="1447" d="M647 1456h169L1392 0H30zM294 154h838L732 1204h-6z"/><glyph glyph-name="Delta" unicode="∆" horiz-adv-x="1447" d="M647 1456h169L1392 0H30zM294 154h838L732 1204h-6z"/><glyph glyph-name="Epsilon" unicode="Ε" horiz-adv-x="1130" d="M965 675H367V154h700V0H170v1456h886v-155H367V830h598V675z"/><glyph glyph-name="Zeta" unicode="Ζ" horiz-adv-x="1225" d="M319 154h814V0H97v146l778 1155H108v155h992v-141z"/><glyph glyph-name="Eta" unicode="Η" horiz-adv-x="1441" d="M1271 0h-197v643H367V0H170v1456h197V798h707v658h197V0z"/><glyph glyph-name="Theta" unicode="Θ" horiz-adv-x="1396" d="M959 659H450v154h509V659zm323-61c0-178-55.167-325.667-165.5-443S863-21 687-21c-170 0-308.167 58.667-414.5 176S113 420 113 598v259c0 177.333 53.167 325 159.5 443S517 1477 687 1477c176 0 319.167-58.833 429.5-176.5S1282 1035 1282 857V598zm-197 261c0 133.333-36 242.666-108 327.999s-168.667 128-290 128c-114.667 0-206.167-42.667-274.5-128S310 992.333 310 859V598c0-134.667 34.167-244.667 102.5-330S572.333 140 687 140c122 0 218.833 42.5 290.5 127.5S1085 462.667 1085 598v261z"/><glyph glyph-name="Iota" unicode="Ι" horiz-adv-x="579" d="M388 0H190v1456h198V0z"/><glyph glyph-name="Kappa" unicode="Κ" horiz-adv-x="1302" d="M495 658H367V0H170v1456h197V812h108l540 644h222l2-5-590-689L1281 5l-2-5h-239z"/><glyph glyph-name="Lambda" unicode="Λ" horiz-adv-x="1345" d="M671 1171h-6L250 0H49l534 1456h170L1287 0h-201z"/><glyph glyph-name="Mu" unicode="Μ" horiz-adv-x="1779" d="M892 273h6l465 1183h245V0h-197v1091l-6 1L964 0H827L373 1128l-6-1V0H170v1456h259z"/><glyph glyph-name="Nu" unicode="Ν" horiz-adv-x="1442" d="M1271 0h-197L373 1112l-6-2V0H170v1456h197l701-1111 6 2v1109h197V0z"/><glyph glyph-name="Xi" unicode="Ξ" horiz-adv-x="1173" d="M123 154h937V0H123v154zm83 679h761V678H206v155zm-82 623h924v-155H124v155z"/><glyph glyph-name="Omicron" unicode="Ο" horiz-adv-x="1396" d="M1282 598c0-178-55.167-325.667-165.5-443S863-21 687-21c-170 0-308.167 58.667-414.5 176S113 420 113 598v259c0 177.333 53.167 325 159.5 443S517 1477 687 1477c176 0 319.167-58.833 429.5-176.5S1282 1035 1282 857V598zm-197 261c0 133.333-36 242.666-108 327.999s-168.667 128-290 128c-114.667 0-206.167-42.667-274.5-128S310 992.333 310 859V598c0-134.667 34.167-244.667 102.5-330S572.333 140 687 140c122 0 218.833 42.5 290.5 127.5S1085 462.667 1085 598v261z"/><glyph glyph-name="Pi" unicode="Π" horiz-adv-x="1439" d="M1271 0h-197v1301H365V0H168v1456h1103V0z"/><glyph glyph-name="Rho" unicode="Ρ" horiz-adv-x="1302" d="M367 584V0H170v1456h557c155.333 0 276.166-40 362.499-120s129.5-185.333 129.5-316c0-132-43.167-237.667-129.5-317S882.333 584 727 584H367zm0 154h359.999c98.667 0 172.334 26.5 221.001 79.5s73 119.833 73 200.5-24.5 148-73.5 202-122.5 81-220.5 81H367V738z"/><glyph glyph-name="Sigma" unicode="Σ" horiz-adv-x="1173" d="M758 715L313 160l3-5h780V0H70v147l480 581-480 581v147h976v-155H316l-3-5 445-557v-24z"/><glyph glyph-name="Tau" unicode="Τ" horiz-adv-x="1225" d="M1188 1301H708V0H511v1301H37v155h1151v-155z"/><glyph glyph-name="Upsilon" unicode="Υ" horiz-adv-x="1295" d="M645 716l380 740h225L739 512V0H543v527L40 1456h225z"/><glyph glyph-name="Phi" unicode="Φ" horiz-adv-x="1439" d="M820 1229c153.333-3.333 281.166-52.168 383.499-146.501s153.5-214.166 153.5-359.499c0-147.333-51.167-268.5-153.5-363.5S973.333 215.667 820 213V0H623v213c-154.667 2-283.167 50.333-385.5 145S84 573.667 84 721c0 146 51.167 266.667 153.5 362s230.833 144.333 385.5 147v226h197v-227zM279 720.998c0-107.333 29.5-192.168 88.5-254.501s142.167-93.166 249.5-92.499l6 2v691l-6 2c-106.667.667-189.667-30.5-249-93.5s-89-147.833-89-254.5zm882 1.998c0 106-29.667 190.167-89 252.5s-141.333 93.5-246 93.5l-6-2v-691l6-2c104.667-.667 186.667 30.5 246 93.5s89 148.167 89 255.5z"/><glyph glyph-name="Chi" unicode="Χ" horiz-adv-x="1295" d="M650 888l340 568h238L766 734 1238 0h-235L654 578 304 0H66l472 734-462 722h236z"/><glyph glyph-name="Psi" unicode="Ψ" horiz-adv-x="1416" d="M787 485l5.999-2c96 12.667 172.833 54.167 230.5 124.5s86.5 162.833 86.5 277.5v571h197V885c0-163.333-47.667-294.5-143-393.5s-221-156.5-377-172.5V0h-198v320c-151.333 16-272.833 73.333-364.5 172s-137.5 229.667-137.5 393v571h196V885c0-113.333 27.333-205 82-275S492.333 498.333 583 485l6 1v970h198V485z"/><glyph glyph-name="Omega" unicode="Ω" horiz-adv-x="1366" d="M735 159c94 16.667 167.166 72.833 219.499 168.5s78.5 227.167 78.5 394.5v118c0 155.333-32.167 274.5-96.5 357.5S783.333 1322 670 1322c-112.667 0-201-41.5-265-124.5S309 995.333 309 840V722c0-167.333 26.833-299 80.5-395S517.667 175 613 159V0H118v154h253c-80 61.333-143.167 143.5-189.5 246.5S112 610.667 112 722v116c0 189.333 51.5 343.166 154.5 461.499s237.5 177.5 403.5 177.5 300.833-59.167 404.5-177.5S1230 1027.333 1230 838V722c0-111.333-23.167-218.333-69.5-321S1051.667 216 973 154h259V0H735v159z"/><glyph glyph-name="Omega" unicode="Ω" horiz-adv-x="1366" d="M735 159c94 16.667 167.166 72.833 219.499 168.5s78.5 227.167 78.5 394.5v118c0 155.333-32.167 274.5-96.5 357.5S783.333 1322 670 1322c-112.667 0-201-41.5-265-124.5S309 995.333 309 840V722c0-167.333 26.833-299 80.5-395S517.667 175 613 159V0H118v154h253c-80 61.333-143.167 143.5-189.5 246.5S112 610.667 112 722v116c0 189.333 51.5 343.166 154.5 461.499s237.5 177.5 403.5 177.5 300.833-59.167 404.5-177.5S1230 1027.333 1230 838V722c0-111.333-23.167-218.333-69.5-321S1051.667 216 973 154h259V0H735v159z"/><glyph glyph-name="Iotadieresis" unicode="Ϊ" horiz-adv-x="579" d="M388 0H190v1456h198V0zm247 1605H416v200h219v-200zm-470 0H-54v200h219v-200z"/><glyph glyph-name="Upsilondieresis" unicode="Ϋ" horiz-adv-x="1295" d="M645 716l380 740h225L739 512V0H543v527L40 1456h225zm346 888H772v200h219v-200zm-470 0H302v200h219v-200z"/><glyph glyph-name="alphatonos" unicode="ά" horiz-adv-x="1158" d="M1001 1081l-.001-805c0-48 6.833-81.333 20.5-100s32.167-28 55.5-28c10 0 19.333.5 28 1.5s16.667 2.833 24 5.5l23-142c-19.333-13.333-39-22.333-59-27s-42.333-7-67-7c-50 0-91.667 10.667-125 32s-58 55-74 101c-36.667-44-80.5-77.167-131.5-99.5S585.999-21 519.999-21c-132 0-235.333 47.833-310 143.5s-112 221.5-112 377.5v21c0 174 37.167 314.333 111.5 421s178.5 160 312.5 160c67.333 0 126.833-12 178.5-36S796.333 1007.333 833 962l51 119h117zM294.999 500c0-109.333 22.5-197.833 67.5-265.5S476.666 133 569.999 133c54 0 100 11.833 138 35.5s70 56.834 96 99.501v549c-26 40-58.167 71.667-96.5 95s-83.5 35-135.5 35c-94 0-163.667-39.833-209-119.5s-68-181.834-68-306.501v-21zm314 1050h208l-155-271h-83z"/><glyph glyph-name="epsilontonos" unicode="έ" horiz-adv-x="1103" d="M538 477c-80.667 0-141.166-14.17-181.499-42.504s-60.5-71.5-60.5-129.5c0-48.667 22.833-89.667 68.5-123s107.834-50 186.501-50c74.667 0 136.167 18.667 184.5 56s72.5 81.333 72.5 132h186l2-6c3.333-108-39.334-190.5-128.001-247.5S673.667-19.004 551-19.004c-134.667 0-243.834 28.833-327.501 86.5s-125.5 136.834-125.5 237.501c0 60.667 17.167 112.334 51.5 155.001s84.5 74.667 150.5 96c-58 23.333-103 55.333-135 96s-48 85.334-48 134.001c0 100 38.833 177.333 116.5 232s183.5 82 317.5 82c122 0 224.5-29.167 307.5-87.5s122.833-133.833 119.5-226.5l-2-6h-186c0 46.667-23.167 86.334-69.5 119.001s-102.833 49-169.5 49c-77.333 0-136.166-15.833-176.499-47.5S314 830.666 314 786c0-49.334 18.167-88.167 54.5-116.5S461.333 627 538 627h209V477H538zm-2.999 1072h208l-155-271h-83z"/><glyph glyph-name="etatonos" unicode="ή" d="M319 1082l13.001-150c36 54 80.667 95.833 134 125.5S579.667 1102 647 1102c118 0 208.5-32.5 271.5-97.5S1013 832.333 1013 683V-415H816V679c0 95.333-19 163.833-57 205.5S663.333 947 586 947c-56.667 0-105.5-11.167-146.5-33.5S365.333 860 340 820V0H143v1082h176zm243.001 468h208l-155-271h-83z"/><glyph glyph-name="iotatonos" unicode="ί" horiz-adv-x="672" d="M394 1081l-.001-812.998c0-48.667 8.833-82.334 26.5-101.001s41.5-28 71.5-28c16.667 0 33 2.5 49 7.5s30 11.167 42 18.5l44-133c-30-20.667-59.833-34.667-89.5-42s-62.167-11-97.5-11c-79.333 0-139.666 23.667-180.999 71S197 173.667 197 279v802h197zm-108.001 449h208l-155-271h-83z"/><glyph glyph-name="upsilondieresistonos" unicode="ΰ" d="M338 1082l-.001-612c0-116.667 23-202 69-256s108-81 186-81c91.333 0 159.5 42.167 204.5 126.5s67.5 185.166 67.5 302.499c-2 84-14 169-36 255s-51.333 174.333-88 265h206c34-71.333 61.667-150.166 83-236.499s32-180.833 32-283.5c0-170-37-309.667-111-419s-190-164-348-164C455.666-21 341.833 19.333 261.5 100S141 304.667 141 472v610h197zm614.999 101h-199v200h199v-200zm-510 0h-198v200h198v-200zm138 474h218l-127-262h-142z"/><glyph glyph-name="alpha" unicode="α" horiz-adv-x="1158" d="M1001 1081l-.001-805c0-48 6.833-81.333 20.5-100s32.167-28 55.5-28c10 0 19.333.5 28 1.5s16.667 2.833 24 5.5l23-142c-19.333-13.333-39-22.333-59-27s-42.333-7-67-7c-50 0-91.667 10.667-125 32s-58 55-74 101c-36.667-44-80.5-77.167-131.5-99.5S585.999-21 519.999-21c-132 0-235.333 47.833-310 143.5s-112 221.5-112 377.5v21c0 174 37.167 314.333 111.5 421s178.5 160 312.5 160c67.333 0 126.833-12 178.5-36S796.333 1007.333 833 962l51 119h117zM294.999 500c0-109.333 22.5-197.833 67.5-265.5S476.666 133 569.999 133c54 0 100 11.833 138 35.5s70 56.834 96 99.501v549c-26 40-58.167 71.667-96.5 95s-83.5 35-135.5 35c-94 0-163.667-39.833-209-119.5s-68-181.834-68-306.501v-21z"/><glyph glyph-name="beta" unicode="β" horiz-adv-x="1213" d="M607 1477c130 0 234.333-36.668 313-110.001s118-168 118-284c0-60.667-16.667-116.5-50-167.5s-79-91.5-137-121.5c79.333-29.333 141.166-76.666 185.499-141.999s66.5-141 66.5-227c0-139.333-42.167-248.5-126.5-327.5S782.666-21 647.999-21c-54.667 0-107.5 7.5-158.5 22.5s-96.167 37.833-135.5 68.5v-453h-197v1456c0 110 44.333 204.833 133 284.5S484.333 1477 607 1477zm-4-617.001c81.333 0 141.334 20.169 180.001 60.502s58 95.833 58 166.5c0 63.333-20.833 118.333-62.5 165s-98.834 70-171.501 70c-71.333 0-131.333-23.833-180-71.5S354 1143.667 354 1073V243c29.333-34.667 67.5-61.667 114.5-81s100.167-29 159.5-29c86 0 153.833 26.667 203.5 80S906 335.666 906 420.999c0 74.667-21.833 140.667-65.5 198s-102.5 86-176.5 86H521v155h82z"/><glyph glyph-name="gamma" unicode="γ" horiz-adv-x="1031" d="M795 1082h201L621 62v-479H424V67L46 1082h202l256-763 17-76h6l19 76z"/><glyph glyph-name="delta" unicode="δ" d="M938 1456l.002-151h-454l-2-6 371-277c67.333-50 119.666-116 156.999-198s56-173 56-273v-22c0-161.333-43.333-293.333-130-396s-204.667-154-354-154-267.5 51.5-354.5 154.5-130.5 234.833-130.5 395.5v22c0 143.333 35.167 264.833 105.5 364.5S369.667 1075 493 1095l7 1 2 6-297 236v118h733zM580.002 947c-94 0-165.166-37.667-213.499-113s-72.5-169.666-72.5-282.999v-22c0-114.667 24.167-209.334 72.5-284.001s120.166-112 215.499-112c94 0 165.333 37.333 214 112s73 169.334 73 284.001v22c0 113.333-24.5 207.666-73.5 282.999s-120.833 113-215.5 113z"/><glyph glyph-name="epsilon" unicode="ε" horiz-adv-x="1103" d="M538 477c-80.667 0-141.166-14.17-181.499-42.504s-60.5-71.5-60.5-129.5c0-48.667 22.833-89.667 68.5-123s107.834-50 186.501-50c74.667 0 136.167 18.667 184.5 56s72.5 81.333 72.5 132h186l2-6c3.333-108-39.334-190.5-128.001-247.5S673.667-19.004 551-19.004c-134.667 0-243.834 28.833-327.501 86.5s-125.5 136.834-125.5 237.501c0 60.667 17.167 112.334 51.5 155.001s84.5 74.667 150.5 96c-58 23.333-103 55.333-135 96s-48 85.334-48 134.001c0 100 38.833 177.333 116.5 232s183.5 82 317.5 82c122 0 224.5-29.167 307.5-87.5s122.833-133.833 119.5-226.5l-2-6h-186c0 46.667-23.167 86.334-69.5 119.001s-102.833 49-169.5 49c-77.333 0-136.166-15.833-176.499-47.5S314 830.666 314 786c0-49.334 18.167-88.167 54.5-116.5S461.333 627 538 627h209V477H538z"/><glyph glyph-name="zeta" unicode="ζ" horiz-adv-x="1071" d="M970 1456l.001-112.002-342-432c-86-102-147.833-190.833-185.5-266.5s-56.5-161.834-56.5-258.501c0-77.333 17.5-135.5 52.5-174.5s86.5-58.5 154.5-58.5h32c106 0 189-21.167 249-63.5s90-106.166 90-191.499c-1.333-74-27.833-138.5-79.5-193.5S770.667-392.669 698-424.002l-81 127c44 20.667 81.667 45.334 113 74.001S777-156.667 777-110c0 34.667-13.667 61.667-41 81S665 0 605 0h-52C433.667 0 343.167 35.667 281.5 107S189 270 189 382c0 80 23.167 173.5 69.5 280.5S376 879.333 472 992l268 304-2 5H115v155h855z"/><glyph glyph-name="eta" unicode="η" d="M319 1082l13.001-150c36 54 80.667 95.833 134 125.5S579.667 1102 647 1102c118 0 208.5-32.5 271.5-97.5S1013 832.333 1013 683V-415H816V679c0 95.333-19 163.833-57 205.5S663.333 947 586 947c-56.667 0-105.5-11.167-146.5-33.5S365.333 860 340 820V0H143v1082h176z"/><glyph glyph-name="theta" unicode="θ" horiz-adv-x="1165" d="M1046 514c0-164.667-41.833-295-125.5-391S724.333-21 583-21c-140.667 0-253.167 48-337.5 144S119 349.333 119 514v428c0 163.333 41.833 293.333 125.5 390s195.834 145 336.501 145c141.333 0 254.166-48.333 338.499-145S1046 1105.333 1046 942V514zM316 803h533v180c0 104.667-23.333 187.334-70 248.001s-112.667 91-198 91c-84.667 0-150-30.333-196-91S316 1087.667 316 983V803zm533-155H316V474c0-104.667 23.5-187.667 70.5-249S499 133 583 133c85.333 0 151 30.5 197 91.5s69 144.167 69 249.5v174z"/><glyph glyph-name="iota" unicode="ι" horiz-adv-x="672" d="M394 1081l-.001-812.998c0-48.667 8.833-82.334 26.5-101.001s41.5-28 71.5-28c16.667 0 33 2.5 49 7.5s30 11.167 42 18.5l44-133c-30-20.667-59.833-34.667-89.5-42s-62.167-11-97.5-11c-79.333 0-139.666 23.667-180.999 71S197 173.667 197 279v802h197z"/><glyph glyph-name="kappa" unicode="κ" horiz-adv-x="1144" d="M451 459H350V0H153v1082h197V625h84l388 457h231l2-5-450-514L1088 5l-2-5H845z"/><glyph glyph-name="lambda" unicode="λ" d="M275 0L55.998.001l391 1028-55 145c-21.333 56-46.5 101.667-75.5 137s-63.5 53-103.5 53c-6.667 0-19-.833-37-2.5s-28.333-2.5-31-2.5v145c13.333 3.333 30.5 6.666 51.5 9.999s39.5 5 55.5 5c86 0 154.5-27 205.5-81s89.833-117 116.5-189l360-946c14.667-47.333 33.834-85 57.501-113s50.167-42 79.5-42c9.333 0 15.5.167 18.5.5s12.5 1.833 28.5 4.5l-3-154c-7.333-3.333-17.166-6.666-29.499-9.999s-22.166-5-29.499-5c-78.667 0-141.834 21.667-189.501 65S777.333 159.667 742 253L540 784l-6-1-29-113z"/><glyph glyph-name="uni03BC" unicode="μ" d="M349 1082V440c1.333-118.667 20.5-199.5 57.5-242.5S495.333 133 562 133c65.333 0 118.166 12 158.499 36s71.166 59.333 92.499 106v807h197V0h-177l-9 108c-29.333-42-65.166-74-107.499-96S625.333-21 570-21c-48 0-90.167 5.5-126.5 16.5S375.667 23.667 349 47v-463H153v1498h196z"/><glyph glyph-name="nu" unicode="ν" horiz-adv-x="1030" d="M504 319l17-76h6l19 76 249 763h201L598 0H449L46 1082h202z"/><glyph glyph-name="xi" unicode="ξ" horiz-adv-x="1043" d="M922 1456l.004-155.001h-296c-82-5.333-143.833-29.666-185.5-72.999s-62.5-97-62.5-161c0-62.667 24.167-111.5 72.5-146.5s123.833-52.5 226.5-52.5h143V713h-143c-124.667 0-219.5-26-284.5-78s-97.5-129-97.5-231c0-80 26.667-145 80-195s127-75 221-75h60c107.333 0 190.666-21.167 249.999-63.5s89-106.5 89-192.5c-1.333-74-27.833-138.333-79.5-193s-113.834-97.667-186.501-129l-79 127c43.333 20.667 80.666 45.167 111.999 73.5s47 65.833 47 112.5c0 34.667-11.667 62-35 82s-60 30-110 30h-68C448-19 328 18.833 236 94.5S98 274.667 98 408c0 96.667 26.5 177.834 79.5 243.501s130.167 113.167 231.5 142.5c-72 26.667-128 63.5-168 110.5s-60 99.833-60 158.5c0 51.333 10.167 97.166 30.5 137.499s50.167 73.833 89.5 100.5H86v155h836z"/><glyph glyph-name="omicron" unicode="ο" d="M97 551c0 160 43.332 291.833 129.999 395.5S431.333 1102 580 1102c150 0 268.5-51.667 355.5-155S1066 711.667 1066 551v-22c0-161.333-43.333-293.333-130-396S731.333-21 582-21 314.5 30.5 227.5 133.5 97 368.333 97 529v22zm196.999-22c0-114.667 24.168-209.334 72.501-284.001s120.166-112 215.499-112c94 0 165.333 37.333 214 112s73 169.334 73 284.001v22c0 113.333-24.5 207.666-73.5 282.999s-120.833 113-215.5 113c-94 0-165.167-37.667-213.5-113s-72.5-169.666-72.5-282.999v-22z"/><glyph glyph-name="pi" unicode="π" horiz-adv-x="1189" d="M1118 926l-123.001.002v-658c0-48.667 8.833-82.334 26.5-101.001s41.5-28 71.5-28c16.667 0 33 2.5 49 7.5s30 11.167 42 18.5l44-133c-30-20.667-59.833-34.667-89.5-42s-62.167-11-97.5-11c-79.333 0-139.666 23.667-180.999 71S798 173.667 798 279v647H431V0H234v926H79v156h1039V926z"/><glyph glyph-name="rho" unicode="ρ" d="M1060 500c0-156.667-36.497-282.668-109.497-378.001s-175.167-143-306.5-143c-64.667 0-122.334 10-173.001 30s-94.334 49.333-131.001 88v-513h-197v993c0 164.667 42.833 293.334 128.5 386.001s192.5 139 320.5 139c151.333 0 267.166-52.833 347.499-158.5S1060 697 1060 521v-21zm-196.997 20.999c0 126-22.001 228.5-66.001 307.5s-112.333 118.5-205 118.5c-82 0-144.5-38.5-187.5-115.5s-64.5-162.167-64.5-255.5v-301c24.667-44.667 57-79.5 97-104.5s89-37.5 147-37.5c92.667 0 162.334 34 209.001 102s70 156.333 70 265v21z"/><glyph glyph-name="sigma1" unicode="ς" horiz-adv-x="1102" d="M573 1102c124.667 0 225.832-34.832 303.499-104.499S991.666 833.667 988.999 715l-2-6h-178c0 68.667-20.333 125.5-61 170.5s-99 67.5-175 67.5c-92 0-161.333-38.333-208-115s-70-166.667-70-270v-42c0-95.333 27.333-176.5 82-243.5S514.333 168 625 152c120-17.333 208-43.666 264-78.999s84-94 84-176c-1.333-74-27.833-138.333-79.5-193s-113.834-97.667-186.501-129l-81 127c44 20.667 81.667 45.167 113 73.5s47 65.833 47 112.5c0 32-14.667 56.5-44 73.5S666.333-8.666 603 .001c-167.333 23.333-293.333 80-378 170s-127 206.667-127 350v42c0 151.333 42.5 279.166 127.5 383.499S426.333 1102 573 1102z"/><glyph glyph-name="sigma" unicode="σ" d="M1148 926H870.999c62.667-48 110.834-107.333 144.501-178s50.5-149.334 50.5-236.001v-22c0-140-44-260.167-132-360.5s-205.333-150.5-352-150.5c-149.333 0-267.5 51.5-354.5 154.5S97 368.332 97 528.999v22c0 154 43.167 280.833 129.5 380.5S430.333 1081.333 579 1082h569V926zM293.999 529c0-114.667 24.168-209.334 72.501-284.001s120.166-112 215.499-112c94 0 165.333 37.333 214 112s73 169.334 73 284.001v22c0 107.333-24.5 196.666-73.5 267.999s-120.833 107-215.5 107c-94 0-165.167-35.667-213.5-107s-72.5-160.666-72.5-267.999v-22z"/><glyph glyph-name="tau" unicode="τ" horiz-adv-x="1072" d="M988 929H630V0H433v929H81v153h907V929z"/><glyph glyph-name="upsilon" unicode="υ" d="M338 1082l-.001-612c0-116.667 23-202 69-256s108-81 186-81c91.333 0 159.5 42.167 204.5 126.5s67.5 185.166 67.5 302.499c-2 84-14 169-36 255s-51.333 174.333-88 265h206c34-71.333 61.667-150.166 83-236.499s32-180.833 32-283.5c0-170-37-309.667-111-419s-190-164-348-164C455.666-21 341.833 19.333 261.5 100S141 304.667 141 472v610h197z"/><glyph glyph-name="phi" unicode="φ" horiz-adv-x="1450" d="M814 1082c152 0 282.168-53.502 390.501-160.502s162.5-239.5 162.5-397.5c0-145.333-45.167-267.833-135.5-367.5s-229.5-157.167-417.5-172.5v-462h-197v462C434.334.665 299.667 62.498 213 169.498s-130 238.5-130 394.5c0 102 10.667 195.833 32 281.5s49.333 164.5 84 236.5h206c-38-89.333-68-177-90-263s-33.667-171-35-255c0-103.333 27.167-194.666 81.5-273.999S499 163.333 611 148l6 2v932h197zm356-558.002c-2.667 108.667-35 202.5-97 281.5s-146.333 117.167-253 114.5l-6-2v-771l6-2c118 14 205.833 57.167 263.5 129.5s86.5 155.5 86.5 249.5z"/><glyph glyph-name="chi" unicode="χ" d="M202 1097c86 0 154.166-26.665 204.499-79.998s89.5-116 117.5-188l92-222h6l233 475h198l-341-707 204-492c22-50 43.333-88.167 64-114.5s45-39.5 73-39.5c9.333 0 15.666.333 18.999 1s12.333 2 27 4l-3-156c-6.667-4-16-7.5-28-10.5s-22.333-4.5-31-4.5c-77.333 0-139.166 21.667-185.499 65s-87.166 112.333-122.499 207l-127 300h-6l-265-550H122l383 782-163 386c-22 55.333-47.333 100.666-76 135.999s-63 53-103 53c-6.667 0-19-.833-37-2.5s-28.333-2.5-31-2.5v145c13.333 3.333 30.5 6.666 51.5 9.999s39.5 5 55.5 5z"/><glyph glyph-name="psi" unicode="ψ" horiz-adv-x="1440" d="M805 1081l.002-932.001 6-2c118 15.333 205.667 63.166 263 143.499s86 172.5 86 276.5c-2 83.333-14 167.833-36 253.5s-51.667 172.834-89 261.501h207c34-70.667 61.667-148.667 83-234s32-179 32-281c0-160-44.333-293.667-133-401s-228.334-168.333-419.001-183v-457h-198v459C442.334 1.666 315.167 60.333 225.5 161S91 406.667 91 596v486h197V594c0-138 28.167-243.5 84.5-316.5S505 161.667 601 149l6 2v930h198z"/><glyph glyph-name="omega" unicode="ω" horiz-adv-x="1741" d="M469 1082c-49.333-89.333-88.331-177.163-116.998-263.496s-44.334-171.833-47.001-256.5c0-126.667 18.667-229.834 56-309.501s96-119.5 176-119.5c71.333 0 128.166 27 170.499 81s63.5 139.333 63.5 256v300h198v-300c0-116.667 21-202 63-256s99-81 171-81c80 0 138.667 39.5 176 118.5s56 182.5 56 310.5c-3.333 84.667-19.333 170.167-48 256.5s-67.334 174.166-116.001 263.499h207c45.333-70.667 82.333-149.334 111-236.001s43-181.334 43-284.001c0-170-33.667-309.667-101-419s-173-164-317-164c-84.667 0-156.167 20.333-214.5 61s-101.5 100.667-129.5 180c-28.667-79.333-72.167-139.333-130.5-180S610.333-21 527-21c-144.667 0-250.667 54.667-318 164S108 392 108 562c0 103.333 14.167 198.333 42.5 285s65.833 165 112.5 235h206z"/><glyph glyph-name="iotadieresis" unicode="ϊ" horiz-adv-x="672" d="M394 1081l-.001-812.998c0-48.667 8.833-82.334 26.5-101.001s41.5-28 71.5-28c16.667 0 33 2.5 49 7.5s30 11.167 42 18.5l44-133c-30-20.667-59.833-34.667-89.5-42s-62.167-11-97.5-11c-79.333 0-139.666 23.667-180.999 71S197 173.667 197 279v802h197zm253.999 181h-219v200h219v-200zm-470 0h-219v200h219v-200z"/><glyph glyph-name="upsilondieresis" unicode="ϋ" d="M338 1082l-.001-612c0-116.667 23-202 69-256s108-81 186-81c91.333 0 159.5 42.167 204.5 126.5s67.5 185.166 67.5 302.499c-2 84-14 169-36 255s-51.333 174.333-88 265h206c34-71.333 61.667-150.166 83-236.499s32-180.833 32-283.5c0-170-37-309.667-111-419s-190-164-348-164C455.666-21 341.833 19.333 261.5 100S141 304.667 141 472v610h197zm606.999 180h-219v200h219v-200zm-470 0h-219v200h219v-200z"/><glyph glyph-name="omicrontonos" unicode="ό" d="M97 551c0 160 43.332 291.833 129.999 395.5S431.333 1102 580 1102c150 0 268.5-51.667 355.5-155S1066 711.667 1066 551v-22c0-161.333-43.333-293.333-130-396S731.333-21 582-21 314.5 30.5 227.5 133.5 97 368.333 97 529v22zm196.999-22c0-114.667 24.168-209.334 72.501-284.001s120.166-112 215.499-112c94 0 165.333 37.333 214 112s73 169.334 73 284.001v22c0 113.333-24.5 207.666-73.5 282.999s-120.833 113-215.5 113c-94 0-165.167-37.667-213.5-113s-72.5-169.666-72.5-282.999v-22zM566 1550h208l-155-271h-83z"/><glyph glyph-name="upsilontonos" unicode="ύ" d="M338 1082l-.001-612c0-116.667 23-202 69-256s108-81 186-81c91.333 0 159.5 42.167 204.5 126.5s67.5 185.166 67.5 302.499c-2 84-14 169-36 255s-51.333 174.333-88 265h206c34-71.333 61.667-150.166 83-236.499s32-180.833 32-283.5c0-170-37-309.667-111-419s-190-164-348-164C455.666-21 341.833 19.333 261.5 100S141 304.667 141 472v610h197zm245.999 448h208l-155-271h-83z"/><glyph glyph-name="omegatonos" unicode="ώ" horiz-adv-x="1741" d="M469 1082c-49.333-89.333-88.331-177.163-116.998-263.496s-44.334-171.833-47.001-256.5c0-126.667 18.667-229.834 56-309.501s96-119.5 176-119.5c71.333 0 128.166 27 170.499 81s63.5 139.333 63.5 256v300h198v-300c0-116.667 21-202 63-256s99-81 171-81c80 0 138.667 39.5 176 118.5s56 182.5 56 310.5c-3.333 84.667-19.333 170.167-48 256.5s-67.334 174.166-116.001 263.499h207c45.333-70.667 82.333-149.334 111-236.001s43-181.334 43-284.001c0-170-33.667-309.667-101-419s-173-164-317-164c-84.667 0-156.167 20.333-214.5 61s-101.5 100.667-129.5 180c-28.667-79.333-72.167-139.333-130.5-180S610.333-21 527-21c-144.667 0-250.667 54.667-318 164S108 392 108 562c0 103.333 14.167 198.333 42.5 285s65.833 165 112.5 235h206zm385.002 448h208l-155-271h-83z"/><glyph glyph-name="uni03D1" unicode="ϑ" horiz-adv-x="1265" d="M521 1036v62c0 114.667 31.5 206.5 94.5 275.5S760.333 1477 861 1477c104.667 0 187.334-33.667 248.001-101s91-160 91-278V592c0-185.333-50.833-333.833-152.5-445.5S812.334-21 647.001-21C488.334-21 359.667 37 261 153S113 415.333 113 592v660l197 2V592c0-133.333 30.333-242 91-326s142.667-126 246-126c110 0 196.667 39.5 260 118.5s95.666 187.833 96.999 326.5c-145.333 5.333-262.166 49.833-350.499 133.5S521 908 521 1036zm483 62c0 72-12.167 126.168-36.5 162.501s-59.833 54.5-106.5 54.5c-44 0-78.833-18.167-104.5-54.5s-38.5-90.5-38.5-162.5v-64c0-80 25-146.333 75-199S911.333 754.667 998 752l6 2v344z"/><glyph glyph-name="uni03D2" unicode="ϒ" horiz-adv-x="1089" d="M742 1239c34 82.667 71.496 141.334 112.496 176.001s88.5 52 142.5 52c22.667 0 42.334-1.667 59.001-5s33.667-9.666 51-18.999l-23-152c-3.333 2-8.666 3.833-15.999 5.5s-15.333 2.5-24 2.5c-22 0-42.167-5.833-60.5-17.5s-32.833-30.5-43.5-56.5l-300-647v-578h-196v578l-300 647c-11.333 26-26.166 44.833-44.499 56.5s-38.166 17.5-59.499 17.5c-9.333 0-17.5-.833-24.5-2.5s-12.167-3.5-15.5-5.5l-22 152c16 9.333 32.333 15.666 49 18.999s36.667 5 60 5c53.333 0 100.5-17.333 141.5-52S307.333 1321.667 342 1239l178-406 19-70h6l19 70z"/><glyph glyph-name="uni03D6" unicode="ϖ" horiz-adv-x="1608" d="M1561 926l-132.999.001c19.333-54 34.5-111.333 45.5-172s16.5-124.667 16.5-192c0-169.333-29-308.833-87-418.5s-148.333-164.5-271-164.5c-79.333 0-146.5 20.167-201.5 60.5S834.668 138.667 808.001 216c-27.333-78-68.333-137-123-177S563.667-21 485-21c-123.333 0-213.833 54.833-271.5 164.5S127 392.667 127 562c0 67.333 5.333 131.333 16 192s26 118 46 172H78v156h1483V926zm-268-363.999c-2 59.333-9.669 119.337-23.002 180.004s-31.333 122-54 184h-815c-23.333-62.667-41.666-124.334-54.999-185.001S325.333 620.67 324 562.003c0-126.667 13.833-229.834 41.5-309.501s71.167-119.5 130.5-119.5c65.333 0 117.333 27 156 81s58 139.333 58 256v250h198v-250c0-116.667 19.167-202 57.5-256s90.5-81 156.5-81c58 0 101 39.667 129 119s42 182.666 42 309.999z"/><glyph glyph-name="uni0400" unicode="Ѐ" horiz-adv-x="1130" d="M965 675H367V154h700V0H170v1456h886v-155H367V830h598V675zm-263 926H544l-250 260 3 6h230z"/><glyph glyph-name="uni0401" unicode="Ё" horiz-adv-x="1130" d="M965 675H367V154h700V0H170v1456h886v-155H367V830h598V675zm-1 930H745v200h219v-200zm-470 0H275v200h219v-200z"/><glyph glyph-name="uni0402" unicode="Ђ" horiz-adv-x="1514" d="M1208 1301H728.001V880h181c156.667 0 284.334-42.667 383.001-128s148-201.333 148-348c-1.333-92-34.5-185-99.5-279s-160.833-152.333-287.5-175l-51 148c85.333 22.667 146.666 60.167 183.999 112.5s56 116.833 56 193.5c-.667 98-31.334 174.333-92.001 229s-141 82-241 82H728V0H531v1301H57v155h1151v-155z"/><glyph glyph-name="uni0403" unicode="Ѓ" horiz-adv-x="1123" d="M1056 1301H360V0H163v1456h893v-155zm-351 562h230l2-6-269-260H520z"/><glyph glyph-name="uni0404" unicode="Є" horiz-adv-x="1386" d="M1226 467l2.001-5.998c2.667-136.667-45.333-251-144-343s-229-138-391-138c-164.667 0-298.834 58.333-402.501 175S135 419.669 135 599.002v259c0 179.333 51.833 327.5 155.5 444.5s237.834 175.5 402.501 175.5 295.667-43.833 393-131.5S1230.667 1142.668 1228 998.001l-2-6h-189c0 102-30 182.667-90 242s-144.667 89-254 89c-110 0-197.667-44.333-263-133s-98-198.667-98-330v-47h562v-154H332v-60c0-132.667 32.667-243.334 98-332.001s153-133 263-133c109.333 0 194 29.5 254 88.5s90 140.5 90 244.5h189z"/><glyph glyph-name="uni0405" unicode="Ѕ" horiz-adv-x="1252" d="M946 367c0 66-23.666 121.331-70.999 165.998s-130.666 82.667-249.999 114c-148 36.667-263.5 90.667-346.5 162s-124.5 161-124.5 269c0 114 44.667 209 134 285s205.333 114 348 114c153.333 0 275.5-43.5 366.5-130.5s135.167-188.5 132.5-304.5l-3-6h-188c0 82.667-28.833 151-86.5 205s-131.5 81-221.5 81c-92 0-162.5-22.333-211.5-67s-73.5-102.667-73.5-174c0-63.333 26.833-116.166 80.5-158.499s140.834-79.5 261.501-111.5c146.667-38 258.334-94 335.001-168s115-165.333 115-274c0-117.333-46.167-211.666-138.5-282.999S791.671-21 643.004-21C502.337-21 378.17 18.333 270.503 97S110.669 281 114.002 413l2 6h188c0-91.333 34.667-161.833 104-211.5S555.668 133 643.001 133c93.333 0 167.166 21 221.499 63S946 295 946 367z"/><glyph glyph-name="uni0406" unicode="І" horiz-adv-x="579" d="M388 0H190v1456h198V0z"/><glyph glyph-name="uni0407" unicode="Ї" horiz-adv-x="579" d="M388 0H190v1456h198V0zm247 1605H416v200h219v-200zm-470 0H-54v200h219v-200z"/><glyph glyph-name="uni0408" unicode="Ј" horiz-adv-x="1123" d="M759 1456h196.999V422c0-135.333-41.167-243-123.5-323S643.333-21 512-21C378-21 271.5 14.5 192.5 85.5S75.667 259.667 79 395l2 6h189c0-90.667 21-158 63-202s101.667-66 179-66c72.667 0 132 26.333 178 79s69 122.667 69 210v1034z"/><glyph glyph-name="uni0409" unicode="Љ" horiz-adv-x="2201" d="M1271 1456l.001-567h359c154.667 0 275.167-41.167 361.5-123.5s129.5-189.5 129.5-321.5-43.167-239-129.5-321-206.833-123-361.5-123h-556v1301h-504l-1-531c-.667-267.333-36.834-462.5-108.501-585.5S269.333 0 102 0H50v154h40c100 0 172 47.5 216 142.5s66.333 252.833 67 473.5v686h898zm0-721V154h359c98 0 171.5 28.167 220.5 84.5S1924 364 1924 446c0 80.667-24.5 149-73.5 205S1728 735 1630 735h-359z"/><glyph glyph-name="uni040A" unicode="Њ" horiz-adv-x="2201" d="M365 827h709v629h197V840h359c155.333 0 276-38 362-114s129-176.667 129-302c0-126-43.167-228.167-129.5-306.5S1784.667 0 1630 0h-556v673H365V0H168v1456h197V827zm906-142V165.001h359c98.667 0 172.334 24.667 221.001 74s73 111.666 73 186.999c0 74.667-24.333 136.5-73 185.5S1728.667 685 1630 685h-359z"/><glyph glyph-name="uni040B" unicode="Ћ" horiz-adv-x="1670" d="M1224 1301H743.999V961h294c158.667 0 279.834-36.833 363.501-110.5S1527 660.333 1527 501V0h-197v501c0 112-23.333 190.833-70 236.5S1139.333 806 1038 806H744V0H547v1301H73v155h1151v-155z"/><glyph glyph-name="uni040C" unicode="Ќ" horiz-adv-x="1302" d="M495 658H367V0H170v1456h197V812h108l540 644h222l2-5-590-689L1281 5l-2-5h-239zm204 1117h230l2-6-269-260H514z"/><glyph glyph-name="uni040D" unicode="Ѝ" horiz-adv-x="1440" d="M1077 1456h197V0h-197v1110l-6 2L370 0H173v1456h197V347l6-2zm-268 145H651l-250 260 3 6h230z"/><glyph glyph-name="uni040E" unicode="Ў" horiz-adv-x="1297" d="M568 775l73.998-190.999h6l348 872h228l-529-1217c-37.333-82.667-82.666-146.667-135.999-192s-131.333-68-234-68c-43.333 0-83.833 3.667-121.5 11s-67.5 16-89.5 26l25 144c22-6.667 49-12.834 81-18.501s60-8.5 84-8.5c54.667 0 98.334 14.167 131.001 42.5s59 64.833 79 109.5l39 83L66 1456h221zm371.998 1095l2-6c2.667-77.333-23-140.333-77-189s-126.667-73-218-73c-92 0-165 24.333-219 73s-79.333 111.667-76 189l2 6h151c0-44 11.333-79.667 34-107s58.667-41 108-41c48 0 83.667 13.833 107 41.5s35 63.167 35 106.5h151z"/><glyph glyph-name="uni040F" unicode="Џ" horiz-adv-x="1439" d="M168 1456h197V154h709v1302h197V0H825v-359H628V0H168v1456z"/><glyph glyph-name="uni0410" unicode="А" horiz-adv-x="1295" d="M922 375H374L244 0H43l525 1456h169L1251 0h-201zM431 540h435l-212 625h-6z"/><glyph glyph-name="uni0411" unicode="Б" horiz-adv-x="1292" d="M1056 1301H360.002V880h359c155.333 0 276.166-39.833 362.499-119.5s129.5-185.167 129.5-316.5c0-132-43.333-239-130-321S873.667 0 719 0H163v1456h893v-155zM360.002 725V154.001h359c98 0 171.667 28.167 221 84.5s74 125.5 74 207.5c0 79.333-24.5 145.666-73.5 198.999s-122.833 80-221.5 80h-359z"/><glyph glyph-name="uni0412" unicode="В" horiz-adv-x="1302" d="M170 0v1456h475c152 0 271-32.833 357-98.5s129-164.167 129-295.5c0-62.667-19.333-118.834-58-168.501s-90-87.5-154-113.5c95.333-13.333 170.833-54.666 226.5-123.999s83.5-151 83.5-245c0-133.333-43.333-235.166-130-305.499S895 .001 747 .001H170zm197 682.999V154.001h380c90 0 159.833 22.167 209.5 66.5S1031 327.667 1031 409c0 80.667-25.333 145.667-76 195s-119 75.666-205 78.999H367zm0 154.002h319c73.333 0 133 20.167 179 60.5s69 96.5 69 168.5c0 78.667-24.833 137.5-74.5 176.5s-121.167 58.5-214.5 58.5H367v-464z"/><glyph glyph-name="uni0413" unicode="Г" horiz-adv-x="1123" d="M1056 1301H360V0H163v1456h893v-155z"/><glyph glyph-name="uni0414" unicode="Д" horiz-adv-x="1575" d="M1518-357h-197V0H251v-359H54v513h104c88 0 153.833 60.5 197.5 181.5S427 633.667 439 867l33 589h847V154h199v-511zM638 867c-8.667-166-26.5-308.5-53.5-427.5S518.333 225.333 467 154h655v1147H661z"/><glyph glyph-name="uni0415" unicode="Е" horiz-adv-x="1130" d="M965 675H367V154h700V0H170v1456h886v-155H367V830h598V675z"/><glyph glyph-name="uni0416" unicode="Ж" horiz-adv-x="1687" d="M999 668h-54V0H749v668h-63L271 0H26l495 770-455 686h230l388-633h65v633h196V823h57l388 633h230l-455-685L1660 0h-245z"/><glyph glyph-name="uni0417" unicode="З" horiz-adv-x="1385" d="M1225 1062c0-67.333-22.666-128.832-67.999-184.499s-108-99.167-188-130.5c90-28 158.833-71 206.5-129s71.5-128.667 71.5-212c0-134-53.167-238.667-159.5-314s-245.5-113-417.5-113c-150.667 0-280 35.667-388 107s-160.333 175.333-157 312l2 6h188c0-76 33-140.167 99-192.5s151.333-78.5 256-78.5c118.667 0 211.667 24.833 279 74.5s101 114.5 101 194.5c0 88.667-30.667 154.5-92 197.5s-152 64.5-272 64.5h-183v156h183c116 0 202 22 258 66s84 104 84 180c0 74.667-30.167 136-90.5 184s-149.5 72-267.5 72c-94 0-173.167-23.667-237.5-71s-96.5-106-96.5-176h-188l-1 6c-4 117.333 44.833 212.666 146.5 285.999s227.167 110 376.5 110c171.333 0 306.666-36 405.999-108s149-174.333 149-307z"/><glyph glyph-name="uni0418" unicode="И" horiz-adv-x="1440" d="M1077 1456h197V0h-197v1110l-6 2L370 0H173v1456h197V347l6-2z"/><glyph glyph-name="uni0419" unicode="Й" horiz-adv-x="1440" d="M1077 1456h197V0h-197v1110l-6 2L370 0H173v1456h197V347l6-2zm-57 414l2-6c2.667-77.333-23-140.333-77-189s-126.667-73-218-73c-92 0-165 24.333-219 73s-79.333 111.667-76 189l2 6h151c0-44 11.333-79.667 34-107s58.667-41 108-41c48 0 83.667 13.833 107 41.5s35 63.167 35 106.5h151z"/><glyph glyph-name="uni041A" unicode="К" horiz-adv-x="1302" d="M495 658H367V0H170v1456h197V812h108l540 644h222l2-5-590-689L1281 5l-2-5h-239z"/><glyph glyph-name="uni041B" unicode="Л" horiz-adv-x="1439" d="M1271 1456l-.001-1456h-197v1301h-526l-1-531c0-266.667-34.333-461.667-103-585S261.332 0 101.999 0h-53v154h41c92 0 158.333 47.5 199 142.5S350.333 549.333 351 770l1 686h919z"/><glyph glyph-name="uni041C" unicode="М" horiz-adv-x="1779" d="M892 273h6l465 1183h245V0h-197v1091l-6 1L964 0H827L373 1128l-6-1V0H170v1456h259z"/><glyph glyph-name="uni041D" unicode="Н" horiz-adv-x="1441" d="M1271 0h-197v643H367V0H170v1456h197V798h707v658h197V0z"/><glyph glyph-name="uni041E" unicode="О" horiz-adv-x="1396" d="M1282 598c0-178-55.167-325.667-165.5-443S863-21 687-21c-170 0-308.167 58.667-414.5 176S113 420 113 598v259c0 177.333 53.167 325 159.5 443S517 1477 687 1477c176 0 319.167-58.833 429.5-176.5S1282 1035 1282 857V598zm-197 261c0 133.333-36 242.666-108 327.999s-168.667 128-290 128c-114.667 0-206.167-42.667-274.5-128S310 992.333 310 859V598c0-134.667 34.167-244.667 102.5-330S572.333 140 687 140c122 0 218.833 42.5 290.5 127.5S1085 462.667 1085 598v261z"/><glyph glyph-name="uni041F" unicode="П" horiz-adv-x="1439" d="M1271 0h-197v1301H365V0H168v1456h1103V0z"/><glyph glyph-name="uni0420" unicode="Р" horiz-adv-x="1302" d="M367 584V0H170v1456h557c155.333 0 276.166-40 362.499-120s129.5-185.333 129.5-316c0-132-43.167-237.667-129.5-317S882.333 584 727 584H367zm0 154h359.999c98.667 0 172.334 26.5 221.001 79.5s73 119.833 73 200.5-24.5 148-73.5 202-122.5 81-220.5 81H367V738z"/><glyph glyph-name="uni0421" unicode="С" horiz-adv-x="1297" d="M1209 466l2.001-5.998c2.667-136.667-45.333-251-144-343s-229-138-391-138c-164.667 0-298.834 58.333-402.501 175S118 418.669 118 598.002v259c0 179.333 51.833 327.5 155.5 444.5s237.834 175.5 402.501 175.5 295.667-43.833 393-131.5S1213.667 1141.668 1211 997.001l-2-6h-189c0 102-30 182.667-90 242s-144.667 89-254 89c-110 0-197.667-44.333-263-133s-98-198.667-98-330v-261c0-132.667 32.667-243.334 98-332.001s153-133 263-133c109.333 0 194 29.5 254 88.5s90 140.5 90 244.5h189z"/><glyph glyph-name="uni0422" unicode="Т" horiz-adv-x="1225" d="M1188 1301H708V0H511v1301H37v155h1151v-155z"/><glyph glyph-name="uni0423" unicode="У" horiz-adv-x="1297" d="M568 775l73.998-190.999h6l348 872h228l-529-1217c-37.333-82.667-82.666-146.667-135.999-192s-131.333-68-234-68c-43.333 0-83.833 3.667-121.5 11s-67.5 16-89.5 26l25 144c22-6.667 49-12.834 81-18.501s60-8.5 84-8.5c54.667 0 98.334 14.167 131.001 42.5s59 64.833 79 109.5l39 83L66 1456h221z"/><glyph glyph-name="uni0424" unicode="Ф" horiz-adv-x="1439" d="M820 1229c153.333-3.333 281.166-52.168 383.499-146.501s153.5-214.166 153.5-359.499c0-147.333-51.167-268.5-153.5-363.5S973.333 215.667 820 213V0H623v213c-154.667 2-283.167 50.333-385.5 145S84 573.667 84 721c0 146 51.167 266.667 153.5 362s230.833 144.333 385.5 147v226h197v-227zM279 720.998c0-107.333 29.5-192.168 88.5-254.501s142.167-93.166 249.5-92.499l6 2v691l-6 2c-106.667.667-189.667-30.5-249-93.5s-89-147.833-89-254.5zm882 1.998c0 106-29.667 190.167-89 252.5s-141.333 93.5-246 93.5l-6-2v-691l6-2c104.667-.667 186.667 30.5 246 93.5s89 148.167 89 255.5z"/><glyph glyph-name="uni0425" unicode="Х" horiz-adv-x="1295" d="M650 888l340 568h238L766 734 1238 0h-235L654 578 304 0H66l472 734-462 722h236z"/><glyph glyph-name="uni0426" unicode="Ц" horiz-adv-x="1533" d="M161 1456h197V155h709v1301h197V160h189v-519h-197V0H161v1456z"/><glyph glyph-name="uni0427" unicode="Ч" horiz-adv-x="1397" d="M1228 1456l-.001-1456h-197v603C967.666 583.667 906.333 569.667 847 561s-129.666-13-210.999-13C475.334 548 353.667 583.167 271 653.5S147 838 147 996v460h198V996c0-110 23-186.167 69-228.5S534 704 636 704c69.333 0 136 4.667 200 14s129 23 195 41v697h197z"/><glyph glyph-name="uni0428" unicode="Ш" horiz-adv-x="2079" d="M361 1456V154h592v1302h196V154h589v1302h197V0H164v1456h197z"/><glyph glyph-name="uni0429" unicode="Щ" horiz-adv-x="2148" d="M361 1456V154h592v1302h196V154h589v1302h197V157h170v-517h-197V0H164v1456h197z"/><glyph glyph-name="uni042A" unicode="Ъ" horiz-adv-x="1458" d="M0 1456h523.002V880h359c155.333 0 276.166-39.833 362.499-119.5s129.5-185.167 129.5-316.5c0-132-43.333-239-130-321S1036.667 0 882 0H326v1301H0v155zm523.002-731V154.001h359c98 0 171.667 28.167 221 84.5s74 125.5 74 207.5c0 79.333-24.5 145.666-73.5 198.999s-122.833 80-221.5 80h-359z"/><glyph glyph-name="uni042B" unicode="Ы" horiz-adv-x="1749" d="M360 880h359.002c155.333 0 276.166-39.833 362.499-119.5s129.5-185.167 129.5-316.5c0-132-43.333-239-130-321S873.667 0 719 0H163v1456h197V880zm.002-155V154.001h359c98 0 171.667 28.167 221 84.5s74 125.5 74 207.5c0 79.333-24.5 145.666-73.5 198.999s-122.833 80-221.5 80h-359zM1586 .001h-198v1456h198V.001z"/><glyph glyph-name="uni042C" unicode="Ь" horiz-adv-x="1290" d="M360 880h359.002c155.333 0 276.166-39.833 362.499-119.5s129.5-185.167 129.5-316.5c0-132-43.333-239-130-321S873.667 0 719 0H163v1456h197V880zm.002-155V154.001h359c98 0 171.667 28.167 221 84.5s74 125.5 74 207.5c0 79.333-24.5 145.666-73.5 198.999s-122.833 80-221.5 80h-359z"/><glyph glyph-name="uni042D" unicode="Э" horiz-adv-x="1385" d="M188 990l-2 5.999c-3.333 135.333 44.5 249.5 143.5 342.5s229.167 139.5 390.5 139.5c164.667 0 299-58.5 403-175.5s156-265.167 156-444.5v-259c0-180-52-328.167-156-444.5s-238.333-174.5-403-174.5-295.667 43.5-393 130.5-144.333 203.167-141 348.5l2 6h189c0-102.667 29.667-183.5 89-242.5s144-88.5 254-88.5c109.333 0 196.833 44.167 262.5 132.5s98.5 198.5 98.5 330.5v81H507v155h574v25c0 132-32.833 242.5-98.5 331.5s-153.167 133.5-262.5 133.5c-110 0-194.667-29.667-254-89S377 1093.333 377 990H188z"/><glyph glyph-name="uni042E" unicode="Ю" horiz-adv-x="1825" d="M1762 598c0-178-55.167-325.667-165.5-443S1343-21 1167-21c-170 0-308.167 58.667-414.5 176S593 420 593 598v34H388V0H190v1456h198V786h205v71c0 177.333 53.167 325 159.5 443S997 1477 1167 1477c176 0 319.167-58.833 429.5-176.5S1762 1035 1762 857V598zm-197 261c0 133.333-36 242.666-108 327.999s-168.667 128-290 128c-114.667 0-206.167-42.667-274.5-128S790 992.333 790 859V598c0-134.667 34.167-244.667 102.5-330s159.833-128 274.5-128c122 0 218.833 42.5 290.5 127.5S1565 462.667 1565 598v261z"/><glyph glyph-name="uni042F" unicode="Я" horiz-adv-x="1211" d="M253 0H44l342 661c-94.667 34-166.5 82.667-215.5 146S97 947.333 97 1038c0 132.667 45.667 235.5 137 308.5S451.333 1456 612 1456h466V0H881v609H558zm628 1301l-269-.001c-104 0-183-23.167-237-69.5S294 1121.333 294 1040c0-82 27.167-148.333 81.5-199S508 765 610 765h271v536z"/><glyph glyph-name="uni0430" unicode="а" horiz-adv-x="1126" d="M808 0c-6.667 32.667-11.831 61.5-15.498 86.5s-5.834 50.167-6.501 75.5c-36.667-52-84.5-95.5-143.5-130.5S520.001-21 452.001-21c-112.667 0-198.5 28.833-257.5 86.5s-88.5 137.167-88.5 238.5c0 103.333 41.833 184.166 125.5 242.499s197.167 87.5 340.5 87.5h214v107c0 63.333-19.333 113.5-58 150.5s-93.334 55.5-164.001 55.5c-64 0-115.667-16-155-48s-59-70.333-59-115l-187-2-2 6c-4.667 78.667 32.166 150.667 110.499 216s179.5 98 303.5 98c122.667 0 221.334-31.167 296.001-93.5S983 856.333 983 739V218c0-38.667 2-76 6-112s11.333-71.333 22-106H808zM481.003 144c71.333 0 135.668 18.333 193.001 55s94.666 78.667 111.999 126v176h-221c-79.333 0-142.833-20-190.5-60s-71.5-87-71.5-141c0-48 15-86 45-114s74.333-42 133-42z"/><glyph glyph-name="uni0431" unicode="б" horiz-adv-x="1133" d="M619 1102c138 0 247-51.669 327-155.002s120-235.333 120-396v-22c0-161.333-43.333-293.333-130-396s-204.667-154-354-154-267.5 51.5-354.5 154.5S97 368.331 97 528.998v35.5c0 3.667.333 7.834 1 12.501v235c0 205.333 41.167 356.5 123.5 453.5s203.5 149.833 363.5 158.5c92 4.667 163 16.167 213 34.5s75 49.833 75 94.5h151l2-6c3.333-105.333-31.667-179.166-105-221.499s-179.666-64.833-318.999-67.5c-101.333-2.667-182.666-30.667-243.999-84s-91-132.333-89-237l3-5c39.333 50 89.666 90.833 150.999 122.5S549.667 1102 619 1102zm-39-155.002c-94 0-165-37.667-213-113s-72-169.666-72-282.999v-22c0-114.667 24-209.334 72-284.001s119.667-112 215-112c94 0 165.333 37.333 214 112s73 169.334 73 284.001v22c0 113.333-24.5 207.666-73.5 282.999s-120.833 113-215.5 113z"/><glyph glyph-name="uni0432" unicode="в" d="M144 0l-.001 1082h427c142.667 0 253.334-24.833 332.001-74.5s118-124.167 118-223.5c0-50.667-15.333-95.834-46-135.501s-74-69.834-130-90.501c67.333-16.667 119.833-47.834 157.5-93.501s56.5-97.834 56.5-156.501c0-101.333-36.833-178-110.5-230S772-.004 640-.004H144zm196.999 474.004v-322h299c72.667 0 127.667 13.833 165 41.5s56 67.5 56 119.5c0 51.333-18.667 91-56 119s-92.333 42-165 42h-299zm0 151H572c83.333 0 146.166 12.333 188.499 37s63.5 62 63.5 112c0 51.333-21.333 90-64 116s-105.667 39-189 39h-230v-304z"/><glyph glyph-name="uni0433" unicode="г" horiz-adv-x="849" d="M831 926H340V0H143v1082h688V926z"/><glyph glyph-name="uni0434" unicode="д" horiz-adv-x="1297" d="M175 154c52 0 89.832 42.833 113.499 128.5S329.333 499 340 675l26 407h718V154h143v-512h-197V0H266v-358H69v512h106zm362.999 521c-8-127.333-18.833-232.5-32.5-315.5S471.332 208 443.999 154h443v753h-335z"/><glyph glyph-name="uni0435" unicode="е" horiz-adv-x="1072" d="M591-21c-155.333 0-276.501 49.668-363.501 149.001s-130.5 230-130.5 392v44c0 155.333 44.833 283.833 134.5 385.5s199.167 152.5 328.5 152.5c144.667 0 253.167-45 325.5-135s108.5-209.667 108.5-359v-104h-692l-3-5c0-108.667 24-196.834 72-264.501s121.333-101.5 220-101.5c66.667 0 125.167 9.5 175.5 28.5s93.5 45.167 129.5 78.5l77-128c-38.667-37.333-89.667-68.833-153-94.5S680.333-21 591-21zm-31.001 968.001c-68.667 0-125.499-26.5-170.499-79.5S317 746.668 307 664.001l2-5h488v16c0 78.667-19.333 143.667-58 195s-98.334 77-179.001 77z"/><glyph glyph-name="uni0436" unicode="ж" horiz-adv-x="1473" d="M892 469h-58V0H637v469h-58L274 0H26l404 572-370 510h238l286-446h53v446h197V636h54l287 446h237l-370-510L1446 0h-248z"/><glyph glyph-name="uni0437" unicode="з" horiz-adv-x="1103" d="M563 632c76.667 0 133.167 13.336 169.5 40.003s54.5 64.667 54.5 114c0 44.667-20.167 82.834-60.5 114.5s-98.833 47.5-175.5 47.5c-68 0-125-16.332-171-49s-69-72.333-69-119H125l-2 6c-4 92.667 35.667 168.167 119 226.5s186.333 87.5 309 87.5c133.333 0 238.833-27.167 316.5-81.5S984 886.67 984 786.003c0-48.667-16.167-93.334-48.5-134.001s-77.166-72.667-134.499-96c65.333-21.333 115.5-53.333 150.5-96s52.5-94.334 52.5-155.001c0-100.667-42-179.834-126-237.501s-193-86.5-327-86.5c-123.333 0-229.333 28.5-318 85.5s-131 139.5-127 247.5l2 6h186c0-50.667 24-94.667 72-132s109.667-56 185-56c78 0 140 16.667 186 50s69 74.333 69 123c0 57.333-20.333 99.5-61 126.5S643.667 472 563 472H355v160h208z"/><glyph glyph-name="uni0438" unicode="и" d="M823 1082h197V0H823v768l-6 2L339 0H143v1082h196V314l6-2z"/><glyph glyph-name="uni0439" unicode="й" d="M823 1082h197V0H823v768l-6 2L339 0H143v1082h196V314l6-2zm52 445l2-6c2.667-77.333-23-140.333-77-189s-126.667-73-218-73c-92 0-165 24.333-219 73s-79.333 111.667-76 189l2 6h151c0-44 11.333-79.667 34-107s58.667-41 108-41c48 0 83.667 13.833 107 41.5s35 63.167 35 106.5h151z"/><glyph glyph-name="uni043A" unicode="к" horiz-adv-x="1120" d="M451 459H350V0H153v1082h197V625h84l387 457h231l2-5-449-514L1088 5l-2-5H844z"/><glyph glyph-name="uni043B" unicode="л" horiz-adv-x="1133" d="M1020 1082l.001-1082h-197v926h-366V620c0-213.333-28.333-370-85-470S218.667 0 82 0H26l4 168 41 1c70 0 118.833 34.167 146.5 102.5S259 456 259 620v462h761z"/><glyph glyph-name="uni043C" unicode="м" horiz-adv-x="1528" d="M759 258h6l354 824h246V0h-197v751l-6 2L830 0H694L356 770l-6-2V0H153v1082h254z"/><glyph glyph-name="uni043D" unicode="н" d="M1019 0H822v460H340V0H143v1082h197V614h482v468h197V0z"/><glyph glyph-name="uni043E" unicode="о" d="M97 551c0 160 43.332 291.833 129.999 395.5S431.333 1102 580 1102c150 0 268.5-51.667 355.5-155S1066 711.667 1066 551v-22c0-161.333-43.333-293.333-130-396S731.333-21 582-21 314.5 30.5 227.5 133.5 97 368.333 97 529v22zm196.999-22c0-114.667 24.168-209.334 72.501-284.001s120.166-112 215.499-112c94 0 165.333 37.333 214 112s73 169.334 73 284.001v22c0 113.333-24.5 207.666-73.5 282.999s-120.833 113-215.5 113c-94 0-165.167-37.667-213.5-113s-72.5-169.666-72.5-282.999v-22z"/><glyph glyph-name="uni043F" unicode="п" d="M1020 0H823v926H340V0H143v1082h877V0z"/><glyph glyph-name="uni0440" unicode="р" d="M1065 500c0-156-37.334-281.833-112.001-377.5S775.332-21 643.999-21c-66.667 0-125.167 11.167-175.5 33.5S375.333 68.333 340 113v-529H143v1498h151l31-140c35.333 52 79.333 91.667 132 119s114 41 184 41c134 0 238.167-53.167 312.5-159.5S1065 695.667 1065 521v-21zm-197.001 21c0 122.667-24.167 223.501-72.5 302.501s-119.5 118.5-213.5 118.5c-56.667 0-105-12.833-145-38.5s-72.333-60.834-97-105.501V275c24.667-44.667 57-79.5 97-104.5s89-37.5 147-37.5c93.333 0 164 34.167 212 102.5s72 156.5 72 264.5v21z"/><glyph glyph-name="uni0441" unicode="с" horiz-adv-x="1072" d="M573 133c60.667 0 113.667 20.167 159 60.5s68 89.833 68 148.5h178l3-6c2.667-93.333-37.333-176.166-120-248.499s-178.667-108.5-288-108.5c-152 0-269.333 51.667-352 155s-124 232-124 386v42c0 152.667 41.5 280.834 124.5 384.501s200.167 155.5 351.5 155.5c120.667 0 219.5-37.333 296.5-112S983.667 823.668 981 715.001l-2-6H800c0 66-21.5 122.167-64.5 168.5s-97.167 69.5-162.5 69.5c-96.667 0-167.167-37.5-211.5-112.5S295 668.668 295 562.001v-42c0-108.667 21.833-200.334 65.5-275.001S475 133 573 133z"/><glyph glyph-name="uni0442" unicode="т" horiz-adv-x="1048" d="M977 929H620V0H423v929H71v153h906V929z"/><glyph glyph-name="uni0443" unicode="у" horiz-adv-x="1030" d="M474 401l35-135.999h6l266 817h219l-455-1248c-27.333-72.667-66.5-136-117.5-190s-119.833-81-206.5-81c-16 0-36.333 1.833-61 5.5s-43.667 7.167-57 10.5l20 155c-4 .667 7.833 0 35.5-2s45.167-3 52.5-3c42 0 76.333 18.667 103 56S363-136.333 381-91l47 113L26 1082h220z"/><glyph glyph-name="uni0444" unicode="ф" horiz-adv-x="1826" d="M98 521c0 174 37.17 314.332 111.504 420.999s178.5 160 312.5 160c58.667 0 111.667-9.167 159-27.5S769.67 1029.333 805.003 994v566h197V978c36.667 40.667 80.167 71.5 130.5 92.5s107.5 31.5 171.5 31.5c133.333 0 237.166-53.167 311.499-159.5s111.5-246.833 111.5-421.5v-21c0-156-37.333-281.833-112-377.5S1437.335-21 1306.002-21c-64.667 0-122.334 10-173.001 30S1038.667 58.333 1002 97v-513H805V87c-36-36-77.5-63-124.5-81S580-21 520-21c-132 0-235.333 47.833-310 143.5S98 344 98 500v21zm1432-.001c0 123.333-24.167 225.166-72.5 305.499s-119.5 120.5-213.5 120.5c-56.667 0-105-13.167-145-39.5s-72.333-62.166-97-107.499v-525c24.667-44.667 57-79.5 97-104.5s89-37.5 147-37.5c93.333 0 164 34 212 102s72 156.333 72 265v21zm-1234.996-21c0-109.333 22.5-197.832 67.5-265.499S476.671 133 570.004 133c54 0 100.167 12 138.5 36s70.5 57.667 96.5 101v546c-26 40.667-58.167 72.667-96.5 96s-83.833 35-136.5 35c-94 0-163.667-39.833-209-119.5s-68-181.834-68-306.501v-21z"/><glyph glyph-name="uni0445" unicode="х" horiz-adv-x="1030" d="M510 683l230 399h230L619 547 980 0H754L514 409 274 0H46l361 547-351 535h227z"/><glyph glyph-name="uni0446" unicode="ц" horiz-adv-x="1218" d="M143 1082h197V154h483v928h197V154h132v-508H955V0H143v1082z"/><glyph glyph-name="uni0447" unicode="ч" horiz-adv-x="1131" d="M988 0H791.001v387c-38-10-77-17.5-117-22.5s-82.667-7.5-128-7.5c-130.667 0-233.167 34.333-307.5 103s-111.5 170.334-111.5 305.001v318h197v-318c0-86.667 18.667-150.334 56-191.001S472.667 513 546 513c44 0 86 2.5 126 7.5S751.667 533 791 543v539h197V0z"/><glyph glyph-name="uni0448" unicode="ш" horiz-adv-x="1645" d="M340 1082V154h381v928h197V154h381v928h197V0H143v1082h197z"/><glyph glyph-name="uni0449" unicode="щ" horiz-adv-x="1732" d="M340 1082V154h381v928h197V154h381v928h197V145h176v-483h-195V0H143v1082h197z"/><glyph glyph-name="uni044A" unicode="ъ" horiz-adv-x="1274" d="M45 1082l503.001.001v-412h269c128 0 227.5-30.667 298.5-92s106.5-141 106.5-239c0-98.667-35.833-179.834-107.5-243.501S943.667 0 817 0H351v927H45v155zm503.001-565.999l-.001-362h269c70.667 0 122.834 17 156.501 51s50.5 76.333 50.5 127c0 49.333-17 92.333-51 129s-86 55-156 55h-269z"/><glyph glyph-name="uni044B" unicode="ы" horiz-adv-x="1617" d="M370 670l269.001.001c128 0 227.5-30.667 298.5-92s106.5-141 106.5-239c0-98.667-35.833-179.834-107.5-243.501S765.667 0 639 0H173v1082h197V670zM1432 .001h-197v1082h197V.001zm-1061.999 516l-.001-362h269c70.667 0 122.834 17 156.501 51s50.5 76.333 50.5 127c0 49.333-17 92.333-51 129s-86 55-156 55h-269z"/><glyph glyph-name="uni044C" unicode="ь" horiz-adv-x="1113" d="M350 670l269.001.001c128 0 227.5-30.667 298.5-92s106.5-141 106.5-239c0-98.667-35.833-179.834-107.5-243.501S745.667 0 619 0H153v1082h197V670zm.001-153.999l-.001-362h269c70.667 0 122.834 17 156.501 51s50.5 76.333 50.5 127c0 49.333-17 92.333-51 129s-86 55-156 55h-269z"/><glyph glyph-name="uni044D" unicode="э" horiz-adv-x="1102" d="M520 947c-61.333 0-115.832-20.333-163.499-61s-71.5-90-71.5-148h-178l-2 6c-4 92.667 36.5 175.5 121.5 248.5s182.833 109.5 293.5 109.5c146.667 0 262.5-52.167 347.5-156.5s127.5-232.166 127.5-383.499v-42c0-152-42.667-280.167-128-384.5s-201-156.5-347-156.5c-122 0-222.667 37.167-302 111.5s-117.333 165.833-114 274.5l2 6h179c0-66 22.5-122.167 67.5-168.5s100.833-69.5 167.5-69.5c84 0 149 32.667 195 98s71.667 144.666 77 237.999l-3 5h-385v154h383l2 5c-6.667 87.333-32.834 161.5-78.501 222.5S601.333 947 520 947z"/><glyph glyph-name="uni044E" unicode="ю" horiz-adv-x="1671" d="M350 625l256.001.001c13.333 141.333 62.5 256.166 147.5 344.499s195.833 132.5 332.5 132.5c150 0 268.5-51.667 355.5-155s130.5-235.333 130.5-396v-22c0-161.333-43.333-293.333-130-396s-204.667-154-354-154c-140 0-252.833 45.5-338.5 136.5S615.667 325 605 471H350V0H153v1082h197V625zm450.001-95.999c0-114.667 24.168-209.334 72.501-284.001s120.166-112 215.499-112c94 0 165.333 37.333 214 112s73 169.334 73 284.001v22c0 113.333-24.5 207.666-73.5 282.999s-120.833 113-215.5 113c-94 0-165.167-37.667-213.5-113s-72.5-169.666-72.5-282.999v-22z"/><glyph glyph-name="uni044F" unicode="я" horiz-adv-x="1163" d="M1010 1082V0H813v420H546L290 0H78l274 449c-68.667 24.667-121.5 63.667-158.5 117S138 681 138 751c0 97.333 36.833 176.833 110.5 238.5S423.667 1082 553 1082h457zM336 749c0-48 16.333-88.999 49-122.999s81.667-51 147-51h281v354H553c-71.333 0-125.333-17.833-162-53.5S336 797.667 336 749z"/><glyph glyph-name="uni0450" unicode="ѐ" horiz-adv-x="1072" d="M591-21c-155.333 0-276.501 49.668-363.501 149.001s-130.5 230-130.5 392v44c0 155.333 44.833 283.833 134.5 385.5s199.167 152.5 328.5 152.5c144.667 0 253.167-45 325.5-135s108.5-209.667 108.5-359v-104h-692l-3-5c0-108.667 24-196.834 72-264.501s121.333-101.5 220-101.5c66.667 0 125.167 9.5 175.5 28.5s93.5 45.167 129.5 78.5l77-128c-38.667-37.333-89.667-68.833-153-94.5S680.333-21 591-21zm-31.001 968.001c-68.667 0-125.499-26.5-170.499-79.5S317 746.668 307 664.001l2-5h488v16c0 78.667-19.333 143.667-58 195s-98.334 77-179.001 77zM622 1280H464l-250 260 3 6h230z"/><glyph glyph-name="uni0451" unicode="ё" horiz-adv-x="1072" d="M591-21c-155.333 0-276.501 49.668-363.501 149.001s-130.5 230-130.5 392v44c0 155.333 44.833 283.833 134.5 385.5s199.167 152.5 328.5 152.5c144.667 0 253.167-45 325.5-135s108.5-209.667 108.5-359v-104h-692l-3-5c0-108.667 24-196.834 72-264.501s121.333-101.5 220-101.5c66.667 0 125.167 9.5 175.5 28.5s93.5 45.167 129.5 78.5l77-128c-38.667-37.333-89.667-68.833-153-94.5S680.333-21 591-21zm-31.001 968.001c-68.667 0-125.499-26.5-170.499-79.5S317 746.668 307 664.001l2-5h488v16c0 78.667-19.333 143.667-58 195s-98.334 77-179.001 77zM884 1284H665v200h219v-200zm-470 0H195v200h219v-200z"/><glyph glyph-name="uni0452" unicode="ђ" d="M576 1228l-235.999-.001v-291c37.333 52 83.166 92.5 137.499 121.5s114.5 43.5 180.5 43.5c115.333 0 205.166-34.667 269.499-104s96.5-176 96.5-320v-222h1v-545c0-111.333-28.667-197.166-86-257.499s-137.333-90.5-240-90.5c-22 0-41.667 1.333-59 4s-35.333 7-54 13l15 151c8.667-3.333 24.334-6.333 47.001-9s39.667-4 51-4c40 0 71.333 17.167 94 51.5S827-149 827-89v769c0 89.333-19.167 155.333-57.5 198S674 942 598 942c-58.667 0-109.667-11.5-153-34.5s-78.333-55.167-105-96.5V0H143v1228H-14v124h157v208h197v-208h236v-124z"/><glyph glyph-name="uni0453" unicode="ѓ" horiz-adv-x="849" d="M831 926H340V0H143v1082h688V926zm-314 594h230l2-6-269-260H332z"/></font>
</defs>
</svg>
